<?xml version="1.0" encoding="UTF-8" standalone="no"?>
<!-- Created with Inkscape (http://www.inkscape.org/) -->

<svg
   width="1432.5604mm"
   height="965.72247mm"
   viewBox="0 0 1432.5604 965.72248"
   version="1.1"
   id="svg5"
   inkscape:version="1.1.1 (3bf5ae0d25, 2021-09-20)"
   sodipodi:docname="equivalence_circuit.svg"
   xmlns:inkscape="http://www.inkscape.org/namespaces/inkscape"
   xmlns:sodipodi="http://sodipodi.sourceforge.net/DTD/sodipodi-0.dtd"
   xmlns="http://www.w3.org/2000/svg"
   xmlns:svg="http://www.w3.org/2000/svg"
   xmlns:ns12="http://www.iki.fi/pav/software/textext/">
  <sodipodi:namedview
     id="namedview7"
     pagecolor="#ffffff"
     bordercolor="#666666"
     borderopacity="1.0"
     inkscape:pageshadow="2"
     inkscape:pageopacity="0"
     inkscape:pagecheckerboard="0"
     inkscape:document-units="mm"
     showgrid="false"
     showborder="false"
     showguides="true"
     inkscape:guide-bbox="true"
     inkscape:snap-global="false"
     inkscape:zoom="0.32"
     inkscape:cx="2371.875"
     inkscape:cy="2768.75"
     inkscape:window-width="2688"
     inkscape:window-height="2160"
     inkscape:window-x="0"
     inkscape:window-y="0"
     inkscape:window-maximized="1"
     inkscape:current-layer="layer1">
    <sodipodi:guide
       position="-3773.7667,-989.54111"
       orientation="1,0"
       id="guide1109" />
    <sodipodi:guide
       position="-4988.6408,-715.39821"
       orientation="0,-1"
       id="guide2092" />
    <sodipodi:guide
       position="614.78409,1055.9898"
       orientation="1,0"
       id="guide1463" />
    <sodipodi:guide
       position="-1803.5849,2561.9705"
       orientation="1,0"
       id="guide10521" />
    <sodipodi:guide
       position="3616.8779,1849.2997"
       orientation="0,-1"
       id="guide12136" />
  </sodipodi:namedview>
  <defs
     id="defs2">
    <marker
       style="overflow:visible"
       id="Arrow2Lend"
       refX="0"
       refY="0"
       orient="auto"
       inkscape:stockid="Arrow2Lend"
       inkscape:isstock="true">
      <path
         transform="matrix(-1.1,0,0,-1.1,-1.1,0)"
         d="M 8.7185878,4.0337352 -2.2072895,0.01601326 8.7185884,-4.0017078 c -1.7454984,2.3720609 -1.7354408,5.6174519 -6e-7,8.035443 z"
         style="fill:context-stroke;fill-rule:evenodd;stroke:context-stroke;stroke-width:0.625;stroke-linejoin:round"
         id="path10899" />
    </marker>
    <marker
       style="overflow:visible"
       id="Arrow2Lstart"
       refX="0"
       refY="0"
       orient="auto"
       inkscape:stockid="Arrow2Lstart"
       inkscape:isstock="true">
      <path
         transform="matrix(1.1,0,0,1.1,1.1,0)"
         d="M 8.7185878,4.0337352 -2.2072895,0.01601326 8.7185884,-4.0017078 c -1.7454984,2.3720609 -1.7354408,5.6174519 -6e-7,8.035443 z"
         style="fill:context-stroke;fill-rule:evenodd;stroke:context-stroke;stroke-width:0.625;stroke-linejoin:round"
         id="path10896" />
    </marker>
    <marker
       style="overflow:visible"
       id="Arrow1Lend"
       refX="0"
       refY="0"
       orient="auto"
       inkscape:stockid="Arrow1Lend"
       inkscape:isstock="true">
      <path
         transform="matrix(-0.8,0,0,-0.8,-10,0)"
         style="fill:context-stroke;fill-rule:evenodd;stroke:context-stroke;stroke-width:1pt"
         d="M 0,0 5,-5 -12.5,0 5,5 Z"
         id="path10881" />
    </marker>
    <marker
       style="overflow:visible"
       id="Arrow1Lstart"
       refX="0"
       refY="0"
       orient="auto"
       inkscape:stockid="Arrow1Lstart"
       inkscape:isstock="true">
      <path
         transform="matrix(0.8,0,0,0.8,10,0)"
         style="fill:context-stroke;fill-rule:evenodd;stroke:context-stroke;stroke-width:1pt"
         d="M 0,0 5,-5 -12.5,0 5,5 Z"
         id="path10878" />
    </marker>
    <inkscape:path-effect
       effect="bspline"
       id="path-effect1184"
       is_visible="true"
       lpeversion="1"
       weight="33.333333"
       steps="2"
       helper_size="0"
       apply_no_weight="true"
       apply_with_weight="true"
       only_selected="false" />
    <inkscape:path-effect
       effect="bspline"
       id="path-effect1147"
       is_visible="true"
       lpeversion="1"
       weight="33.333333"
       steps="2"
       helper_size="0"
       apply_no_weight="true"
       apply_with_weight="true"
       only_selected="false" />
    <inkscape:path-effect
       effect="bspline"
       id="path-effect1061"
       is_visible="true"
       lpeversion="1"
       weight="33.333333"
       steps="2"
       helper_size="0"
       apply_no_weight="true"
       apply_with_weight="true"
       only_selected="false" />
    <inkscape:path-effect
       effect="skeletal"
       id="path-effect2387"
       is_visible="true"
       lpeversion="1"
       pattern="#path1691"
       copytype="repeated"
       prop_scale="1"
       scale_y_rel="false"
       spacing="3"
       normal_offset="0"
       tang_offset="0"
       prop_units="false"
       vertical_pattern="false"
       hide_knot="false"
       fuse_tolerance="0" />
    <inkscape:path-effect
       effect="bspline"
       id="path-effect2268"
       is_visible="true"
       lpeversion="1"
       weight="33.333333"
       steps="2"
       helper_size="0"
       apply_no_weight="true"
       apply_with_weight="true"
       only_selected="false" />
    <inkscape:path-effect
       effect="bspline"
       id="path-effect2262"
       is_visible="true"
       lpeversion="1"
       weight="33.333333"
       steps="2"
       helper_size="0"
       apply_no_weight="true"
       apply_with_weight="true"
       only_selected="false" />
    <inkscape:path-effect
       effect="bspline"
       id="path-effect2096"
       is_visible="true"
       lpeversion="1"
       weight="33.333333"
       steps="2"
       helper_size="0"
       apply_no_weight="true"
       apply_with_weight="true"
       only_selected="false" />
    <inkscape:path-effect
       effect="bspline"
       id="path-effect1965"
       is_visible="true"
       lpeversion="1"
       weight="33.333333"
       steps="2"
       helper_size="0"
       apply_no_weight="true"
       apply_with_weight="true"
       only_selected="false" />
    <inkscape:path-effect
       effect="bspline"
       id="path-effect1959"
       is_visible="true"
       lpeversion="1"
       weight="33.333333"
       steps="2"
       helper_size="0"
       apply_no_weight="true"
       apply_with_weight="true"
       only_selected="false" />
    <inkscape:path-effect
       effect="bspline"
       id="path-effect1953"
       is_visible="true"
       lpeversion="1"
       weight="33.333333"
       steps="2"
       helper_size="0"
       apply_no_weight="true"
       apply_with_weight="true"
       only_selected="false" />
    <inkscape:path-effect
       effect="bspline"
       id="path-effect1947"
       is_visible="true"
       lpeversion="1"
       weight="33.333333"
       steps="2"
       helper_size="0"
       apply_no_weight="true"
       apply_with_weight="true"
       only_selected="false" />
    <inkscape:path-effect
       effect="bspline"
       id="path-effect1941"
       is_visible="true"
       lpeversion="1"
       weight="33.333333"
       steps="2"
       helper_size="0"
       apply_no_weight="true"
       apply_with_weight="true"
       only_selected="false" />
    <inkscape:path-effect
       effect="bspline"
       id="path-effect1775"
       is_visible="true"
       lpeversion="1"
       weight="33.333333"
       steps="2"
       helper_size="0"
       apply_no_weight="true"
       apply_with_weight="true"
       only_selected="false" />
    <inkscape:path-effect
       effect="bspline"
       id="path-effect1695"
       is_visible="true"
       lpeversion="1"
       weight="33.333333"
       steps="2"
       helper_size="0"
       apply_no_weight="true"
       apply_with_weight="true"
       only_selected="false" />
    <inkscape:path-effect
       effect="bspline"
       id="path-effect1689"
       is_visible="true"
       lpeversion="1"
       weight="33.333333"
       steps="2"
       helper_size="0"
       apply_no_weight="true"
       apply_with_weight="true"
       only_selected="false" />
    <inkscape:path-effect
       effect="bspline"
       id="path-effect1345"
       is_visible="true"
       lpeversion="1"
       weight="33.333333"
       steps="2"
       helper_size="0"
       apply_no_weight="true"
       apply_with_weight="true"
       only_selected="false" />
    <inkscape:path-effect
       effect="bspline"
       id="path-effect1259"
       is_visible="true"
       lpeversion="1"
       weight="33.333333"
       steps="2"
       helper_size="0"
       apply_no_weight="true"
       apply_with_weight="true"
       only_selected="false" />
  </defs>
  <g
     inkscape:label="Layer 1"
     inkscape:groupmode="layer"
     id="layer1"
     transform="translate(-4060.7725,1946.7126)">
    <path
       id="path1691"
       style="fill:#aaaaaa;fill-opacity:0.332995;stroke:#000000;stroke-width:0.69221;stroke-linecap:square;stroke-dasharray:0.69221, 4.15326;stop-color:#000000"
       d="m 3779.1837,-1137.8923 v -46.0294 m -14.542,46.5281 v -46.2419 m 18.9818,55.1768 c 0,-6.3827 -5.1742,-11.5568 -11.5568,-11.5568 -6.3827,0 -11.5568,5.1741 -11.5568,11.5568 0,6.3826 5.1741,11.5568 11.5568,11.5568 6.3826,0 11.5568,-5.1742 11.5568,-11.5568 z m -4.4398,-104.1607 v 45.9401 m -14.542,-46.4388 v 46.0715 m 18.9818,-55.0064 c 0,6.3826 -5.1742,11.5568 -11.5568,11.5568 -6.3827,0 -11.5568,-5.1742 -11.5568,-11.5568 0,-6.3827 5.1741,-11.5568 11.5568,-11.5568 6.3826,0 11.5568,5.1741 11.5568,11.5568 z"
       sodipodi:nodetypes="ccccsssssccccsssss" />
    <g
       id="g2053"
       transform="matrix(0.25347404,0,0,0.25347404,4619.0005,-1146.8876)"
       style="fill:#eeeeee;fill-opacity:1;stroke-width:3;stroke-miterlimit:4;stroke-dasharray:none">
      <path
         style="fill:#eeeeee;fill-opacity:1;stroke:#000000;stroke-width:3;stroke-linecap:square;stroke-miterlimit:4;stroke-dasharray:none;stop-color:#000000"
         d="m -239.29101,-1675.7011 c -55.77644,174.7916 -55.77644,518.8643 0.001,690.90051 55.7776,172.03621 167.328103,172.03621 223.104353,-2.7586 55.77625,-174.79481 55.77625,-524.37071 -0.0012,-696.40711 -55.777405,-172.0364 -167.327907,-166.5264 -223.104357,8.2652 z"
         id="path1943"
         inkscape:path-effect="#path-effect1947"
         inkscape:original-d="m -295.06745,-1844.9825 c 0,344.073 0,688.1457 0,1032.21812 111.5552,0 223.105703,0 334.658203,0 0,-349.58962 0,-699.16552 0,-1048.74862 -111.5548,5.5105 -223.105303,11.0206 -334.658203,16.5305 z" />
      <path
         style="fill:#eeeeee;fill-opacity:1;stroke:#000000;stroke-width:3;stroke-linecap:square;stroke-miterlimit:4;stroke-dasharray:none;stop-color:#000000"
         d="m 186.38559,-1675.7011 c -55.77644,174.7916 -55.77644,518.8643 0.001,690.90051 55.77755,172.03621 167.32805,172.03621 223.10435,-2.7586 55.7763,-174.79481 55.7763,-524.37071 -0.001,-696.40711 -55.7774,-172.0364 -167.3279,-166.5264 -223.10435,8.2652 z"
         id="path1949"
         inkscape:path-effect="#path-effect1953"
         inkscape:original-d="m 130.60915,-1844.9825 c 0,344.073 0,688.1457 0,1032.21812 111.5551,0 223.1056,0 334.6582,0 0,-349.58962 0,-699.16552 0,-1048.74862 -111.5548,5.5105 -223.1053,11.0206 -334.6582,16.5305 z" />
    </g>
    <path
       id="path2264"
       style="fill:#eeeeee;fill-opacity:1;stroke:#000000;stroke-width:0.760422;stroke-linecap:square;stroke-miterlimit:4;stroke-dasharray:none;stop-color:#000000"
       inkscape:path-effect="#path-effect2268;#path-effect2387"
       inkscape:original-d="m 4738.6583,-1485.0693 h 775.7651 m -1279.5518,1.2114 h 317.0141"
       d="m 4757.3321,-1437.7058 v -46.0294 m -14.542,46.5281 v -46.2419 m 18.9818,55.1768 c 0,-6.3827 -5.1742,-11.5568 -11.5568,-11.5568 -0.9797,0 -1.931,0.122 -2.8395,0.3515 -2.6433,0.6677 -4.9241,2.2462 -6.4891,4.3821 l 0,0 c -0.7159,0.9772 -1.282,2.071 -1.6644,3.2476 l 0,0 0,0 c -0.1847,0.5681 -0.3265,1.1555 -0.4217,1.7583 l 0,0 0,0 0,0 c -0.047,0.2967 -0.083,0.5972 -0.1063,0.9009 0,0 0,0 0,0 -0.018,0.3024 -0.027,0.608 -0.027,0.9164 0,0.3085 0.01,0.6141 0.027,0.9165 0,0 0,0 0,0 0.024,0.3037 0.059,0.6042 0.1063,0.9009 l 0,0 0,0 0,0 c 0.095,0.6028 0.237,1.1902 0.4217,1.7582 l 0,0 0,0 c 0.3824,1.1767 0.9485,2.2705 1.6644,3.2476 l 0,0 c 1.565,2.136 3.8458,3.7145 6.4891,4.3822 0.9085,0.2295 1.8598,0.3514 2.8395,0.3514 6.3826,0 11.5568,-5.1741 11.5568,-11.5568 z m -4.4398,-104.1607 v 45.9401 m -14.542,-46.4387 v 46.0715 m 18.9818,-55.0064 c 0,6.3826 -5.1742,11.5567 -11.5568,11.5567 -0.9797,0 -1.931,-0.1219 -2.8395,-0.3514 -2.6433,-0.6677 -4.9241,-2.2462 -6.4891,-4.3822 l 0,0 c -0.7159,-0.9771 -1.282,-2.0709 -1.6644,-3.2476 l 0,0 0,0 c -0.1847,-0.568 -0.3265,-1.1554 -0.4217,-1.7582 l 0,0 0,0 0,0 c -0.047,-0.2967 -0.083,-0.5972 -0.1063,-0.9009 0,0 0,0 0,0 -0.018,-0.3024 -0.027,-0.608 -0.027,-0.9164 0,-0.3085 0.01,-0.6141 0.027,-0.9165 0,0 0,0 0,0 0.024,-0.3037 0.059,-0.6042 0.1063,-0.9009 l 0,0 0,0 0,0 c 0.095,-0.6028 0.237,-1.1902 0.4217,-1.7583 l 0,0 0,0 c 0.3824,-1.1766 0.9485,-2.2704 1.6644,-3.2476 l 0,0 c 1.565,-2.1359 3.8458,-3.7144 6.4891,-4.3821 0.9085,-0.2295 1.8598,-0.3515 2.8395,-0.3515 6.3826,10e-5 11.5568,5.1742 11.5568,11.5569 z m 21.6738,104.1606 v -46.0294 m -14.542,46.5281 v -46.2419 m 18.9818,55.1768 c 0,-6.3827 -5.1742,-11.5568 -11.5568,-11.5568 -1.5306,0 -2.9916,0.2976 -4.3285,0.838 0,0 0,0 0,0 -4.2382,1.7131 -7.2283,5.8667 -7.2283,10.7188 0,4.8521 2.9901,9.0058 7.2283,10.7189 0,0 0,0 0,0 1.3369,0.5404 2.7979,0.8379 4.3285,0.8379 6.3826,0 11.5568,-5.1742 11.5568,-11.5568 z m -4.4398,-104.1607 v 45.9401 m -14.542,-46.4387 v 46.0714 m 18.9818,-55.0063 c 0,6.3826 -5.1742,11.5568 -11.5568,11.5568 -1.5306,0 -2.9916,-0.2976 -4.3285,-0.838 0,0 0,0 0,0 -4.2382,-1.7131 -7.2283,-5.8668 -7.2283,-10.7188 0,-4.8522 2.9901,-9.0058 7.2283,-10.7189 0,0 0,0 0,0 1.3369,-0.5404 2.7979,-0.8379 4.3285,-0.8379 6.3826,0 11.5568,5.174 11.5568,11.5568 z m 21.6738,104.1606 v -46.0294 m -14.542,46.5281 v -46.2419 m 18.9818,55.1768 c 0,-6.3826 -5.1742,-11.5568 -11.5568,-11.5568 -6.3827,0 -11.5568,5.1741 -11.5568,11.5568 0,6.3826 5.1741,11.5568 11.5568,11.5568 6.3826,0 11.5568,-5.1742 11.5568,-11.5568 z m -4.4398,-104.1607 v 45.9401 m -14.542,-46.4387 v 46.0714 m 18.9818,-55.0063 c 0,6.3826 -5.1742,11.5568 -11.5568,11.5568 -6.3827,0 -11.5568,-5.1742 -11.5568,-11.5568 0,-6.3827 5.1741,-11.5568 11.5568,-11.5568 6.3826,0 11.5568,5.1741 11.5568,11.5568 z m 21.6738,104.1606 v -46.0294 m -14.542,46.5281 v -46.2419 m 18.9818,55.1768 c 0,-6.3826 -5.1742,-11.5568 -11.5568,-11.5568 -6.3827,0 -11.5568,5.1741 -11.5568,11.5568 0,6.3826 5.1741,11.5568 11.5568,11.5568 6.3826,0 11.5568,-5.1742 11.5568,-11.5568 z m -4.4398,-104.1607 v 45.9401 m -14.542,-46.4387 v 46.0714 m 18.9818,-55.0064 c 0,6.3827 -5.1742,11.5568 -11.5568,11.5568 -6.3827,10e-5 -11.5568,-5.1741 -11.5568,-11.5567 0,-6.3827 5.1741,-11.5568 11.5568,-11.5568 6.3826,0 11.5568,5.174 11.5568,11.5567 z m 21.6738,104.1607 v -46.0294 m -14.542,46.5281 v -46.2419 m 18.9818,55.1768 c 0,-4.5077 -2.5808,-8.4126 -6.3453,-10.3178 -1.5659,-0.7925 -3.3366,-1.239 -5.2115,-1.239 -6.3827,0 -11.5568,5.1741 -11.5568,11.5568 0,6.3827 5.1741,11.5568 11.5568,11.5568 1.8749,0 3.6456,-0.4465 5.2115,-1.2389 3.7645,-1.9053 6.3453,-5.8102 6.3453,-10.3179 z m -4.4398,-104.1607 v 45.9401 m -14.542,-46.4388 v 46.0715 m 18.9818,-55.0064 c 0,4.5077 -2.5808,8.4126 -6.3453,10.3179 -1.5659,0.7924 -3.3366,1.2389 -5.2115,1.2389 -6.3827,0 -11.5568,-5.1741 -11.5568,-11.5568 0,-6.3826 5.1741,-11.5567 11.5568,-11.5568 1.8749,0 3.6456,0.4465 5.2115,1.239 3.7645,1.9052 6.3453,5.8101 6.3453,10.3178 z m 21.6738,104.1607 v -46.0294 m -14.542,46.5281 v -46.2419 m 18.9818,55.1768 c 0,-6.3827 -5.1742,-11.5568 -11.5568,-11.5568 -6.3827,0 -11.5568,5.1741 -11.5568,11.5568 0,6.3827 5.1741,11.5568 11.5568,11.5568 6.3826,0 11.5568,-5.1741 11.5568,-11.5568 z m -4.4398,-104.1607 v 45.9401 m -14.542,-46.4388 v 46.0715 m 18.9818,-55.0064 c 0,6.3827 -5.1742,11.5568 -11.5568,11.5568 -6.3827,0 -11.5568,-5.1741 -11.5568,-11.5568 0,-6.3827 5.1741,-11.5568 11.5568,-11.5568 6.3826,0 11.5568,5.1741 11.5568,11.5568 z m 21.6738,104.1607 v -46.0294 m -14.542,46.5281 v -46.2419 m 18.9818,55.1768 c 0,-6.3827 -5.1742,-11.5568 -11.5568,-11.5568 -6.3827,0 -11.5568,5.1741 -11.5568,11.5568 0,6.3827 5.1741,11.5568 11.5568,11.5568 6.3826,0 11.5568,-5.1741 11.5568,-11.5568 z m -4.4398,-104.1607 v 45.9401 m -14.542,-46.4388 v 46.0715 m 18.9818,-55.0064 c 0,6.3827 -5.1742,11.5568 -11.5568,11.5568 -6.3827,0 -11.5568,-5.1741 -11.5568,-11.5568 0,-6.3827 5.1741,-11.5568 11.5568,-11.5568 6.3826,0 11.5568,5.1741 11.5568,11.5568 z m 21.6738,104.1607 v -46.0294 m -14.542,46.5281 v -46.2419 m 18.9818,55.1768 c 0,-6.3827 -5.1742,-11.5568 -11.5568,-11.5568 -6.3827,0 -11.5568,5.1741 -11.5568,11.5568 0,6.3827 5.1741,11.5568 11.5568,11.5568 6.3826,0 11.5568,-5.1741 11.5568,-11.5568 z m -4.4398,-104.1607 v 45.9401 m -14.542,-46.4388 v 46.0715 m 18.9818,-55.0064 c 0,6.3827 -5.1742,11.5568 -11.5568,11.5568 -6.3827,0 -11.5568,-5.1741 -11.5568,-11.5568 0,-6.3827 5.1741,-11.5568 11.5568,-11.5568 6.3826,0 11.5568,5.1741 11.5568,11.5568 z m 21.6738,104.1607 v -46.0294 m -14.542,46.5281 v -46.2419 m 18.9818,55.1768 c 0,-6.3827 -5.1742,-11.5568 -11.5568,-11.5568 -6.3827,0 -11.5568,5.1741 -11.5568,11.5568 0,6.3827 5.1741,11.5568 11.5568,11.5568 6.3826,0 11.5568,-5.1741 11.5568,-11.5568 z m -4.4398,-104.1607 v 45.9401 m -14.542,-46.4388 v 46.0715 m 18.9818,-55.0064 c 0,6.3827 -5.1742,11.5568 -11.5568,11.5568 -6.3827,0 -11.5568,-5.1741 -11.5568,-11.5568 0,-6.3827 5.1741,-11.5568 11.5568,-11.5568 6.3826,0 11.5568,5.1741 11.5568,11.5568 z m 21.6738,104.1607 v -46.0294 m -14.542,46.5281 v -46.2419 m 18.9818,55.1768 c 0,-6.3827 -5.1742,-11.5568 -11.5568,-11.5568 -6.3827,0 -11.5568,5.1741 -11.5568,11.5568 0,6.3827 5.1741,11.5568 11.5568,11.5568 6.3826,0 11.5568,-5.1741 11.5568,-11.5568 z m -4.4398,-104.1607 v 45.9401 m -14.542,-46.4388 v 46.0715 m 18.9818,-55.0064 c 0,6.3827 -5.1742,11.5568 -11.5568,11.5568 -6.3827,0 -11.5568,-5.1741 -11.5568,-11.5568 0,-6.3827 5.1741,-11.5568 11.5568,-11.5568 6.3826,0 11.5568,5.1741 11.5568,11.5568 z m 21.6738,104.1607 v -46.0294 m -14.542,46.5281 v -46.2419 m 18.9818,55.1768 c 0,-6.3827 -5.1742,-11.5568 -11.5568,-11.5568 -6.3827,0 -11.5568,5.1741 -11.5568,11.5568 0,6.3827 5.1741,11.5568 11.5568,11.5568 6.3826,0 11.5568,-5.1741 11.5568,-11.5568 z m -4.4398,-104.1607 v 45.9401 m -14.542,-46.4388 v 46.0715 m 18.9818,-55.0064 c 0,6.3827 -5.1742,11.5568 -11.5568,11.5568 -6.3827,0 -11.5568,-5.1741 -11.5568,-11.5568 0,-6.3827 5.1741,-11.5568 11.5568,-11.5568 6.3826,0 11.5568,5.1741 11.5568,11.5568 z m 21.6738,104.1607 v -46.0294 m -14.542,46.5281 v -46.2419 m 18.9818,55.1768 c 0,-6.3827 -5.1742,-11.5568 -11.5568,-11.5568 -6.3827,0 -11.5568,5.1741 -11.5568,11.5568 0,6.3827 5.1741,11.5568 11.5568,11.5568 6.3826,0 11.5568,-5.1741 11.5568,-11.5568 z m -4.4398,-104.1607 v 45.9401 m -14.542,-46.4388 v 46.0715 m 18.9818,-55.0064 c 0,6.3827 -5.1742,11.5568 -11.5568,11.5568 -6.3827,0 -11.5568,-5.1741 -11.5568,-11.5568 0,-6.3827 5.1741,-11.5568 11.5568,-11.5568 6.3826,0 11.5568,5.1741 11.5568,11.5568 z m 21.6738,104.1607 v -46.0294 m -14.542,46.5281 v -46.2419 m 18.9818,55.1768 c 0,-6.3827 -5.1742,-11.5568 -11.5568,-11.5568 -6.3827,0 -11.5568,5.1741 -11.5568,11.5568 0,6.3827 5.1741,11.5568 11.5568,11.5568 6.3826,0 11.5568,-5.1741 11.5568,-11.5568 z m -4.4398,-104.1607 v 45.9401 m -14.542,-46.4388 v 46.0715 m 18.9818,-55.0064 c 0,6.3827 -5.1742,11.5568 -11.5568,11.5568 -6.3827,0 -11.5568,-5.1741 -11.5568,-11.5568 0,-6.3827 5.1741,-11.5568 11.5568,-11.5568 6.3826,0 11.5568,5.1741 11.5568,11.5568 z m 21.6738,104.1607 v -46.0294 m -14.542,46.5281 v -46.2419 m 18.9818,55.1768 c 0,-6.3827 -5.1742,-11.5568 -11.5568,-11.5568 -6.3827,0 -11.5568,5.1741 -11.5568,11.5568 0,6.3827 5.1741,11.5568 11.5568,11.5568 6.3826,0 11.5568,-5.1741 11.5568,-11.5568 z m -4.4398,-104.1607 v 45.9401 m -14.542,-46.4388 v 46.0715 m 18.9818,-55.0064 c 0,6.3827 -5.1742,11.5568 -11.5568,11.5568 -6.3827,0 -11.5568,-5.1741 -11.5568,-11.5568 0,-6.3827 5.1741,-11.5568 11.5568,-11.5568 6.3826,0 11.5568,5.1741 11.5568,11.5568 z m 21.6738,104.1607 v -46.0294 m -14.542,46.5281 v -46.2419 m 18.9818,55.1768 c 0,-1.5149 -0.2915,-2.9618 -0.8215,-4.2875 -1.7028,-4.2598 -5.8676,-7.2693 -10.7353,-7.2693 -6.3827,0 -11.5568,5.1741 -11.5568,11.5568 0,6.3827 5.1741,11.5568 11.5568,11.5568 4.8677,0 9.0325,-3.0094 10.7353,-7.2692 0.53,-1.3258 0.8215,-2.7726 0.8215,-4.2876 z m -4.4398,-104.1607 v 45.9401 m -14.542,-46.4388 v 46.0715 m 18.9818,-55.0064 c 0,1.515 -0.2915,2.9618 -0.8215,4.2876 -1.7028,4.2598 -5.8676,7.2692 -10.7353,7.2692 -6.3827,0 -11.5568,-5.1741 -11.5568,-11.5568 0,-6.3827 5.1741,-11.5568 11.5568,-11.5568 4.8677,0 9.0325,3.0095 10.7353,7.2693 0.53,1.3257 0.8215,2.7726 0.8215,4.2875 z m 21.6738,104.1607 v -46.0294 m -14.542,46.5281 v -46.2419 m 18.9818,55.1768 c 0,-6.3827 -5.1742,-11.5568 -11.5568,-11.5568 -6.3827,0 -11.5568,5.1741 -11.5568,11.5568 0,6.3827 5.1741,11.5568 11.5568,11.5568 6.3826,0 11.5568,-5.1741 11.5568,-11.5568 z m -4.4398,-104.1607 v 45.9401 m -14.542,-46.4388 v 46.0715 m 18.9818,-55.0064 c 0,6.3827 -5.1742,11.5568 -11.5568,11.5568 -6.3827,0 -11.5568,-5.1741 -11.5568,-11.5568 0,-6.3826 5.1741,-11.5567 11.5568,-11.5568 6.3826,0 11.5568,5.1741 11.5568,11.5568 z m 21.6738,104.1607 v -46.0294 m -14.542,46.5281 v -46.2419 m 18.9818,55.1768 c 0,-6.3827 -5.1742,-11.5568 -11.5568,-11.5568 -6.3827,0 -11.5568,5.1741 -11.5568,11.5568 0,6.3827 5.1741,11.5568 11.5568,11.5568 6.3826,0 11.5568,-5.1741 11.5568,-11.5568 z m -4.4398,-104.1607 v 45.9401 m -14.542,-46.4388 v 46.0715 m 18.9818,-55.0064 c 0,6.3827 -5.1742,11.5568 -11.5568,11.5568 -6.3827,0 -11.5568,-5.1741 -11.5568,-11.5568 0,-6.3827 5.1741,-11.5568 11.5568,-11.5568 6.3826,0 11.5568,5.1741 11.5568,11.5568 z m 21.6738,104.1607 v -46.0294 m -14.542,46.5281 v -46.2419 m 18.9818,55.1768 c 0,-6.3827 -5.1742,-11.5568 -11.5568,-11.5568 -6.3827,0 -11.5568,5.1741 -11.5568,11.5568 0,6.3827 5.1741,11.5568 11.5568,11.5568 6.3826,0 11.5568,-5.1741 11.5568,-11.5568 z m -4.4398,-104.1607 v 45.9401 m -14.542,-46.4388 v 46.0715 m 18.9818,-55.0064 c 0,6.3827 -5.1742,11.5568 -11.5568,11.5568 -6.3827,0 -11.5568,-5.1741 -11.5568,-11.5568 0,-6.3827 5.1741,-11.5568 11.5568,-11.5568 6.3826,0 11.5568,5.1741 11.5568,11.5568 z m 21.6738,104.1607 v -46.0294 m -14.542,46.5281 v -46.2419 m 18.9818,55.1768 c 0,-6.3827 -5.1742,-11.5568 -11.5568,-11.5568 -6.3827,0 -11.5568,5.1741 -11.5568,11.5568 0,6.3827 5.1741,11.5568 11.5568,11.5568 6.3826,0 11.5568,-5.1741 11.5568,-11.5568 z m -4.4398,-104.1607 v 45.9401 m -14.542,-46.4388 v 46.0715 m 18.9818,-55.0064 c 0,6.3827 -5.1742,11.5568 -11.5568,11.5568 -6.3827,0 -11.5568,-5.1741 -11.5568,-11.5568 0,-6.3827 5.1741,-11.5568 11.5568,-11.5568 6.3826,0 11.5568,5.1741 11.5568,11.5568 z m 21.6738,104.1607 v -46.0294 m -14.542,46.5281 v -46.2419 m 18.9818,55.1768 c 0,-6.3827 -5.1742,-11.5568 -11.5568,-11.5568 -6.3827,0 -11.5568,5.1741 -11.5568,11.5568 0,6.3826 5.1741,11.5568 11.5568,11.5568 6.3826,10e-5 11.5568,-5.1741 11.5568,-11.5568 z m -4.4398,-104.1607 v 45.9401 m -14.542,-46.4388 v 46.0715 m 18.9818,-55.0064 c 0,6.3827 -5.1742,11.5568 -11.5568,11.5568 -6.3827,0 -11.5568,-5.1741 -11.5568,-11.5568 0,-6.3827 5.1741,-11.5568 11.5568,-11.5568 6.3826,0 11.5568,5.1741 11.5568,11.5568 z m 21.6738,104.1607 v -46.0294 m -14.542,46.5281 v -46.2419 m 18.9818,55.1768 c 0,-6.3827 -5.1742,-11.5568 -11.5568,-11.5568 -6.3827,0 -11.5568,5.1741 -11.5568,11.5568 0,6.3826 5.1741,11.5568 11.5568,11.5568 6.3826,0 11.5568,-5.1742 11.5568,-11.5568 z m -4.4398,-104.1607 v 45.9401 m -14.542,-46.4388 v 46.0715 m 18.9818,-55.0064 c 0,6.3826 -5.1742,11.5568 -11.5568,11.5568 -6.3827,0 -11.5568,-5.1741 -11.5568,-11.5568 0,-6.3827 5.1741,-11.5568 11.5568,-11.5568 6.3826,0 11.5568,5.1741 11.5568,11.5568 z m 21.6738,104.1607 v -46.0294 m -14.542,46.5281 v -46.2419 m 18.9818,55.1768 c 0,-6.3827 -5.1742,-11.5568 -11.5568,-11.5568 -6.3827,0 -11.5568,5.1742 -11.5568,11.5568 0,6.3826 5.1741,11.5568 11.5568,11.5568 6.3826,0 11.5568,-5.1742 11.5568,-11.5568 z m -4.4398,-104.1607 v 45.9401 m -14.542,-46.4388 v 46.0715 m 18.9818,-55.0064 c 0,6.3826 -5.1742,11.5568 -11.5568,11.5568 -6.3827,0 -11.5568,-5.1742 -11.5568,-11.5568 0,-6.3827 5.1741,-11.5568 11.5568,-11.5568 6.3826,0 11.5568,5.1741 11.5568,11.5568 z m 21.6738,104.1607 v -46.0294 m -14.542,46.5281 v -46.2419 m 18.9818,55.1768 c 0,-6.3827 -5.1742,-11.5568 -11.5568,-11.5568 -6.3827,0 -11.5568,5.1742 -11.5568,11.5568 0,6.3826 5.1741,11.5568 11.5568,11.5568 6.3826,0 11.5568,-5.1742 11.5568,-11.5568 z m -4.4398,-104.1607 v 45.9401 m -14.542,-46.4388 v 46.0715 m 18.9818,-55.0064 c 0,6.3826 -5.1742,11.5568 -11.5568,11.5568 -6.3827,0 -11.5568,-5.1742 -11.5568,-11.5568 0,-6.3827 5.1741,-11.5568 11.5568,-11.5568 6.3826,0 11.5568,5.1741 11.5568,11.5568 z m 21.6738,104.1607 v -46.0294 m -14.542,46.5281 v -46.2419 m 18.9818,55.1768 c 0,-6.3827 -5.1742,-11.5568 -11.5568,-11.5568 -6.3827,0 -11.5568,5.1742 -11.5568,11.5568 0,6.3826 5.1741,11.5568 11.5568,11.5568 6.3826,0 11.5568,-5.1742 11.5568,-11.5568 z m -4.4398,-104.1607 v 45.9401 m -14.542,-46.4388 v 46.0715 m 18.9818,-55.0064 c 0,6.3826 -5.1742,11.5568 -11.5568,11.5568 -6.3827,0 -11.5568,-5.1742 -11.5568,-11.5568 0,-6.3827 5.1741,-11.5568 11.5568,-11.5568 6.3826,0 11.5568,5.1741 11.5568,11.5568 z m 21.6738,104.1607 v -46.0294 m -14.542,46.5281 v -46.2419 m 18.9818,55.1768 c 0,-6.3827 -5.1742,-11.5568 -11.5568,-11.5568 -6.3827,0 -11.5568,5.1742 -11.5568,11.5568 0,6.3827 5.1741,11.5569 11.5568,11.5568 6.3826,0 11.5568,-5.1742 11.5568,-11.5568 z m -4.4398,-104.1607 v 45.9401 m -14.542,-46.4388 v 46.0715 m 18.9818,-55.0064 c 0,6.3826 -5.1742,11.5568 -11.5568,11.5568 -6.3827,0 -11.5568,-5.1742 -11.5568,-11.5568 0,-6.3827 5.1741,-11.5568 11.5568,-11.5568 6.3826,0 11.5568,5.1741 11.5568,11.5568 z m 21.6738,104.1607 v -46.0294 m -14.542,46.5281 v -46.2419 m 18.9818,55.1768 c 0,-6.3827 -5.1742,-11.5568 -11.5568,-11.5568 -4.1685,0 -7.8215,2.207 -9.8544,5.5162 -1.0797,1.7578 -1.7024,3.8265 -1.7024,6.0406 0,2.2142 0.6227,4.2829 1.7024,6.0406 2.0329,3.3093 5.6859,5.5162 9.8544,5.5162 6.3826,0 11.5568,-5.1742 11.5568,-11.5568 z m -4.4398,-104.1606 v 45.9401 m -14.542,-46.4388 v 46.0715 m 18.9818,-55.0064 c 0,6.3826 -5.1742,11.5568 -11.5568,11.5568 -4.1685,0 -7.8215,-2.207 -9.8544,-5.5163 -1.0797,-1.7577 -1.7024,-3.8264 -1.7024,-6.0406 0,-2.2141 0.6227,-4.2828 1.7024,-6.0406 2.0329,-3.3092 5.6859,-5.5161 9.8544,-5.5161 6.3826,0 11.5568,5.1741 11.5568,11.5568 z m 21.6738,104.1606 v -46.0294 m -14.542,46.5281 v -46.2419 m 18.9818,55.1768 c 0,-6.3827 -5.1742,-11.5568 -11.5568,-11.5568 -6.3827,0 -11.5568,5.1741 -11.5568,11.5568 0,6.3826 5.1741,11.5568 11.5568,11.5568 6.3826,0 11.5568,-5.1742 11.5568,-11.5568 z m -4.4398,-104.1606 v 45.9401 m -14.542,-46.4388 v 46.0715 m 18.9818,-55.0064 c 0,6.3826 -5.1742,11.5568 -11.5568,11.5568 -6.3827,0 -11.5568,-5.1742 -11.5568,-11.5568 0,-6.3827 5.1741,-11.5568 11.5568,-11.5568 6.3826,0 11.5568,5.1741 11.5568,11.5568 z m 21.6738,104.1606 v -46.0294 m -14.542,46.5281 v -46.2419 m 18.9818,55.1768 c 0,-6.3827 -5.1742,-11.5568 -11.5568,-11.5568 -6.3827,0 -11.5568,5.1741 -11.5568,11.5568 0,6.3826 5.1741,11.5568 11.5568,11.5568 6.3826,0 11.5568,-5.1742 11.5568,-11.5568 z m -4.4398,-104.1606 v 45.9401 m -14.542,-46.4388 v 46.0715 m 18.9818,-55.0064 c 0,6.3826 -5.1742,11.5568 -11.5568,11.5568 -6.3827,0 -11.5568,-5.1742 -11.5568,-11.5568 0,-6.3827 5.1741,-11.5568 11.5568,-11.5568 6.3826,0 11.5568,5.1741 11.5568,11.5568 z m 21.6738,104.1607 v -46.0294 m -14.542,46.528 v -46.2419 m 18.9818,55.1769 c 0,-6.3827 -5.1742,-11.5568 -11.5568,-11.5568 -0.1051,0 -0.2099,0 -0.3144,0 -6.2373,0.1666 -11.2424,5.2751 -11.2424,11.5526 0,6.2775 5.0051,11.3861 11.2424,11.5527 0.1045,0 0.2093,0 0.3144,0 6.3826,0 11.5568,-5.1742 11.5568,-11.5568 z m -4.4398,-104.1608 v 45.9401 m -14.542,-46.4387 v 46.0715 m 18.9818,-55.0065 c 0,6.3826 -5.1742,11.5568 -11.5568,11.5568 -0.1051,0 -0.2099,-0 -0.3144,-0 -6.2373,-0.1666 -11.2424,-5.2752 -11.2424,-11.5526 0,-6.2776 5.0051,-11.3861 11.2424,-11.5527 0.1045,-0 0.2093,-0 0.3144,-0 6.3826,0 11.5568,5.1741 11.5568,11.5568 z m -1239.4073,105.3721 v -46.0294 m -14.542,46.5281 v -46.2419 m 18.9818,55.1768 c 0,-5.6749 -4.0904,-10.3945 -9.4837,-11.3713 0,0 0,0 0,0 -0.6726,-0.1218 -1.3654,-0.1855 -2.0731,-0.1855 -3.1005,0 -5.9159,1.221 -7.9915,3.2084 l 0,0 c -1.1265,1.0786 -2.0351,2.383 -2.6531,3.8404 l 0,0 c -0.2966,0.6995 -0.5262,1.4343 -0.6809,2.1962 l 0,0 c 0,0 0,0 0,0 -0.076,0.3743 -0.1339,0.7552 -0.1728,1.1417 0,0 0,0 0,0 -0.019,0.1916 -0.034,0.3846 -0.044,0.5789 0,0 0,0 0,0 -0.01,0.1958 -0.011,0.393 -0.011,0.5912 0,0.1983 0,0.3955 0.011,0.5913 0,0 0,0 0,0 0.01,0.1943 0.024,0.3873 0.044,0.5789 0,0 0,0 0,0 0.039,0.3865 0.097,0.7673 0.1728,1.1416 0,0 0,0 0,0 l 0,0 c 0.1547,0.762 0.3843,1.4968 0.6809,2.1962 l 0,0 c 0.618,1.4575 1.5266,2.7619 2.6531,3.8405 l 0,0 c 2.0756,1.9874 4.891,3.2083 7.9915,3.2083 0.7077,0 1.4005,-0.064 2.0731,-0.1854 0,0 0,0 0,0 5.3933,-0.9768 9.4837,-5.6964 9.4837,-11.3714 z m -4.4398,-104.1606 v 45.94 m -14.542,-46.4387 v 46.0715 m 18.9818,-55.0064 c 0,5.6749 -4.0904,10.3945 -9.4837,11.3713 0,0 0,0 0,0 -0.6726,0.1218 -1.3654,0.1855 -2.0731,0.1855 -3.1005,0 -5.9159,-1.221 -7.9915,-3.2084 l 0,0 c -1.1265,-1.0786 -2.0351,-2.383 -2.6531,-3.8405 l 0,0 c -0.2966,-0.6994 -0.5262,-1.4342 -0.6809,-2.1962 l 0,0 c 0,0 0,0 0,0 -0.076,-0.3743 -0.1339,-0.7551 -0.1728,-1.1416 0,0 0,0 0,0 -0.019,-0.1916 -0.034,-0.3846 -0.044,-0.5789 0,0 0,0 0,0 -0.01,-0.1958 -0.011,-0.393 -0.011,-0.5912 0,-0.1983 0,-0.3955 0.011,-0.5913 0,0 0,0 0,0 0.01,-0.1943 0.024,-0.3873 0.044,-0.5789 0,0 0,0 0,0 0.039,-0.3865 0.097,-0.7674 0.1728,-1.1417 0,0 0,0 0,0 l 0,0 c 0.1547,-0.7619 0.3843,-1.4967 0.6809,-2.1962 l 0,0 c 0.618,-1.4574 1.5266,-2.7618 2.6531,-3.8404 l 0,0 c 2.0756,-1.9874 4.891,-3.2083 7.9915,-3.2083 0.7077,0 1.4005,0.064 2.0731,0.1854 0,0 0,0 0,0 5.3933,0.9768 9.4837,5.6964 9.4837,11.3714 z m 21.6738,104.1606 v -46.0294 m -14.542,46.5281 v -46.2419 m 18.9818,55.1768 c 0,-6.3827 -5.1742,-11.5568 -11.5568,-11.5568 -6.3827,0 -11.5568,5.1741 -11.5568,11.5568 0,6.3826 5.1741,11.5568 11.5568,11.5568 6.3826,0 11.5568,-5.1742 11.5568,-11.5568 z m -4.4398,-104.1607 v 45.9401 m -14.542,-46.4387 v 46.0714 m 18.9818,-55.0064 c 0,6.3826 -5.1742,11.5568 -11.5568,11.5568 -6.3827,1e-4 -11.5568,-5.1741 -11.5568,-11.5567 0,-6.3827 5.1741,-11.5568 11.5568,-11.5569 6.3826,0 11.5568,5.1741 11.5568,11.5568 z m 21.6738,104.1607 v -46.0294 m -14.542,46.5281 v -46.2419 m 18.9818,55.1768 c 0,-6.3827 -5.1742,-11.5568 -11.5568,-11.5568 -6.3827,0 -11.5568,5.1741 -11.5568,11.5568 0,6.3826 5.1741,11.5568 11.5568,11.5568 6.3826,0 11.5568,-5.1742 11.5568,-11.5568 z m -4.4398,-104.1607 v 45.9401 m -14.542,-46.4388 v 46.0715 m 18.9818,-55.0064 c 0,6.3826 -5.1742,11.5568 -11.5568,11.5568 -6.3827,0 -11.5568,-5.1742 -11.5568,-11.5568 0,-6.3827 5.1741,-11.5568 11.5568,-11.5568 6.3826,0 11.5568,5.1741 11.5568,11.5568 z m 21.6738,104.1607 v -46.0294 m -14.542,46.5281 v -46.2419 m 18.9818,55.1768 c 0,-6.3827 -5.1742,-11.5568 -11.5568,-11.5568 -6.3827,0 -11.5568,5.1741 -11.5568,11.5568 0,6.3826 5.1741,11.5568 11.5568,11.5568 6.3826,0 11.5568,-5.1742 11.5568,-11.5568 z m -4.4398,-104.1607 v 45.9401 m -14.542,-46.4388 v 46.0715 m 18.9818,-55.0064 c 0,6.3826 -5.1742,11.5568 -11.5568,11.5568 -6.3827,0 -11.5568,-5.1742 -11.5568,-11.5568 0,-6.3827 5.1741,-11.5568 11.5568,-11.5568 6.3826,0 11.5568,5.1741 11.5568,11.5568 z m 21.6738,104.1607 v -46.0294 m -14.542,46.5281 v -46.2419 m 18.9818,55.1768 c 0,-6.3827 -5.1742,-11.5568 -11.5568,-11.5568 -6.3827,0 -11.5568,5.1741 -11.5568,11.5568 0,6.3826 5.1741,11.5568 11.5568,11.5568 6.3826,0 11.5568,-5.1742 11.5568,-11.5568 z m -4.4398,-104.1607 v 45.9401 m -14.542,-46.4388 v 46.0715 m 18.9818,-55.0064 c 0,6.3826 -5.1742,11.5568 -11.5568,11.5568 -6.3827,0 -11.5568,-5.1742 -11.5568,-11.5568 0,-6.3827 5.1741,-11.5568 11.5568,-11.5568 6.3826,0 11.5568,5.1741 11.5568,11.5568 z m 21.6738,104.1607 v -46.0294 m -14.542,46.5281 v -46.2419 m 18.9818,55.1768 c 0,-6.3826 -5.1742,-11.5568 -11.5568,-11.5568 -6.3827,0 -11.5568,5.1741 -11.5568,11.5568 0,6.3826 5.1741,11.5568 11.5568,11.5568 6.3826,0 11.5568,-5.1742 11.5568,-11.5568 z m -4.4398,-104.1607 v 45.9401 m -14.542,-46.4388 v 46.0715 m 18.9818,-55.0064 c 0,6.3826 -5.1742,11.5568 -11.5568,11.5568 -6.3827,0 -11.5568,-5.1742 -11.5568,-11.5568 0,-6.3827 5.1741,-11.5568 11.5568,-11.5568 6.3826,0 11.5568,5.1741 11.5568,11.5568 z m 21.6738,104.1607 v -46.0294 m -14.542,46.5281 v -46.2419 m 18.9818,55.1768 c 0,-6.3826 -5.1742,-11.5568 -11.5568,-11.5568 -4.0857,0 -7.6762,2.1202 -9.7314,5.3204 -1.1553,1.7991 -1.8254,3.9395 -1.8254,6.2364 0,2.297 0.6701,4.4374 1.8254,6.2365 2.0552,3.2002 5.6457,5.3203 9.7314,5.3203 6.3826,0 11.5568,-5.1742 11.5568,-11.5568 z m -4.4398,-104.1607 v 45.9401 m -14.542,-46.4388 v 46.0715 m 18.9818,-55.0064 c 0,6.3826 -5.1742,11.5568 -11.5568,11.5568 -4.0857,0 -7.6762,-2.1201 -9.7314,-5.3203 -1.1553,-1.7991 -1.8254,-3.9395 -1.8254,-6.2365 0,-2.2969 0.6701,-4.4373 1.8254,-6.2364 2.0552,-3.2002 5.6457,-5.3204 9.7314,-5.3204 6.3826,0 11.5568,5.1741 11.5568,11.5568 z m 21.6738,104.1607 v -46.0294 m -14.542,46.5281 v -46.2419 m 18.9818,55.1768 c 0,-6.3826 -5.1742,-11.5568 -11.5568,-11.5568 -6.3827,0 -11.5568,5.1741 -11.5568,11.5568 0,6.3827 5.1741,11.5568 11.5568,11.5568 6.3826,0 11.5568,-5.1741 11.5568,-11.5568 z m -4.4398,-104.1607 v 45.9401 m -14.542,-46.4388 v 46.0715 m 18.9818,-55.0064 c 0,6.3826 -5.1742,11.5568 -11.5568,11.5568 -6.3827,1e-4 -11.5568,-5.1741 -11.5568,-11.5567 0,-6.3827 5.1741,-11.5569 11.5568,-11.5569 6.3826,0 11.5568,5.1741 11.5568,11.5568 z m 21.6738,104.1607 v -46.0294 m -14.542,46.5281 v -46.2419 m 18.9818,55.1768 c 0,-6.3827 -5.1742,-11.5568 -11.5568,-11.5568 -6.3827,0 -11.5568,5.1741 -11.5568,11.5568 0,6.3827 5.1741,11.5568 11.5568,11.5568 6.3826,0 11.5568,-5.1741 11.5568,-11.5568 z m -4.4398,-104.1607 v 45.9401 m -14.542,-46.4388 v 46.0715 m 18.9818,-55.0064 c 0,6.3826 -5.1742,11.5568 -11.5568,11.5568 -6.3827,0 -11.5568,-5.1742 -11.5568,-11.5568 0,-6.3827 5.1741,-11.5568 11.5568,-11.5568 6.3826,0 11.5568,5.1741 11.5568,11.5568 z m 21.6738,104.1607 v -46.0294 m -14.542,46.5281 v -46.2419 m 18.9818,55.1769 c 0,-6.3828 -5.1742,-11.5569 -11.5568,-11.5569 -6.3827,0 -11.5568,5.1741 -11.5568,11.5568 0,6.3826 5.1741,11.5569 11.5568,11.5569 6.3826,0 11.5568,-5.1743 11.5568,-11.5568 z m -4.4398,-104.1608 v 45.9401 m -14.542,-46.4388 v 46.0715 m 18.9818,-55.0064 c 0,6.3826 -5.1742,11.5568 -11.5568,11.5568 -6.3827,0 -11.5568,-5.1742 -11.5568,-11.5568 0,-6.3827 5.1741,-11.5568 11.5568,-11.5568 6.3826,0 11.5568,5.1741 11.5568,11.5568 z m 21.6738,104.1607 v -46.0294 m -14.542,46.5282 v -46.242 m 18.9818,55.1768 c 0,-6.3827 -5.1742,-11.5568 -11.5568,-11.5568 -1.879,0 -3.6532,0.4485 -5.2215,1.2441 -3.7592,1.907 -6.3353,5.809 -6.3353,10.3128 0,4.5036 2.5761,8.4056 6.3353,10.3127 1.5683,0.7956 3.3425,1.244 5.2215,1.244 6.3826,0 11.5568,-5.1742 11.5568,-11.5568 z m -4.4398,-104.1607 v 45.9401 m -14.542,-46.4388 v 46.0715 m 18.9818,-55.0063 c 0,6.3825 -5.1742,11.5567 -11.5568,11.5567 -1.879,0 -3.6532,-0.4484 -5.2215,-1.244 -3.7592,-1.9071 -6.3353,-5.8091 -6.3353,-10.3128 0,-4.5037 2.5761,-8.4057 6.3353,-10.3127 1.5683,-0.7956 3.3425,-1.2441 5.2215,-1.2441 6.3826,0 11.5568,5.1742 11.5568,11.5569 z m 21.6738,104.1606 v -46.0294 m -14.542,46.5281 v -46.2419 m 18.9818,55.1769 c 0,-4.7565 -2.8734,-8.8417 -6.979,-10.6147 0,0 0,0 0,0 -1.4038,-0.6062 -2.9516,-0.9422 -4.5778,-0.9422 -6.3827,0 -11.5568,5.1741 -11.5568,11.5568 0,6.3826 5.1741,11.5568 11.5568,11.5568 1.6262,0 3.174,-0.3359 4.5778,-0.9421 0,0 0,0 0,0 4.1056,-1.773 6.979,-5.8583 6.979,-10.6146 z m -4.4398,-104.1608 v 45.9401 m -14.542,-46.4387 v 46.0714 m 18.9818,-55.0064 c 0,4.7564 -2.8734,8.8417 -6.979,10.6147 0,0 0,0 0,0 -1.4038,0.6062 -2.9516,0.9422 -4.5778,0.9422 -6.3827,0 -11.5568,-5.1742 -11.5568,-11.5568 0,-6.3827 5.1741,-11.5568 11.5568,-11.5568 1.6262,0 3.174,0.3359 4.5778,0.9421 0,0 0,0 0,0 4.1056,1.773 6.979,5.8582 6.979,10.6146 z"
       sodipodi:nodetypes="cccc" />
    <path
       style="fill:none;fill-opacity:0.332995;stroke:#000000;stroke-width:7.71895;stroke-linecap:square;stroke-miterlimit:4;stroke-dasharray:none;stop-color:#000000"
       d="m 4638.7282,-1771.5918 c 0,0 253.6266,-1.7132 253.6266,-1.7132 0,0 261.2869,1.5974 261.2869,1.5974"
       id="path1059"
       sodipodi:nodetypes="ccc"
       inkscape:original-d="m 4638.7282,-1771.5918 253.6266,-1.7132 261.2869,1.5974"
       inkscape:path-effect="#path-effect1061" />
    <path
       style="fill:none;fill-opacity:0.332995;stroke:#000000;stroke-width:7.71895;stroke-linecap:square;stroke-miterlimit:4;stroke-dasharray:none;stop-color:#000000"
       d="m 4638.7282,-1771.5918 c 0,0 0,123.4308 0,123.4308 0,0 0,0 0,0 0,0 -56.9168,32.8609 -56.9168,32.8609 0,0 115.068,30.8324 115.068,30.8324 0,0 -58.1512,33.5735 -58.1512,33.5735"
       id="path1182"
       inkscape:path-effect="#path-effect1184"
       inkscape:original-d="m 4638.7282,-1771.5918 v 123.4308 0 l -56.9168,32.8609 115.068,30.8324 -58.1512,33.5735"
       sodipodi:nodetypes="cccccc" />
    <path
       style="fill:none;fill-opacity:0.332995;stroke:#000000;stroke-width:7.71895;stroke-linecap:square;stroke-miterlimit:4;stroke-dasharray:none;stop-color:#000000"
       d="m 4638.7282,-1550.8942 -56.9168,32.8609 115.068,30.8324 -58.1512,33.5736"
       id="path1877" />
    <path
       style="fill:none;fill-opacity:0.332995;stroke:#000000;stroke-width:7.71895;stroke-linecap:square;stroke-miterlimit:4;stroke-dasharray:none;stop-color:#000000"
       d="m 4638.7282,-1453.6273 -56.9168,32.8609 115.068,30.8324 c -19.3842,11.1913 -39.2211,22.4753 -58.1512,33.5736 v 12.0126 111.7284"
       id="path2115"
       sodipodi:nodetypes="cccccc" />
    <path
       style="fill:none;fill-opacity:0.332995;stroke:#000000;stroke-width:7.71895;stroke-linecap:square;stroke-miterlimit:4;stroke-dasharray:none;stop-color:#000000"
       d="m 4587.5344,-1232.3325 h 51.1938"
       id="path2755" />
    <path
       style="fill:none;fill-opacity:0.332995;stroke:#000000;stroke-width:11.5784;stroke-linecap:square;stroke-miterlimit:4;stroke-dasharray:none;stop-color:#000000"
       d="m 4549.3184,-1207.6287 h 178.5497"
       id="path2837" />
    <g
       id="g3239"
       transform="matrix(0.73766374,0,0,-0.90844632,1230.5525,-3084.8357)"
       style="stroke-width:9.42929;stroke-miterlimit:4;stroke-dasharray:none">
      <path
         style="fill:none;fill-opacity:0.332995;stroke:#000000;stroke-width:9.42929;stroke-linecap:square;stroke-miterlimit:4;stroke-dasharray:none;stop-color:#000000"
         d="m 5318.2625,-2191.0464 v 409.3559 h 63.8994"
         id="path3235" />
      <path
         style="fill:none;fill-opacity:0.332995;stroke:#000000;stroke-width:9.42929;stroke-linecap:square;stroke-miterlimit:4;stroke-dasharray:none;stop-color:#000000"
         d="m 5254.3633,-1781.6905 h 63.8992"
         id="path3237" />
    </g>
    <path
       style="fill:none;fill-opacity:0.332995;stroke:#000000;stroke-width:7.71895;stroke-linecap:square;stroke-miterlimit:4;stroke-dasharray:none;stop-color:#000000"
       d="m 4638.7282,-1232.3325 h 51.1939"
       id="path3605" />
    <path
       style="fill:none;fill-opacity:0.332995;stroke:#000000;stroke-width:7.71895;stroke-linecap:square;stroke-miterlimit:4;stroke-dasharray:none;stop-color:#000000"
       d="m 5153.6417,-1093.9992 h -514.9135 v -112.3576"
       id="path4940" />
    <path
       style="fill:none;fill-opacity:0.332995;stroke:#000000;stroke-width:7.71895;stroke-linecap:square;stroke-miterlimit:4;stroke-dasharray:none;stop-color:#000000"
       d="m 4892.3547,-1772.7484 v -92.3168 h -720.3079"
       id="path6108" />
    <path
       style="fill:none;fill-opacity:0.332995;stroke:#000000;stroke-width:7.71895;stroke-linecap:square;stroke-miterlimit:4;stroke-dasharray:none;stop-color:#000000"
       d="m 4892.3547,-1088.2444 v 92.31685 h -720.3079"
       id="path7067" />
    <g
       id="g9289"
       transform="matrix(0.73766374,0,0,0.65551809,1230.5523,-335.55496)"
       style="stroke-width:11.1003;stroke-miterlimit:4;stroke-dasharray:none">
      <path
         style="fill:none;fill-opacity:0.332995;stroke:#000000;stroke-width:11.1003;stroke-linecap:square;stroke-miterlimit:4;stroke-dasharray:none;stop-color:#000000"
         d="m 5318.2625,-2191.0464 v 409.3559 h 63.8994"
         id="path9285" />
      <path
         style="fill:none;fill-opacity:0.332995;stroke:#000000;stroke-width:11.1003;stroke-linecap:square;stroke-miterlimit:4;stroke-dasharray:none;stop-color:#000000"
         d="m 5254.3633,-1781.6905 h 63.8992"
         id="path9287" />
    </g>
    <circle
       style="fill:#000000;fill-opacity:1;stroke:#000000;stroke-width:7.71895;stroke-linecap:square;stroke-miterlimit:4;stroke-dasharray:none;stop-color:#000000"
       id="path10204"
       cx="4172.0469"
       cy="-1865.0652"
       r="12.657311" />
    <circle
       style="fill:#000000;fill-opacity:1;stroke:#000000;stroke-width:7.71895;stroke-linecap:square;stroke-miterlimit:4;stroke-dasharray:none;stop-color:#000000"
       id="circle10486"
       cx="4172.0469"
       cy="-997.50696"
       r="12.657311" />
    <path
       style="fill:#000000;fill-opacity:1;stroke:#000000;stroke-width:3.85947;stroke-linecap:square;stroke-miterlimit:4.1;stroke-dasharray:15.4379, 30.8758;stroke-dashoffset:0;marker-start:url(#Arrow2Lstart);marker-end:url(#Arrow2Lend);stop-color:#000000"
       d="m 4170.9226,-1802.5285 v 740.0978"
       id="path10716" />
    <g
       transform="matrix(36.222456,0,0,36.222456,3698.6611,-764.26054)"
       ns12:version="1.6.0"
       ns12:texconverter="pdflatex"
       ns12:pdfconverter="inkscape"
       ns12:text="$I_m$\n$I_i$\n$I_C$\n$R_m$\n$C_m$\n$E_r$\n"
       ns12:preamble="/usr/share/inkscape/extensions/textext/default_packages.tex"
       ns12:scale="17.845248903943414"
       ns12:alignment="middle center"
       ns12:stroke-to-path="0"
       ns12:inkscapeversion="1.1.1"
       ns12:jacobian_sqrt="6.29541"
       id="g11890"
       style="stroke-width:0.173799">
      <defs
         id="id-c5d14439-4a9d-4d5a-8cd7-d7f345fc7501">
        <g
           id="id-5b38a59c-c71c-4edb-b11f-e5dd280bf0a8">
          <symbol
             overflow="visible"
             id="id-0e027ca5-7c83-40c1-a7a7-9ab5f71cdb6c">
            <path
               style="stroke:none;stroke-width:0"
               d=""
               id="id-0ddd45df-982d-4387-bab7-8d92a31689b6" />
          </symbol>
          <symbol
             overflow="visible"
             id="id-d5a81c79-a77c-45f8-a1a9-ce6087c4b581">
            <path
               style="stroke:none;stroke-width:0"
               d="M 3.734375,-6.046875 C 3.8125,-6.40625 3.84375,-6.5 4.640625,-6.5 c 0.234375,0 0.3125,0 0.3125,-0.1875 0,-0.125 -0.109375,-0.125 -0.140625,-0.125 -0.296875,0 -1.03125,0.03125 -1.328125,0.03125 -0.296875,0 -1.015625,-0.03125 -1.328125,-0.03125 -0.0625,0 -0.1875,0 -0.1875,0.203125 C 1.96875,-6.5 2.046875,-6.5 2.25,-6.5 c 0.40625,0 0.6875,0 0.6875,0.1875 0,0.046875 0,0.078125 -0.03125,0.15625 l -1.34375,5.375 c -0.09375,0.375 -0.109375,0.46875 -0.90625,0.46875 -0.234375,0 -0.3125,0 -0.3125,0.203125 C 0.34375,0 0.453125,0 0.484375,0 0.78125,0 1.5,-0.03125 1.796875,-0.03125 2.09375,-0.03125 2.828125,0 3.125,0 c 0.078125,0 0.203125,0 0.203125,-0.1875 0,-0.125 -0.078125,-0.125 -0.296875,-0.125 -0.1875,0 -0.234375,0 -0.421875,-0.015625 -0.21875,-0.015625 -0.25,-0.0625 -0.25,-0.171875 0,-0.078125 0.015625,-0.15625 0.03125,-0.234375 z m 0,0"
               id="id-1ba82efa-4d85-4622-b3b7-e806cacab2e2" />
          </symbol>
          <symbol
             overflow="visible"
             id="id-9666e8a2-70c3-460c-980b-64747f57dacb">
            <path
               style="stroke:none;stroke-width:0"
               d="m 3.734375,-6.125 c 0.0625,-0.234375 0.09375,-0.328125 0.28125,-0.359375 C 4.109375,-6.5 4.421875,-6.5 4.625,-6.5 c 0.703125,0 1.8125,0 1.8125,0.984375 0,0.34375 -0.15625,1.03125 -0.546875,1.421875 -0.265625,0.25 -0.78125,0.578125 -1.6875,0.578125 H 3.09375 Z m 1.4375,2.734375 c 1.015625,-0.21875 2.1875,-0.921875 2.1875,-1.921875 0,-0.859375 -0.890625,-1.5 -2.203125,-1.5 H 2.328125 c -0.203125,0 -0.296875,0 -0.296875,0.203125 C 2.03125,-6.5 2.125,-6.5 2.3125,-6.5 c 0.015625,0 0.203125,0 0.375,0.015625 0.1875,0.03125 0.265625,0.03125 0.265625,0.171875 0,0.03125 0,0.0625 -0.03125,0.1875 l -1.34375,5.34375 C 1.484375,-0.390625 1.46875,-0.3125 0.671875,-0.3125 0.5,-0.3125 0.40625,-0.3125 0.40625,-0.109375 0.40625,0 0.53125,0 0.546875,0 c 0.28125,0 0.984375,-0.03125 1.25,-0.03125 0.28125,0 1,0.03125 1.28125,0.03125 0.078125,0 0.1875,0 0.1875,-0.203125 0,-0.109375 -0.078125,-0.109375 -0.28125,-0.109375 -0.359375,0 -0.640625,0 -0.640625,-0.171875 0,-0.0625 0.015625,-0.109375 0.03125,-0.171875 l 0.65625,-2.640625 h 1.1875 c 0.90625,0 1.078125,0.5625 1.078125,0.90625 0,0.140625 -0.078125,0.453125 -0.140625,0.6875 C 5.09375,-1.421875 5,-1.0625 5,-0.859375 5,0.21875 6.203125,0.21875 6.328125,0.21875 c 0.84375,0 1.203125,-1 1.203125,-1.140625 0,-0.125 -0.109375,-0.125 -0.125,-0.125 -0.09375,0 -0.109375,0.0625 -0.125,0.140625 C 7.03125,-0.171875 6.59375,0 6.375,0 6.046875,0 5.96875,-0.21875 5.96875,-0.609375 c 0,-0.3125 0.0625,-0.8125 0.109375,-1.140625 0.015625,-0.140625 0.03125,-0.328125 0.03125,-0.46875 0,-0.765625 -0.671875,-1.078125 -0.9375,-1.171875 z m 0,0"
               id="id-cc008b65-06ee-4ed9-9c2a-f6aa8ad531fe" />
          </symbol>
          <symbol
             overflow="visible"
             id="id-641229ee-2115-4af0-9991-3f876cf7222b">
            <path
               style="stroke:none;stroke-width:0"
               d="m 7.578125,-6.921875 c 0,-0.03125 -0.015625,-0.109375 -0.109375,-0.109375 -0.03125,0 -0.046875,0.015625 -0.15625,0.125 L 6.625,-6.140625 C 6.53125,-6.28125 6.078125,-7.03125 4.96875,-7.03125 2.734375,-7.03125 0.5,-4.828125 0.5,-2.515625 0.5,-0.875 1.671875,0.21875 3.203125,0.21875 c 0.859375,0 1.625,-0.390625 2.15625,-0.859375 0.921875,-0.8125 1.09375,-1.71875 1.09375,-1.75 C 6.453125,-2.5 6.34375,-2.5 6.328125,-2.5 c -0.0625,0 -0.109375,0.03125 -0.125,0.109375 -0.09375,0.28125 -0.328125,1 -1.015625,1.578125 -0.6875,0.546875 -1.3125,0.71875 -1.828125,0.71875 -0.890625,0 -1.953125,-0.515625 -1.953125,-2.0625 0,-0.578125 0.203125,-2.1875 1.203125,-3.359375 0.609375,-0.703125 1.546875,-1.203125 2.4375,-1.203125 1.015625,0 1.609375,0.765625 1.609375,1.921875 0,0.40625 -0.03125,0.40625 -0.03125,0.515625 0,0.09375 0.109375,0.09375 0.140625,0.09375 0.125,0 0.125,-0.015625 0.1875,-0.203125 z m 0,0"
               id="id-e25e4061-697a-49bf-8f5f-447d5708b519" />
          </symbol>
          <symbol
             overflow="visible"
             id="id-7e5c1d5e-8b8b-4732-abfd-64bd223e238c">
            <path
               style="stroke:none;stroke-width:0"
               d="M 7.0625,-2.328125 C 7.078125,-2.375 7.109375,-2.4375 7.109375,-2.46875 c 0,0 0,-0.109375 -0.125,-0.109375 -0.09375,0 -0.109375,0.0625 -0.125,0.125 C 6.203125,-0.984375 5.84375,-0.3125 4.140625,-0.3125 H 2.6875 c -0.140625,0 -0.171875,0 -0.21875,0 -0.109375,-0.015625 -0.140625,-0.03125 -0.140625,-0.109375 0,-0.03125 0,-0.046875 0.046875,-0.21875 L 3.0625,-3.375 h 0.984375 c 0.84375,0 0.84375,0.21875 0.84375,0.46875 0,0.0625 0,0.1875 -0.0625,0.484375 C 4.8125,-2.375 4.796875,-2.34375 4.796875,-2.3125 c 0,0.046875 0.03125,0.109375 0.125,0.109375 C 5,-2.203125 5.03125,-2.25 5.078125,-2.40625 l 0.5625,-2.328125 c 0,-0.0625 -0.046875,-0.109375 -0.125,-0.109375 -0.078125,0 -0.109375,0.0625 -0.125,0.171875 -0.21875,0.765625 -0.390625,1 -1.3125,1 h -0.9375 l 0.59375,-2.40625 C 3.828125,-6.4375 3.84375,-6.46875 4.28125,-6.46875 H 5.6875 c 1.203125,0 1.515625,0.28125 1.515625,1.109375 0,0.234375 0,0.25 -0.046875,0.53125 0,0.046875 -0.015625,0.125 -0.015625,0.171875 0,0.046875 0.03125,0.125 0.125,0.125 0.109375,0 0.125,-0.0625 0.140625,-0.25 L 7.609375,-6.515625 C 7.640625,-6.78125 7.59375,-6.78125 7.34375,-6.78125 H 2.296875 c -0.1875,0 -0.296875,0 -0.296875,0.203125 0,0.109375 0.09375,0.109375 0.28125,0.109375 0.375,0 0.65625,0 0.65625,0.171875 0,0.046875 0,0.0625 -0.0625,0.25 L 1.5625,-0.78125 c -0.09375,0.390625 -0.109375,0.46875 -0.90625,0.46875 -0.171875,0 -0.28125,0 -0.28125,0.1875 C 0.375,0 0.46875,0 0.65625,0 h 5.171875 c 0.234375,0 0.25,-0.015625 0.3125,-0.171875 z m 0,0"
               id="id-0b8aa983-b449-45b7-b165-dec88dab69c1" />
          </symbol>
          <symbol
             overflow="visible"
             id="id-988ec7cd-622e-48a6-808c-3ecfeaa803a9">
            <path
               style="stroke:none;stroke-width:0"
               d=""
               id="id-6e28efb0-f2a3-40f2-8193-181a12714185" />
          </symbol>
          <symbol
             overflow="visible"
             id="id-c88867e0-b54c-4179-953d-fc6d0538c724">
            <path
               style="stroke:none;stroke-width:0"
               d="m 3.03125,-0.5625 c -0.046875,0.140625 -0.109375,0.375 -0.109375,0.40625 0,0.15625 0.125,0.21875 0.234375,0.21875 0.140625,0 0.25,-0.078125 0.28125,-0.140625 0.03125,-0.0625 0.09375,-0.296875 0.125,-0.4375 0.03125,-0.125 0.109375,-0.453125 0.15625,-0.625 0.03125,-0.15625 0.078125,-0.3125 0.109375,-0.46875 0.078125,-0.296875 0.078125,-0.3125 0.21875,-0.53125 C 4.265625,-2.484375 4.625,-2.875 5.15625,-2.875 c 0.390625,0 0.421875,0.3125 0.421875,0.484375 0,0.421875 -0.296875,1.1875 -0.421875,1.484375 -0.0625,0.203125 -0.09375,0.265625 -0.09375,0.375 0,0.375 0.296875,0.59375 0.65625,0.59375 0.703125,0 1,-0.953125 1,-1.0625 0,-0.09375 -0.078125,-0.09375 -0.109375,-0.09375 -0.09375,0 -0.09375,0.046875 -0.125,0.125 C 6.328125,-0.40625 6.015625,-0.125 5.75,-0.125 c -0.15625,0 -0.1875,-0.09375 -0.1875,-0.25 0,-0.15625 0.046875,-0.25 0.171875,-0.5625 0.078125,-0.21875 0.359375,-0.953125 0.359375,-1.34375 0,-0.109375 0,-0.40625 -0.25,-0.609375 -0.125,-0.078125 -0.328125,-0.1875 -0.65625,-0.1875 -0.625,0 -1,0.421875 -1.234375,0.703125 C 3.90625,-2.96875 3.40625,-3.078125 3.046875,-3.078125 2.46875,-3.078125 2.078125,-2.71875 1.875,-2.4375 1.828125,-2.921875 1.421875,-3.078125 1.125,-3.078125 c -0.296875,0 -0.453125,0.21875 -0.546875,0.375 -0.15625,0.265625 -0.25,0.65625 -0.25,0.703125 0,0.078125 0.09375,0.078125 0.125,0.078125 0.09375,0 0.09375,-0.015625 0.140625,-0.203125 0.109375,-0.40625 0.25,-0.75 0.515625,-0.75 0.1875,0 0.234375,0.15625 0.234375,0.34375 0,0.125 -0.0625,0.390625 -0.125,0.578125 -0.046875,0.1875 -0.109375,0.46875 -0.140625,0.625 L 0.84375,-0.4375 c -0.015625,0.09375 -0.0625,0.265625 -0.0625,0.28125 0,0.15625 0.125,0.21875 0.234375,0.21875 0.125,0 0.234375,-0.078125 0.28125,-0.140625 0.03125,-0.0625 0.078125,-0.296875 0.125,-0.4375 0.03125,-0.125 0.109375,-0.453125 0.140625,-0.625 0.046875,-0.15625 0.09375,-0.3125 0.125,-0.46875 0.078125,-0.28125 0.09375,-0.34375 0.296875,-0.625 C 2.171875,-2.515625 2.5,-2.875 3.03125,-2.875 c 0.390625,0 0.40625,0.359375 0.40625,0.484375 0,0.171875 -0.015625,0.265625 -0.125,0.65625 z m 0,0"
               id="id-c98f2dc3-8153-458b-bdf9-db4d8111f58a" />
          </symbol>
          <symbol
             overflow="visible"
             id="id-84b2e578-172d-43a5-a49d-bd3944966f02">
            <path
               style="stroke:none;stroke-width:0"
               d="m 2.265625,-4.359375 c 0,-0.109375 -0.09375,-0.265625 -0.28125,-0.265625 -0.1875,0 -0.390625,0.1875 -0.390625,0.390625 0,0.109375 0.078125,0.265625 0.28125,0.265625 0.1875,0 0.390625,-0.203125 0.390625,-0.390625 z M 0.84375,-0.8125 c -0.03125,0.09375 -0.0625,0.171875 -0.0625,0.296875 0,0.328125 0.265625,0.578125 0.65625,0.578125 0.6875,0 1,-0.953125 1,-1.0625 0,-0.09375 -0.09375,-0.09375 -0.109375,-0.09375 -0.09375,0 -0.109375,0.046875 -0.140625,0.125 -0.15625,0.5625 -0.453125,0.84375 -0.734375,0.84375 -0.140625,0 -0.171875,-0.09375 -0.171875,-0.25 0,-0.15625 0.046875,-0.28125 0.109375,-0.4375 C 1.46875,-1 1.546875,-1.1875 1.609375,-1.375 1.671875,-1.546875 1.9375,-2.171875 1.953125,-2.265625 1.984375,-2.328125 2,-2.40625 2,-2.484375 2,-2.8125 1.71875,-3.078125 1.34375,-3.078125 0.640625,-3.078125 0.328125,-2.125 0.328125,-2 c 0,0.078125 0.09375,0.078125 0.125,0.078125 0.09375,0 0.09375,-0.03125 0.125,-0.109375 C 0.75,-2.625 1.0625,-2.875 1.3125,-2.875 c 0.109375,0 0.171875,0.046875 0.171875,0.234375 0,0.171875 -0.03125,0.265625 -0.203125,0.703125 z m 0,0"
               id="id-169ad1e9-f378-46d1-9cbf-d0ddb6f5bbe5" />
          </symbol>
          <symbol
             overflow="visible"
             id="id-3d0b16a5-63bd-40d1-b136-be2aa48a3a7f">
            <path
               style="stroke:none;stroke-width:0"
               d="m 5.875,-4.8125 c 0,-0.03125 -0.015625,-0.09375 -0.09375,-0.09375 -0.046875,0 -0.0625,0.015625 -0.125,0.09375 l -0.5,0.53125 c -0.0625,-0.078125 -0.453125,-0.625 -1.3125,-0.625 -1.703125,0 -3.359375,1.5 -3.359375,3.078125 0,1.140625 0.890625,1.96875 2.140625,1.96875 0.375,0 1.046875,-0.078125 1.765625,-0.6875 0.546875,-0.46875 0.703125,-1.0625 0.703125,-1.125 0,-0.09375 -0.078125,-0.09375 -0.125,-0.09375 -0.078125,0 -0.09375,0.03125 -0.125,0.109375 -0.28125,0.953125 -1.25,1.546875 -2.09375,1.546875 -0.75,0 -1.5625,-0.40625 -1.5625,-1.5 0,-0.203125 0.046875,-1.296875 0.84375,-2.1875 0.484375,-0.53125 1.21875,-0.84375 1.875,-0.84375 0.8125,0 1.28125,0.578125 1.28125,1.359375 0,0.1875 -0.015625,0.25 -0.015625,0.28125 0,0.09375 0.09375,0.09375 0.125,0.09375 0.109375,0 0.109375,-0.015625 0.140625,-0.15625 z m 0,0"
               id="id-aa01c56d-591e-48a1-85d4-d28e8d69a81c" />
          </symbol>
          <symbol
             overflow="visible"
             id="id-ba7decea-56b5-4073-b953-b63c1679739c">
            <path
               style="stroke:none;stroke-width:0"
               d="m 1.640625,-1.40625 c 0,-0.046875 0.171875,-0.671875 0.171875,-0.703125 0.015625,-0.0625 0.21875,-0.40625 0.453125,-0.578125 0.0625,-0.046875 0.25,-0.1875 0.5625,-0.1875 0.0625,0 0.234375,0 0.375,0.09375 -0.21875,0.0625 -0.296875,0.265625 -0.296875,0.390625 0,0.140625 0.109375,0.25 0.265625,0.25 0.171875,0 0.390625,-0.125 0.390625,-0.421875 0,-0.359375 -0.375,-0.515625 -0.734375,-0.515625 -0.359375,0 -0.671875,0.15625 -0.984375,0.5 -0.125,-0.421875 -0.546875,-0.5 -0.71875,-0.5 -0.25,0 -0.421875,0.171875 -0.546875,0.359375 -0.15625,0.265625 -0.25,0.671875 -0.25,0.71875 0,0.078125 0.09375,0.078125 0.125,0.078125 0.09375,0 0.09375,-0.015625 0.140625,-0.203125 0.109375,-0.421875 0.25,-0.75 0.515625,-0.75 0.1875,0 0.234375,0.15625 0.234375,0.34375 0,0.125 -0.0625,0.390625 -0.125,0.578125 -0.046875,0.1875 -0.109375,0.46875 -0.140625,0.625 L 0.84375,-0.4375 C 0.828125,-0.34375 0.78125,-0.171875 0.78125,-0.15625 0.78125,0 0.90625,0.0625 1.015625,0.0625 1.125,0.0625 1.265625,0 1.3125,-0.125 1.328125,-0.171875 1.40625,-0.484375 1.453125,-0.65625 Z m 0,0"
               id="id-566c9e50-9b1f-4fcf-92aa-00f9707c9690" />
          </symbol>
        </g>
      </defs>
      <g
         id="id-425c3781-df96-4a14-8c3c-2660a7a43061"
         transform="translate(-149.056,-127.734)"
         style="stroke-width:0.173799">
        <g
           style="fill:#000000;fill-opacity:1;stroke-width:0.173799"
           id="id-e73990f3-178c-4033-b8fd-e80e14a0fa7f"
           transform="matrix(0.19297367,0,0,0.19297367,141.58115,70.398364)">
          <g
             transform="translate(148.712,134.765)"
             id="g11842"
             style="stroke-width:0.173799">
            <path
               style="stroke:none;stroke-width:0"
               d="M 3.734375,-6.046875 C 3.8125,-6.40625 3.84375,-6.5 4.640625,-6.5 c 0.234375,0 0.3125,0 0.3125,-0.1875 0,-0.125 -0.109375,-0.125 -0.140625,-0.125 -0.296875,0 -1.03125,0.03125 -1.328125,0.03125 -0.296875,0 -1.015625,-0.03125 -1.328125,-0.03125 -0.0625,0 -0.1875,0 -0.1875,0.203125 C 1.96875,-6.5 2.046875,-6.5 2.25,-6.5 c 0.40625,0 0.6875,0 0.6875,0.1875 0,0.046875 0,0.078125 -0.03125,0.15625 l -1.34375,5.375 c -0.09375,0.375 -0.109375,0.46875 -0.90625,0.46875 -0.234375,0 -0.3125,0 -0.3125,0.203125 C 0.34375,0 0.453125,0 0.484375,0 0.78125,0 1.5,-0.03125 1.796875,-0.03125 2.09375,-0.03125 2.828125,0 3.125,0 c 0.078125,0 0.203125,0 0.203125,-0.1875 0,-0.125 -0.078125,-0.125 -0.296875,-0.125 -0.1875,0 -0.234375,0 -0.421875,-0.015625 -0.21875,-0.015625 -0.25,-0.0625 -0.25,-0.171875 0,-0.078125 0.015625,-0.15625 0.03125,-0.234375 z m 0,0"
               id="id-ce6e1af3-43de-49cf-b11d-6ba7ab3f552c" />
          </g>
        </g>
        <g
           style="fill:#000000;fill-opacity:1;stroke-width:0.173799"
           id="id-ef19b953-ae04-48f7-8ef0-e6d1c0adaa4f"
           transform="matrix(0.19297367,0,0,0.19297367,141.58115,70.398364)">
          <g
             transform="translate(153.092,136.259)"
             id="g11846"
             style="stroke-width:0.173799">
            <path
               style="stroke:none;stroke-width:0"
               d="m 3.03125,-0.5625 c -0.046875,0.140625 -0.109375,0.375 -0.109375,0.40625 0,0.15625 0.125,0.21875 0.234375,0.21875 0.140625,0 0.25,-0.078125 0.28125,-0.140625 0.03125,-0.0625 0.09375,-0.296875 0.125,-0.4375 0.03125,-0.125 0.109375,-0.453125 0.15625,-0.625 0.03125,-0.15625 0.078125,-0.3125 0.109375,-0.46875 0.078125,-0.296875 0.078125,-0.3125 0.21875,-0.53125 C 4.265625,-2.484375 4.625,-2.875 5.15625,-2.875 c 0.390625,0 0.421875,0.3125 0.421875,0.484375 0,0.421875 -0.296875,1.1875 -0.421875,1.484375 -0.0625,0.203125 -0.09375,0.265625 -0.09375,0.375 0,0.375 0.296875,0.59375 0.65625,0.59375 0.703125,0 1,-0.953125 1,-1.0625 0,-0.09375 -0.078125,-0.09375 -0.109375,-0.09375 -0.09375,0 -0.09375,0.046875 -0.125,0.125 C 6.328125,-0.40625 6.015625,-0.125 5.75,-0.125 c -0.15625,0 -0.1875,-0.09375 -0.1875,-0.25 0,-0.15625 0.046875,-0.25 0.171875,-0.5625 0.078125,-0.21875 0.359375,-0.953125 0.359375,-1.34375 0,-0.109375 0,-0.40625 -0.25,-0.609375 -0.125,-0.078125 -0.328125,-0.1875 -0.65625,-0.1875 -0.625,0 -1,0.421875 -1.234375,0.703125 C 3.90625,-2.96875 3.40625,-3.078125 3.046875,-3.078125 2.46875,-3.078125 2.078125,-2.71875 1.875,-2.4375 1.828125,-2.921875 1.421875,-3.078125 1.125,-3.078125 c -0.296875,0 -0.453125,0.21875 -0.546875,0.375 -0.15625,0.265625 -0.25,0.65625 -0.25,0.703125 0,0.078125 0.09375,0.078125 0.125,0.078125 0.09375,0 0.09375,-0.015625 0.140625,-0.203125 0.109375,-0.40625 0.25,-0.75 0.515625,-0.75 0.1875,0 0.234375,0.15625 0.234375,0.34375 0,0.125 -0.0625,0.390625 -0.125,0.578125 -0.046875,0.1875 -0.109375,0.46875 -0.140625,0.625 L 0.84375,-0.4375 c -0.015625,0.09375 -0.0625,0.265625 -0.0625,0.28125 0,0.15625 0.125,0.21875 0.234375,0.21875 0.125,0 0.234375,-0.078125 0.28125,-0.140625 0.03125,-0.0625 0.078125,-0.296875 0.125,-0.4375 0.03125,-0.125 0.109375,-0.453125 0.140625,-0.625 0.046875,-0.15625 0.09375,-0.3125 0.125,-0.46875 0.078125,-0.28125 0.09375,-0.34375 0.296875,-0.625 C 2.171875,-2.515625 2.5,-2.875 3.03125,-2.875 c 0.390625,0 0.40625,0.359375 0.40625,0.484375 0,0.171875 -0.015625,0.265625 -0.125,0.65625 z m 0,0"
               id="id-8d29322a-48dc-46c7-96ce-8d86d36da4e2" />
          </g>
        </g>
        <g
           style="fill:#000000;fill-opacity:1;stroke-width:0.173799"
           id="id-9c2fbb31-ed22-4991-80ca-4f0c5c6f61d7"
           transform="matrix(0.19297367,0,0,0.19297367,140.72968,75.115935)">
          <g
             transform="translate(163.98,134.765)"
             id="g11850"
             style="stroke-width:0.173799">
            <path
               style="stroke:none;stroke-width:0"
               d="M 3.734375,-6.046875 C 3.8125,-6.40625 3.84375,-6.5 4.640625,-6.5 c 0.234375,0 0.3125,0 0.3125,-0.1875 0,-0.125 -0.109375,-0.125 -0.140625,-0.125 -0.296875,0 -1.03125,0.03125 -1.328125,0.03125 -0.296875,0 -1.015625,-0.03125 -1.328125,-0.03125 -0.0625,0 -0.1875,0 -0.1875,0.203125 C 1.96875,-6.5 2.046875,-6.5 2.25,-6.5 c 0.40625,0 0.6875,0 0.6875,0.1875 0,0.046875 0,0.078125 -0.03125,0.15625 l -1.34375,5.375 c -0.09375,0.375 -0.109375,0.46875 -0.90625,0.46875 -0.234375,0 -0.3125,0 -0.3125,0.203125 C 0.34375,0 0.453125,0 0.484375,0 0.78125,0 1.5,-0.03125 1.796875,-0.03125 2.09375,-0.03125 2.828125,0 3.125,0 c 0.078125,0 0.203125,0 0.203125,-0.1875 0,-0.125 -0.078125,-0.125 -0.296875,-0.125 -0.1875,0 -0.234375,0 -0.421875,-0.015625 -0.21875,-0.015625 -0.25,-0.0625 -0.25,-0.171875 0,-0.078125 0.015625,-0.15625 0.03125,-0.234375 z m 0,0"
               id="id-d968e5c5-d49f-4a85-8d54-a948f1a60f0a" />
          </g>
        </g>
        <g
           style="fill:#000000;fill-opacity:1;stroke-width:0.173799"
           id="id-7e44f2b3-1e4a-4ec4-8b63-abc87a4f6d7f"
           transform="matrix(0.19297367,0,0,0.19297367,140.72968,75.115935)">
          <g
             transform="translate(168.36,136.259)"
             id="g11854"
             style="stroke-width:0.173799">
            <path
               style="stroke:none;stroke-width:0"
               d="m 2.265625,-4.359375 c 0,-0.109375 -0.09375,-0.265625 -0.28125,-0.265625 -0.1875,0 -0.390625,0.1875 -0.390625,0.390625 0,0.109375 0.078125,0.265625 0.28125,0.265625 0.1875,0 0.390625,-0.203125 0.390625,-0.390625 z M 0.84375,-0.8125 c -0.03125,0.09375 -0.0625,0.171875 -0.0625,0.296875 0,0.328125 0.265625,0.578125 0.65625,0.578125 0.6875,0 1,-0.953125 1,-1.0625 0,-0.09375 -0.09375,-0.09375 -0.109375,-0.09375 -0.09375,0 -0.109375,0.046875 -0.140625,0.125 -0.15625,0.5625 -0.453125,0.84375 -0.734375,0.84375 -0.140625,0 -0.171875,-0.09375 -0.171875,-0.25 0,-0.15625 0.046875,-0.28125 0.109375,-0.4375 C 1.46875,-1 1.546875,-1.1875 1.609375,-1.375 1.671875,-1.546875 1.9375,-2.171875 1.953125,-2.265625 1.984375,-2.328125 2,-2.40625 2,-2.484375 2,-2.8125 1.71875,-3.078125 1.34375,-3.078125 0.640625,-3.078125 0.328125,-2.125 0.328125,-2 c 0,0.078125 0.09375,0.078125 0.125,0.078125 0.09375,0 0.09375,-0.03125 0.125,-0.109375 C 0.75,-2.625 1.0625,-2.875 1.3125,-2.875 c 0.109375,0 0.171875,0.046875 0.171875,0.234375 0,0.171875 -0.03125,0.265625 -0.203125,0.703125 z m 0,0"
               id="id-538dceba-4772-46be-9a2e-d79364103125" />
          </g>
        </g>
        <g
           style="fill:#000000;fill-opacity:1;stroke-width:0.173799"
           id="id-4329cae2-a845-497a-91a8-cb5ed16eb66d"
           transform="matrix(0.19297367,0,0,0.19297367,156.64398,75.165821)">
          <g
             transform="translate(174.997,134.765)"
             id="g11858"
             style="stroke-width:0.173799">
            <path
               style="stroke:none;stroke-width:0"
               d="M 3.734375,-6.046875 C 3.8125,-6.40625 3.84375,-6.5 4.640625,-6.5 c 0.234375,0 0.3125,0 0.3125,-0.1875 0,-0.125 -0.109375,-0.125 -0.140625,-0.125 -0.296875,0 -1.03125,0.03125 -1.328125,0.03125 -0.296875,0 -1.015625,-0.03125 -1.328125,-0.03125 -0.0625,0 -0.1875,0 -0.1875,0.203125 C 1.96875,-6.5 2.046875,-6.5 2.25,-6.5 c 0.40625,0 0.6875,0 0.6875,0.1875 0,0.046875 0,0.078125 -0.03125,0.15625 l -1.34375,5.375 c -0.09375,0.375 -0.109375,0.46875 -0.90625,0.46875 -0.234375,0 -0.3125,0 -0.3125,0.203125 C 0.34375,0 0.453125,0 0.484375,0 0.78125,0 1.5,-0.03125 1.796875,-0.03125 2.09375,-0.03125 2.828125,0 3.125,0 c 0.078125,0 0.203125,0 0.203125,-0.1875 0,-0.125 -0.078125,-0.125 -0.296875,-0.125 -0.1875,0 -0.234375,0 -0.421875,-0.015625 -0.21875,-0.015625 -0.25,-0.0625 -0.25,-0.171875 0,-0.078125 0.015625,-0.15625 0.03125,-0.234375 z m 0,0"
               id="id-75924040-5e08-4272-a2f1-28e341bc2dea" />
          </g>
        </g>
        <g
           style="fill:#000000;fill-opacity:1;stroke-width:0.173799"
           id="id-e8dcdc49-6ee6-4fbb-b6df-aa7326ff9279"
           transform="matrix(0.19297367,0,0,0.19297367,156.64398,75.165821)">
          <g
             transform="translate(179.377,136.259)"
             id="g11862"
             style="stroke-width:0.173799">
            <path
               style="stroke:none;stroke-width:0"
               d="m 5.875,-4.8125 c 0,-0.03125 -0.015625,-0.09375 -0.09375,-0.09375 -0.046875,0 -0.0625,0.015625 -0.125,0.09375 l -0.5,0.53125 c -0.0625,-0.078125 -0.453125,-0.625 -1.3125,-0.625 -1.703125,0 -3.359375,1.5 -3.359375,3.078125 0,1.140625 0.890625,1.96875 2.140625,1.96875 0.375,0 1.046875,-0.078125 1.765625,-0.6875 0.546875,-0.46875 0.703125,-1.0625 0.703125,-1.125 0,-0.09375 -0.078125,-0.09375 -0.125,-0.09375 -0.078125,0 -0.09375,0.03125 -0.125,0.109375 -0.28125,0.953125 -1.25,1.546875 -2.09375,1.546875 -0.75,0 -1.5625,-0.40625 -1.5625,-1.5 0,-0.203125 0.046875,-1.296875 0.84375,-2.1875 0.484375,-0.53125 1.21875,-0.84375 1.875,-0.84375 0.8125,0 1.28125,0.578125 1.28125,1.359375 0,0.1875 -0.015625,0.25 -0.015625,0.28125 0,0.09375 0.09375,0.09375 0.125,0.09375 0.109375,0 0.109375,-0.015625 0.140625,-0.15625 z m 0,0"
               id="id-f568604d-325c-4e64-baff-2dd3b471ae90" />
          </g>
        </g>
        <g
           style="fill:#000000;fill-opacity:1;stroke-width:0.173799"
           id="id-43586d33-1f87-438e-bf0f-6e54b908e3bc"
           transform="matrix(0.19297367,0,0,0.19297367,132.83639,79.116129)">
          <g
             transform="translate(189.399,134.765)"
             id="g11866"
             style="stroke-width:0.173799">
            <path
               style="stroke:none;stroke-width:0"
               d="m 3.734375,-6.125 c 0.0625,-0.234375 0.09375,-0.328125 0.28125,-0.359375 C 4.109375,-6.5 4.421875,-6.5 4.625,-6.5 c 0.703125,0 1.8125,0 1.8125,0.984375 0,0.34375 -0.15625,1.03125 -0.546875,1.421875 -0.265625,0.25 -0.78125,0.578125 -1.6875,0.578125 H 3.09375 Z m 1.4375,2.734375 c 1.015625,-0.21875 2.1875,-0.921875 2.1875,-1.921875 0,-0.859375 -0.890625,-1.5 -2.203125,-1.5 H 2.328125 c -0.203125,0 -0.296875,0 -0.296875,0.203125 C 2.03125,-6.5 2.125,-6.5 2.3125,-6.5 c 0.015625,0 0.203125,0 0.375,0.015625 0.1875,0.03125 0.265625,0.03125 0.265625,0.171875 0,0.03125 0,0.0625 -0.03125,0.1875 l -1.34375,5.34375 C 1.484375,-0.390625 1.46875,-0.3125 0.671875,-0.3125 0.5,-0.3125 0.40625,-0.3125 0.40625,-0.109375 0.40625,0 0.53125,0 0.546875,0 c 0.28125,0 0.984375,-0.03125 1.25,-0.03125 0.28125,0 1,0.03125 1.28125,0.03125 0.078125,0 0.1875,0 0.1875,-0.203125 0,-0.109375 -0.078125,-0.109375 -0.28125,-0.109375 -0.359375,0 -0.640625,0 -0.640625,-0.171875 0,-0.0625 0.015625,-0.109375 0.03125,-0.171875 l 0.65625,-2.640625 h 1.1875 c 0.90625,0 1.078125,0.5625 1.078125,0.90625 0,0.140625 -0.078125,0.453125 -0.140625,0.6875 C 5.09375,-1.421875 5,-1.0625 5,-0.859375 5,0.21875 6.203125,0.21875 6.328125,0.21875 c 0.84375,0 1.203125,-1 1.203125,-1.140625 0,-0.125 -0.109375,-0.125 -0.125,-0.125 -0.09375,0 -0.109375,0.0625 -0.125,0.140625 C 7.03125,-0.171875 6.59375,0 6.375,0 6.046875,0 5.96875,-0.21875 5.96875,-0.609375 c 0,-0.3125 0.0625,-0.8125 0.109375,-1.140625 0.015625,-0.140625 0.03125,-0.328125 0.03125,-0.46875 0,-0.765625 -0.671875,-1.078125 -0.9375,-1.171875 z m 0,0"
               id="id-eb725007-f152-4e6c-95ee-ef919555d959" />
          </g>
        </g>
        <g
           style="fill:#000000;fill-opacity:1;stroke-width:0.173799"
           id="id-d5bd8252-a650-4028-9ef3-a7e1116b0400"
           transform="matrix(0.19297367,0,0,0.19297367,132.83639,79.116129)">
          <g
             transform="translate(196.963,136.259)"
             id="g11870"
             style="stroke-width:0.173799">
            <path
               style="stroke:none;stroke-width:0"
               d="m 3.03125,-0.5625 c -0.046875,0.140625 -0.109375,0.375 -0.109375,0.40625 0,0.15625 0.125,0.21875 0.234375,0.21875 0.140625,0 0.25,-0.078125 0.28125,-0.140625 0.03125,-0.0625 0.09375,-0.296875 0.125,-0.4375 0.03125,-0.125 0.109375,-0.453125 0.15625,-0.625 0.03125,-0.15625 0.078125,-0.3125 0.109375,-0.46875 0.078125,-0.296875 0.078125,-0.3125 0.21875,-0.53125 C 4.265625,-2.484375 4.625,-2.875 5.15625,-2.875 c 0.390625,0 0.421875,0.3125 0.421875,0.484375 0,0.421875 -0.296875,1.1875 -0.421875,1.484375 -0.0625,0.203125 -0.09375,0.265625 -0.09375,0.375 0,0.375 0.296875,0.59375 0.65625,0.59375 0.703125,0 1,-0.953125 1,-1.0625 0,-0.09375 -0.078125,-0.09375 -0.109375,-0.09375 -0.09375,0 -0.09375,0.046875 -0.125,0.125 C 6.328125,-0.40625 6.015625,-0.125 5.75,-0.125 c -0.15625,0 -0.1875,-0.09375 -0.1875,-0.25 0,-0.15625 0.046875,-0.25 0.171875,-0.5625 0.078125,-0.21875 0.359375,-0.953125 0.359375,-1.34375 0,-0.109375 0,-0.40625 -0.25,-0.609375 -0.125,-0.078125 -0.328125,-0.1875 -0.65625,-0.1875 -0.625,0 -1,0.421875 -1.234375,0.703125 C 3.90625,-2.96875 3.40625,-3.078125 3.046875,-3.078125 2.46875,-3.078125 2.078125,-2.71875 1.875,-2.4375 1.828125,-2.921875 1.421875,-3.078125 1.125,-3.078125 c -0.296875,0 -0.453125,0.21875 -0.546875,0.375 -0.15625,0.265625 -0.25,0.65625 -0.25,0.703125 0,0.078125 0.09375,0.078125 0.125,0.078125 0.09375,0 0.09375,-0.015625 0.140625,-0.203125 0.109375,-0.40625 0.25,-0.75 0.515625,-0.75 0.1875,0 0.234375,0.15625 0.234375,0.34375 0,0.125 -0.0625,0.390625 -0.125,0.578125 -0.046875,0.1875 -0.109375,0.46875 -0.140625,0.625 L 0.84375,-0.4375 c -0.015625,0.09375 -0.0625,0.265625 -0.0625,0.28125 0,0.15625 0.125,0.21875 0.234375,0.21875 0.125,0 0.234375,-0.078125 0.28125,-0.140625 0.03125,-0.0625 0.078125,-0.296875 0.125,-0.4375 0.03125,-0.125 0.109375,-0.453125 0.140625,-0.625 0.046875,-0.15625 0.09375,-0.3125 0.125,-0.46875 0.078125,-0.28125 0.09375,-0.34375 0.296875,-0.625 C 2.171875,-2.515625 2.5,-2.875 3.03125,-2.875 c 0.390625,0 0.40625,0.359375 0.40625,0.484375 0,0.171875 -0.015625,0.265625 -0.125,0.65625 z m 0,0"
               id="id-d0b3cf30-7ab8-46cd-b1fe-53ed507426f0" />
          </g>
        </g>
        <g
           style="fill:#000000;fill-opacity:1;stroke-width:0.173799"
           id="id-d5bc5834-c4e2-4405-b0a6-94eb8e4645d9"
           transform="matrix(0.19297367,0,0,0.19297367,151.01656,82.250436)">
          <g
             transform="translate(207.852,134.765)"
             id="g11874"
             style="stroke-width:0.173799">
            <path
               style="stroke:none;stroke-width:0"
               d="m 7.578125,-6.921875 c 0,-0.03125 -0.015625,-0.109375 -0.109375,-0.109375 -0.03125,0 -0.046875,0.015625 -0.15625,0.125 L 6.625,-6.140625 C 6.53125,-6.28125 6.078125,-7.03125 4.96875,-7.03125 2.734375,-7.03125 0.5,-4.828125 0.5,-2.515625 0.5,-0.875 1.671875,0.21875 3.203125,0.21875 c 0.859375,0 1.625,-0.390625 2.15625,-0.859375 0.921875,-0.8125 1.09375,-1.71875 1.09375,-1.75 C 6.453125,-2.5 6.34375,-2.5 6.328125,-2.5 c -0.0625,0 -0.109375,0.03125 -0.125,0.109375 -0.09375,0.28125 -0.328125,1 -1.015625,1.578125 -0.6875,0.546875 -1.3125,0.71875 -1.828125,0.71875 -0.890625,0 -1.953125,-0.515625 -1.953125,-2.0625 0,-0.578125 0.203125,-2.1875 1.203125,-3.359375 0.609375,-0.703125 1.546875,-1.203125 2.4375,-1.203125 1.015625,0 1.609375,0.765625 1.609375,1.921875 0,0.40625 -0.03125,0.40625 -0.03125,0.515625 0,0.09375 0.109375,0.09375 0.140625,0.09375 0.125,0 0.125,-0.015625 0.1875,-0.203125 z m 0,0"
               id="id-a168bbe2-3781-4c4d-8084-65294a422109" />
          </g>
        </g>
        <g
           style="fill:#000000;fill-opacity:1;stroke-width:0.173799"
           id="id-7e4bb6a6-9e18-4ae5-a0b8-1340a13df069"
           transform="matrix(0.19297367,0,0,0.19297367,151.01656,82.250436)">
          <g
             transform="translate(214.972,136.259)"
             id="g11878"
             style="stroke-width:0.173799">
            <path
               style="stroke:none;stroke-width:0"
               d="m 3.03125,-0.5625 c -0.046875,0.140625 -0.109375,0.375 -0.109375,0.40625 0,0.15625 0.125,0.21875 0.234375,0.21875 0.140625,0 0.25,-0.078125 0.28125,-0.140625 0.03125,-0.0625 0.09375,-0.296875 0.125,-0.4375 0.03125,-0.125 0.109375,-0.453125 0.15625,-0.625 0.03125,-0.15625 0.078125,-0.3125 0.109375,-0.46875 0.078125,-0.296875 0.078125,-0.3125 0.21875,-0.53125 C 4.265625,-2.484375 4.625,-2.875 5.15625,-2.875 c 0.390625,0 0.421875,0.3125 0.421875,0.484375 0,0.421875 -0.296875,1.1875 -0.421875,1.484375 -0.0625,0.203125 -0.09375,0.265625 -0.09375,0.375 0,0.375 0.296875,0.59375 0.65625,0.59375 0.703125,0 1,-0.953125 1,-1.0625 0,-0.09375 -0.078125,-0.09375 -0.109375,-0.09375 -0.09375,0 -0.09375,0.046875 -0.125,0.125 C 6.328125,-0.40625 6.015625,-0.125 5.75,-0.125 c -0.15625,0 -0.1875,-0.09375 -0.1875,-0.25 0,-0.15625 0.046875,-0.25 0.171875,-0.5625 0.078125,-0.21875 0.359375,-0.953125 0.359375,-1.34375 0,-0.109375 0,-0.40625 -0.25,-0.609375 -0.125,-0.078125 -0.328125,-0.1875 -0.65625,-0.1875 -0.625,0 -1,0.421875 -1.234375,0.703125 C 3.90625,-2.96875 3.40625,-3.078125 3.046875,-3.078125 2.46875,-3.078125 2.078125,-2.71875 1.875,-2.4375 1.828125,-2.921875 1.421875,-3.078125 1.125,-3.078125 c -0.296875,0 -0.453125,0.21875 -0.546875,0.375 -0.15625,0.265625 -0.25,0.65625 -0.25,0.703125 0,0.078125 0.09375,0.078125 0.125,0.078125 0.09375,0 0.09375,-0.015625 0.140625,-0.203125 0.109375,-0.40625 0.25,-0.75 0.515625,-0.75 0.1875,0 0.234375,0.15625 0.234375,0.34375 0,0.125 -0.0625,0.390625 -0.125,0.578125 -0.046875,0.1875 -0.109375,0.46875 -0.140625,0.625 L 0.84375,-0.4375 c -0.015625,0.09375 -0.0625,0.265625 -0.0625,0.28125 0,0.15625 0.125,0.21875 0.234375,0.21875 0.125,0 0.234375,-0.078125 0.28125,-0.140625 0.03125,-0.0625 0.078125,-0.296875 0.125,-0.4375 0.03125,-0.125 0.109375,-0.453125 0.140625,-0.625 0.046875,-0.15625 0.09375,-0.3125 0.125,-0.46875 0.078125,-0.28125 0.09375,-0.34375 0.296875,-0.625 C 2.171875,-2.515625 2.5,-2.875 3.03125,-2.875 c 0.390625,0 0.40625,0.359375 0.40625,0.484375 0,0.171875 -0.015625,0.265625 -0.125,0.65625 z m 0,0"
               id="id-ae3954f2-6a7a-4e05-9b8c-4d8926b7540a" />
          </g>
        </g>
        <g
           style="fill:#000000;fill-opacity:1;stroke-width:0.173799"
           id="id-e6503837-7fd4-4937-bfaa-77f09ee48b6a"
           transform="matrix(0.19297367,0,0,0.19297367,126.03916,89.699383)">
          <g
             transform="translate(225.861,134.765)"
             id="g11882"
             style="stroke-width:0.173799">
            <path
               style="stroke:none;stroke-width:0"
               d="M 7.0625,-2.328125 C 7.078125,-2.375 7.109375,-2.4375 7.109375,-2.46875 c 0,0 0,-0.109375 -0.125,-0.109375 -0.09375,0 -0.109375,0.0625 -0.125,0.125 C 6.203125,-0.984375 5.84375,-0.3125 4.140625,-0.3125 H 2.6875 c -0.140625,0 -0.171875,0 -0.21875,0 -0.109375,-0.015625 -0.140625,-0.03125 -0.140625,-0.109375 0,-0.03125 0,-0.046875 0.046875,-0.21875 L 3.0625,-3.375 h 0.984375 c 0.84375,0 0.84375,0.21875 0.84375,0.46875 0,0.0625 0,0.1875 -0.0625,0.484375 C 4.8125,-2.375 4.796875,-2.34375 4.796875,-2.3125 c 0,0.046875 0.03125,0.109375 0.125,0.109375 C 5,-2.203125 5.03125,-2.25 5.078125,-2.40625 l 0.5625,-2.328125 c 0,-0.0625 -0.046875,-0.109375 -0.125,-0.109375 -0.078125,0 -0.109375,0.0625 -0.125,0.171875 -0.21875,0.765625 -0.390625,1 -1.3125,1 h -0.9375 l 0.59375,-2.40625 C 3.828125,-6.4375 3.84375,-6.46875 4.28125,-6.46875 H 5.6875 c 1.203125,0 1.515625,0.28125 1.515625,1.109375 0,0.234375 0,0.25 -0.046875,0.53125 0,0.046875 -0.015625,0.125 -0.015625,0.171875 0,0.046875 0.03125,0.125 0.125,0.125 0.109375,0 0.125,-0.0625 0.140625,-0.25 L 7.609375,-6.515625 C 7.640625,-6.78125 7.59375,-6.78125 7.34375,-6.78125 H 2.296875 c -0.1875,0 -0.296875,0 -0.296875,0.203125 0,0.109375 0.09375,0.109375 0.28125,0.109375 0.375,0 0.65625,0 0.65625,0.171875 0,0.046875 0,0.0625 -0.0625,0.25 L 1.5625,-0.78125 c -0.09375,0.390625 -0.109375,0.46875 -0.90625,0.46875 -0.171875,0 -0.28125,0 -0.28125,0.1875 C 0.375,0 0.46875,0 0.65625,0 h 5.171875 c 0.234375,0 0.25,-0.015625 0.3125,-0.171875 z m 0,0"
               id="id-bc6cf1fc-028d-4655-b741-cf176208107f" />
          </g>
        </g>
        <g
           style="fill:#000000;fill-opacity:1;stroke-width:0.173799"
           id="id-e151b449-211a-463f-bc20-60cd2cd77a87"
           transform="matrix(0.19297367,0,0,0.19297367,126.03916,89.699383)">
          <g
             transform="translate(233.215,136.259)"
             id="g11886"
             style="stroke-width:0.173799">
            <path
               style="stroke:none;stroke-width:0"
               d="m 1.640625,-1.40625 c 0,-0.046875 0.171875,-0.671875 0.171875,-0.703125 0.015625,-0.0625 0.21875,-0.40625 0.453125,-0.578125 0.0625,-0.046875 0.25,-0.1875 0.5625,-0.1875 0.0625,0 0.234375,0 0.375,0.09375 -0.21875,0.0625 -0.296875,0.265625 -0.296875,0.390625 0,0.140625 0.109375,0.25 0.265625,0.25 0.171875,0 0.390625,-0.125 0.390625,-0.421875 0,-0.359375 -0.375,-0.515625 -0.734375,-0.515625 -0.359375,0 -0.671875,0.15625 -0.984375,0.5 -0.125,-0.421875 -0.546875,-0.5 -0.71875,-0.5 -0.25,0 -0.421875,0.171875 -0.546875,0.359375 -0.15625,0.265625 -0.25,0.671875 -0.25,0.71875 0,0.078125 0.09375,0.078125 0.125,0.078125 0.09375,0 0.09375,-0.015625 0.140625,-0.203125 0.109375,-0.421875 0.25,-0.75 0.515625,-0.75 0.1875,0 0.234375,0.15625 0.234375,0.34375 0,0.125 -0.0625,0.390625 -0.125,0.578125 -0.046875,0.1875 -0.109375,0.46875 -0.140625,0.625 L 0.84375,-0.4375 C 0.828125,-0.34375 0.78125,-0.171875 0.78125,-0.15625 0.78125,0 0.90625,0.0625 1.015625,0.0625 1.125,0.0625 1.265625,0 1.3125,-0.125 1.328125,-0.171875 1.40625,-0.484375 1.453125,-0.65625 Z m 0,0"
               id="id-87341048-4236-4724-96c2-fe87d0e02009" />
          </g>
        </g>
        <path
           style="fill:#000000;fill-opacity:1;stroke:#000000;stroke-width:0.106549;stroke-linecap:square;stroke-miterlimit:4.1;stroke-dasharray:none;stroke-dashoffset:0;marker-end:url(#Arrow2Lend);stop-color:#000000"
           d="m 173.27633,95.91369 h 2.97484"
           id="path12333" />
      </g>
    </g>
    <g
       transform="matrix(6.29541,0,0,6.29541,4060.7756,-1515.1251)"
       ns12:version="1.6.0"
       ns12:texconverter="pdflatex"
       ns12:pdfconverter="inkscape"
       ns12:text="$V_m$\n"
       ns12:preamble="/usr/share/inkscape/extensions/textext/default_packages.tex"
       ns12:scale="17.845248903943414"
       ns12:alignment="middle center"
       ns12:stroke-to-path="0"
       ns12:inkscapeversion="1.1.1"
       ns12:jacobian_sqrt="6.29541"
       id="g14357">
      <defs
         id="id-928f978a-816a-4241-91f1-35f3ace5e4c3">
        <g
           id="id-0028516f-e6eb-4c7b-a70e-3e2944620626">
          <symbol
             overflow="visible"
             id="id-7c3a9a28-4045-46d2-bf37-9439d37f4930">
            <path
               style="stroke:none;stroke-width:0"
               d=""
               id="id-42b5993b-878b-4d49-ab3c-4e43202fca9c" />
          </symbol>
          <symbol
             overflow="visible"
             id="id-a589e9f1-837b-46e8-abba-3bc9abfdd1ff">
            <path
               style="stroke:none;stroke-width:0"
               d="M 6.265625,-5.671875 C 6.75,-6.453125 7.171875,-6.484375 7.53125,-6.5 c 0.125,-0.015625 0.140625,-0.171875 0.140625,-0.1875 0,-0.078125 -0.0625,-0.125 -0.140625,-0.125 -0.25,0 -0.546875,0.03125 -0.8125,0.03125 -0.328125,0 -0.671875,-0.03125 -0.984375,-0.03125 -0.0625,0 -0.1875,0 -0.1875,0.1875 0,0.109375 0.078125,0.125 0.15625,0.125 0.265625,0.015625 0.453125,0.125 0.453125,0.328125 0,0.15625 -0.140625,0.375 -0.140625,0.375 l -3.0625,4.875 -0.6875,-5.28125 C 2.265625,-6.375 2.5,-6.5 2.953125,-6.5 c 0.140625,0 0.25,0 0.25,-0.203125 0,-0.078125 -0.078125,-0.109375 -0.125,-0.109375 -0.40625,0 -0.828125,0.03125 -1.25,0.03125 -0.171875,0 -0.359375,0 -0.546875,0 -0.171875,0 -0.359375,-0.03125 -0.53125,-0.03125 -0.078125,0 -0.1875,0 -0.1875,0.1875 0,0.125 0.078125,0.125 0.25,0.125 0.546875,0 0.5625,0.09375 0.59375,0.34375 L 2.1875,-0.015625 C 2.21875,0.1875 2.265625,0.21875 2.390625,0.21875 c 0.15625,0 0.203125,-0.046875 0.28125,-0.171875 z m 0,0"
               id="id-ee6c4e7c-112f-49fc-a7e3-99308d643d64" />
          </symbol>
          <symbol
             overflow="visible"
             id="id-ce3a515b-2f76-4344-b4cc-f0b1dda01dca">
            <path
               style="stroke:none;stroke-width:0"
               d=""
               id="id-09966d00-a640-43c5-aac6-bfa790c9344e" />
          </symbol>
          <symbol
             overflow="visible"
             id="id-e240f1e4-f1df-43a1-9c45-3b33c2a91b4e">
            <path
               style="stroke:none;stroke-width:0"
               d="m 3.03125,-0.5625 c -0.046875,0.140625 -0.109375,0.375 -0.109375,0.40625 0,0.15625 0.125,0.21875 0.234375,0.21875 0.140625,0 0.25,-0.078125 0.28125,-0.140625 0.03125,-0.0625 0.09375,-0.296875 0.125,-0.4375 0.03125,-0.125 0.109375,-0.453125 0.15625,-0.625 0.03125,-0.15625 0.078125,-0.3125 0.109375,-0.46875 0.078125,-0.296875 0.078125,-0.3125 0.21875,-0.53125 C 4.265625,-2.484375 4.625,-2.875 5.15625,-2.875 c 0.390625,0 0.421875,0.3125 0.421875,0.484375 0,0.421875 -0.296875,1.1875 -0.421875,1.484375 -0.0625,0.203125 -0.09375,0.265625 -0.09375,0.375 0,0.375 0.296875,0.59375 0.65625,0.59375 0.703125,0 1,-0.953125 1,-1.0625 0,-0.09375 -0.078125,-0.09375 -0.109375,-0.09375 -0.09375,0 -0.09375,0.046875 -0.125,0.125 C 6.328125,-0.40625 6.015625,-0.125 5.75,-0.125 c -0.15625,0 -0.1875,-0.09375 -0.1875,-0.25 0,-0.15625 0.046875,-0.25 0.171875,-0.5625 0.078125,-0.21875 0.359375,-0.953125 0.359375,-1.34375 0,-0.109375 0,-0.40625 -0.25,-0.609375 -0.125,-0.078125 -0.328125,-0.1875 -0.65625,-0.1875 -0.625,0 -1,0.421875 -1.234375,0.703125 C 3.90625,-2.96875 3.40625,-3.078125 3.046875,-3.078125 2.46875,-3.078125 2.078125,-2.71875 1.875,-2.4375 1.828125,-2.921875 1.421875,-3.078125 1.125,-3.078125 c -0.296875,0 -0.453125,0.21875 -0.546875,0.375 -0.15625,0.265625 -0.25,0.65625 -0.25,0.703125 0,0.078125 0.09375,0.078125 0.125,0.078125 0.09375,0 0.09375,-0.015625 0.140625,-0.203125 0.109375,-0.40625 0.25,-0.75 0.515625,-0.75 0.1875,0 0.234375,0.15625 0.234375,0.34375 0,0.125 -0.0625,0.390625 -0.125,0.578125 -0.046875,0.1875 -0.109375,0.46875 -0.140625,0.625 L 0.84375,-0.4375 c -0.015625,0.09375 -0.0625,0.265625 -0.0625,0.28125 0,0.15625 0.125,0.21875 0.234375,0.21875 0.125,0 0.234375,-0.078125 0.28125,-0.140625 0.03125,-0.0625 0.078125,-0.296875 0.125,-0.4375 0.03125,-0.125 0.109375,-0.453125 0.140625,-0.625 0.046875,-0.15625 0.09375,-0.3125 0.125,-0.46875 0.078125,-0.28125 0.09375,-0.34375 0.296875,-0.625 C 2.171875,-2.515625 2.5,-2.875 3.03125,-2.875 c 0.390625,0 0.40625,0.359375 0.40625,0.484375 0,0.171875 -0.015625,0.265625 -0.125,0.65625 z m 0,0"
               id="id-ceea256e-9c92-48d6-bf3d-a790e9a5c567" />
          </symbol>
        </g>
      </defs>
      <g
         id="id-d49f837c-83fd-4c59-8224-e669cdd4a4bf"
         transform="translate(-149.275,-127.953)">
        <g
           style="fill:#000000;fill-opacity:1"
           id="id-97108727-da04-43aa-91b6-1ed02345768e">
          <g
             transform="translate(148.712,134.765)"
             id="g14349">
            <path
               style="stroke:none;stroke-width:0"
               d="M 6.265625,-5.671875 C 6.75,-6.453125 7.171875,-6.484375 7.53125,-6.5 c 0.125,-0.015625 0.140625,-0.171875 0.140625,-0.1875 0,-0.078125 -0.0625,-0.125 -0.140625,-0.125 -0.25,0 -0.546875,0.03125 -0.8125,0.03125 -0.328125,0 -0.671875,-0.03125 -0.984375,-0.03125 -0.0625,0 -0.1875,0 -0.1875,0.1875 0,0.109375 0.078125,0.125 0.15625,0.125 0.265625,0.015625 0.453125,0.125 0.453125,0.328125 0,0.15625 -0.140625,0.375 -0.140625,0.375 l -3.0625,4.875 -0.6875,-5.28125 C 2.265625,-6.375 2.5,-6.5 2.953125,-6.5 c 0.140625,0 0.25,0 0.25,-0.203125 0,-0.078125 -0.078125,-0.109375 -0.125,-0.109375 -0.40625,0 -0.828125,0.03125 -1.25,0.03125 -0.171875,0 -0.359375,0 -0.546875,0 -0.171875,0 -0.359375,-0.03125 -0.53125,-0.03125 -0.078125,0 -0.1875,0 -0.1875,0.1875 0,0.125 0.078125,0.125 0.25,0.125 0.546875,0 0.5625,0.09375 0.59375,0.34375 L 2.1875,-0.015625 C 2.21875,0.1875 2.265625,0.21875 2.390625,0.21875 c 0.15625,0 0.203125,-0.046875 0.28125,-0.171875 z m 0,0"
               id="id-93b4ce61-b8b3-4088-8a97-4b3d5592f4ec" />
          </g>
        </g>
        <g
           style="fill:#000000;fill-opacity:1"
           id="id-b803bebc-b3aa-493c-aa44-56f81f3760b7">
          <g
             transform="translate(154.524,136.259)"
             id="g14353">
            <path
               style="stroke:none;stroke-width:0"
               d="m 3.03125,-0.5625 c -0.046875,0.140625 -0.109375,0.375 -0.109375,0.40625 0,0.15625 0.125,0.21875 0.234375,0.21875 0.140625,0 0.25,-0.078125 0.28125,-0.140625 0.03125,-0.0625 0.09375,-0.296875 0.125,-0.4375 0.03125,-0.125 0.109375,-0.453125 0.15625,-0.625 0.03125,-0.15625 0.078125,-0.3125 0.109375,-0.46875 0.078125,-0.296875 0.078125,-0.3125 0.21875,-0.53125 C 4.265625,-2.484375 4.625,-2.875 5.15625,-2.875 c 0.390625,0 0.421875,0.3125 0.421875,0.484375 0,0.421875 -0.296875,1.1875 -0.421875,1.484375 -0.0625,0.203125 -0.09375,0.265625 -0.09375,0.375 0,0.375 0.296875,0.59375 0.65625,0.59375 0.703125,0 1,-0.953125 1,-1.0625 0,-0.09375 -0.078125,-0.09375 -0.109375,-0.09375 -0.09375,0 -0.09375,0.046875 -0.125,0.125 C 6.328125,-0.40625 6.015625,-0.125 5.75,-0.125 c -0.15625,0 -0.1875,-0.09375 -0.1875,-0.25 0,-0.15625 0.046875,-0.25 0.171875,-0.5625 0.078125,-0.21875 0.359375,-0.953125 0.359375,-1.34375 0,-0.109375 0,-0.40625 -0.25,-0.609375 -0.125,-0.078125 -0.328125,-0.1875 -0.65625,-0.1875 -0.625,0 -1,0.421875 -1.234375,0.703125 C 3.90625,-2.96875 3.40625,-3.078125 3.046875,-3.078125 2.46875,-3.078125 2.078125,-2.71875 1.875,-2.4375 1.828125,-2.921875 1.421875,-3.078125 1.125,-3.078125 c -0.296875,0 -0.453125,0.21875 -0.546875,0.375 -0.15625,0.265625 -0.25,0.65625 -0.25,0.703125 0,0.078125 0.09375,0.078125 0.125,0.078125 0.09375,0 0.09375,-0.015625 0.140625,-0.203125 0.109375,-0.40625 0.25,-0.75 0.515625,-0.75 0.1875,0 0.234375,0.15625 0.234375,0.34375 0,0.125 -0.0625,0.390625 -0.125,0.578125 -0.046875,0.1875 -0.109375,0.46875 -0.140625,0.625 L 0.84375,-0.4375 c -0.015625,0.09375 -0.0625,0.265625 -0.0625,0.28125 0,0.15625 0.125,0.21875 0.234375,0.21875 0.125,0 0.234375,-0.078125 0.28125,-0.140625 0.03125,-0.0625 0.078125,-0.296875 0.125,-0.4375 0.03125,-0.125 0.109375,-0.453125 0.140625,-0.625 0.046875,-0.15625 0.09375,-0.3125 0.125,-0.46875 0.078125,-0.28125 0.09375,-0.34375 0.296875,-0.625 C 2.171875,-2.515625 2.5,-2.875 3.03125,-2.875 c 0.390625,0 0.40625,0.359375 0.40625,0.484375 0,0.171875 -0.015625,0.265625 -0.125,0.65625 z m 0,0"
               id="id-ac452111-ed3b-4230-a942-f7782180c327" />
          </g>
        </g>
      </g>
    </g>
  </g>
</svg>
