<?xml version="1.0" encoding="UTF-8" standalone="no"?>
<svg
   width="495.90146"
   height="358.50201"
   viewBox="0 0 468.35138 358.50201"
   id="svg2"
   sodipodi:version="0.32"
   inkscape:version="1.1.1 (3bf5ae0d25, 2021-09-20, custom)"
   sodipodi:docname="opamp.svg"
   inkscape:output_extension="org.inkscape.output.svg.inkscape"
   version="1.0"
   xmlns:inkscape="http://www.inkscape.org/namespaces/inkscape"
   xmlns:sodipodi="http://sodipodi.sourceforge.net/DTD/sodipodi-0.dtd"
   xmlns="http://www.w3.org/2000/svg"
   xmlns:svg="http://www.w3.org/2000/svg"
   xmlns:rdf="http://www.w3.org/1999/02/22-rdf-syntax-ns#"
   xmlns:cc="http://creativecommons.org/ns#"
   xmlns:dc="http://purl.org/dc/elements/1.1/">
  <metadata
     id="metadata105">
    <rdf:RDF>
      <cc:Work
         rdf:about="">
        <dc:format>image/svg+xml</dc:format>
        <dc:type
           rdf:resource="http://purl.org/dc/dcmitype/StillImage" />
        <dc:title>Produce by DWG to SVG Converter MX</dc:title>
      </cc:Work>
    </rdf:RDF>
  </metadata>
  <defs
     id="defs103">
    <marker
       style="overflow:visible"
       id="Arrow1Lend"
       refX="0"
       refY="0"
       orient="auto"
       inkscape:stockid="Arrow1Lend"
       inkscape:isstock="true">
      <path
         transform="matrix(-0.8,0,0,-0.8,-10,0)"
         style="fill:context-stroke;fill-rule:evenodd;stroke:context-stroke;stroke-width:1pt"
         d="M 0,0 5,-5 -12.5,0 5,5 Z"
         id="path1512" />
    </marker>
    <inkscape:perspective
       sodipodi:type="inkscape:persp3d"
       inkscape:vp_x="0 : 218.50201 : 1"
       inkscape:vp_y="0 : 999.99999 : 0"
       inkscape:vp_z="340 : 218.50201 : 1"
       inkscape:persp3d-origin="170 : 171.83535 : 1"
       id="perspective107" />
  </defs>
  <sodipodi:namedview
     inkscape:window-height="2073"
     inkscape:window-width="2269"
     inkscape:pageshadow="2"
     inkscape:pageopacity="0.0"
     guidetolerance="10.0"
     gridtolerance="10.0"
     objecttolerance="10.0"
     borderopacity="1.0"
     bordercolor="#666666"
     pagecolor="#ffffff"
     id="base"
     showgrid="false"
     inkscape:zoom="1.1313709"
     inkscape:cx="193.12853"
     inkscape:cy="223.18057"
     inkscape:window-x="25"
     inkscape:window-y="52"
     inkscape:current-layer="svg2"
     inkscape:pagecheckerboard="0"
     inkscape:window-maximized="0"
     inkscape:snap-global="true"
     inkscape:object-paths="true"
     inkscape:snap-midpoints="true"
     inkscape:snap-smooth-nodes="true"
     inkscape:snap-object-midpoints="true" />
  <title
     id="title4">Produce by DWG to SVG Converter MX</title>
  <desc
     id="desc6">Produce by DWG to SVG Converter MX</desc>
  <path
     d="m 398.92805,255.90007 0.0248,-0.99324 m 0,0 0.14899,-0.96842 m 0,0 0.24831,-0.96841 m 0,0 0.3228,-0.91875 m 0,0 0.42213,-0.89392 m 0,0 0.52145,-0.81942 m 0,0 0.57112,-0.79459 m 0,0 0.67044,-0.74494 m 0,0 0.7201,-0.6456 m 0,0 0.79459,-0.59595 m 0,0 0.84426,-0.49662 m 0,0 0.89392,-0.42213 m 0,0 0.91875,-0.3228 m 0,0 0.94358,-0.24831 m 0,0 0.96841,-0.14899 m 0,0 0.99324,-0.0497 m 0,0 0.96841,0.0497 m 0,0 0.99324,0.14899 m 0,0 0.94358,0.24831 m 0,0 0.91875,0.3228 m 0,0 0.89392,0.42213 m 0,0 0.84426,0.49662 m 0,0 0.79459,0.59595 m 0,0 0.7201,0.6456 m 0,0 0.67044,0.74494 m 0,0 0.57112,0.79459 m 0,0 0.49662,0.81942 m 0,0 0.42213,0.89392 m 0,0 0.34763,0.91875 m 0,0 0.22348,0.96841 m 0,0 0.14899,0.96842 m 0,0 0.0497,0.99324 m 0,0 -0.0497,0.96841 m 0,0 -0.14899,0.96841 m 0,0 -0.22348,0.96841 m 0,0 -0.34763,0.91875 m 0,0 -0.42213,0.89392 m 0,0 -0.49662,0.84426 m 0,0 -0.57112,0.76976 m 0,0 -0.67044,0.74493 m 0,0 -0.7201,0.64561 m 0,0 -0.79459,0.59594 m 0,0 -0.84426,0.49663 m 0,0 -0.89392,0.42212 m 0,0 -0.91875,0.32281 m 0,0 -0.94358,0.24831 m 0,0 -0.99324,0.14898 m 0,0 -0.96841,0.0497 m 0,0 -0.99324,-0.0497 m 0,0 -0.96841,-0.14898 m 0,0 -0.94358,-0.24831 m 0,0 -0.91875,-0.32281 m 0,0 -0.89392,-0.42212 m 0,0 -0.84426,-0.49663 m 0,0 -0.79459,-0.59594 m 0,0 -0.7201,-0.64561 m 0,0 -0.67044,-0.74493 m 0,0 -0.57112,-0.76976 m 0,0 -0.52145,-0.84426 m 0,0 -0.42213,-0.89392 m 0,0 -0.3228,-0.91875 m 0,0 -0.24831,-0.96841 m 0,0 -0.14899,-0.96841 m 0,0 -0.0248,-0.96841"
     id="path68"
     style="fill:none;stroke:#000000;stroke-width:4.96621;stroke-miterlimit:4;stroke-dasharray:none" />
  <path
     d="m 408.93497,265.90699 v 90.11192"
     id="path70"
     style="fill:none;stroke:#000000;stroke-width:4.96621;stroke-miterlimit:4;stroke-dasharray:none" />
  <path
     d="m 378.88938,356.01891 h 60.09118"
     id="path72"
     style="fill:none;stroke:#000000;stroke-width:4.96621;stroke-miterlimit:4;stroke-dasharray:none" />
  <path
     d="m 25.296111,113.93556 h 14.2034 l -0.27013,0.89571 -1.09476,0.0284 -1.56394,0.19905 -0.46918,0.18482 -0.45497,0.18483 -0.79618,0.6398 -0.32701,0.46918 -0.327,0.45496 -0.69667,1.70612 -0.35544,1.25115 -3.7108,12.56837 -0.4834,1.66347 -0.59714,2.20373 -0.0853,0.52605 -0.15639,0.7251 -0.14218,1.33645 v 0.62558 1.36489 l 1.15163,2.30326 1.16584,0.95258 1.15163,0.93836 3.09944,0.93836 h 1.94781 1.27959 l 2.24638,-0.45496 0.98102,-0.46918 0.9668,-0.46918 1.67768,-1.29381 0.69666,-0.83884 0.69666,-0.83884 1.26537,-2.2606 0.56871,-1.43598 0.58292,-1.43598 0.99523,-2.88618 0.44075,-1.46441 2.92883,-10.29356 0.5687,-1.91938 0.55449,-2.5023 v -0.58292 -0.41231 l -0.38387,-0.71088 -0.36966,-0.28436 -0.38388,-0.29857 -1.5355,-0.34122 -1.15163,-0.0711 0.27014,-0.89571 h 10.67743 l -0.27013,0.89571 h -0.93837 l -1.36489,0.18483 -0.41231,0.18483 -0.41231,0.17061 -0.7251,0.65401 -0.31279,0.46918 -0.31279,0.46919 -0.69666,1.81985 -0.38387,1.36489 -3.78189,13.09443 -0.90993,3.19897 -1.63503,4.47855 -0.71088,1.30802 -0.7251,1.30802 -2.21794,2.1753 -1.49285,0.86727 -1.49286,0.88149 -3.71079,0.8815 h -2.21795 -2.54496 l -4.12311,-1.43598 -1.56394,-1.43598 -1.56393,-1.42176 -1.56394,-3.28428 v -1.84829 -0.72509 l 0.14217,-1.56394 0.14218,-0.83884 0.0995,-0.54027 0.4834,-1.89095 0.3981,-1.33645 3.38379,-11.44519 0.35544,-1.25115 0.34122,-1.81985 v -0.58293 -0.45496 l -0.35544,-0.7251 -0.35544,-0.25592 -0.34122,-0.2417 -1.79142,-0.34122 -1.42176,-0.0711 z"
     id="path80"
     style="fill:#000000;fill-rule:evenodd;stroke-width:2.84352;stroke-miterlimit:4;stroke-dasharray:none" />
  <path
     d="m 433.48203,167.55521 h 16.45082 l -0.32934,1.03744 -1.25152,0.0329 -1.8114,0.23054 -0.54342,0.21408 -0.52695,0.21407 -0.92217,0.74103 -0.37875,0.52695 -0.39522,0.54343 -0.79043,1.97607 -0.41168,1.44912 -4.29796,14.54062 -0.57636,1.94314 -0.67516,2.55243 -0.0988,0.60929 -0.18114,0.82337 -0.16467,1.56439 v 0.72456 1.58086 l 1.33385,2.66771 1.33385,1.1033 1.35032,1.08685 3.58987,1.08684 h 2.25602 1.48205 l 2.60184,-0.52696 1.13624,-0.54342 1.11977,-0.54342 1.94315,-1.49852 0.79043,-0.97157 0.80689,-0.97157 1.48206,-2.63477 0.65869,-1.64673 0.67516,-1.6632 1.15271,-3.35932 0.49402,-1.69613 3.40873,-11.90586 0.64222,-2.22308 0.6587,-2.91471 v -0.67516 -0.46109 l -0.44462,-0.82336 -0.44462,-0.32935 -0.42815,-0.34581 -1.77847,-0.41168 -1.33385,-0.0659 0.31288,-1.03744 h 12.36694 l -0.31288,1.03744 h -1.10331 l -1.56439,0.21407 -0.47755,0.19761 -0.49402,0.21407 -0.83983,0.7575 -0.34582,0.54342 -0.36228,0.54342 -0.80689,2.10781 -0.44462,1.5644 -4.3803,15.18284 -1.05391,3.68868 -1.89374,5.20366 -0.83983,1.51499 -0.82336,1.49853 -2.5689,2.53596 -1.72907,1.0045 -1.74553,1.02098 -4.2815,1.02097 h -2.56889 -2.96412 l -4.75905,-1.6632 -1.8114,-1.66319 -1.8114,-1.6632 -1.8114,-3.78748 v -2.14075 -0.8563 l 0.16467,-1.79493 0.14821,-0.97157 0.11527,-0.62576 0.57635,-2.19015 0.46109,-1.54792 3.91921,-13.27264 0.41168,-1.43266 0.39522,-2.10781 v -0.67516 -0.54342 l -0.41168,-0.82337 -0.41168,-0.29641 -0.41169,-0.29641 -2.05841,-0.37875 -1.64673,-0.0823 z"
     id="path82"
     style="fill:#000000;fill-rule:evenodd;stroke-width:3.29346;stroke-miterlimit:4;stroke-dasharray:none" />
  <path
     d="m 482.12641,199.32062 -4.44617,15.59453 -0.51048,2.09134 -0.0494,0.14821 -0.0329,0.26347 v 0.0988 0.16467 l 0.0823,0.27995 0.0823,0.13173 0.0659,0.0823 0.16468,0.0988 h 0.0988 0.0988 l 0.27995,-0.16467 0.16467,-0.16467 0.31288,-0.31288 0.83983,-1.35032 0.52695,-1.03744 0.79043,0.54342 -0.67515,1.16918 -1.36679,1.7126 -0.70809,0.55989 -0.7081,0.55988 -1.31738,0.55989 h -0.59282 -0.41169 l -0.64222,-0.24701 -0.23054,-0.24701 -0.23054,-0.24701 -0.23055,-0.72456 v -0.46108 -0.55989 l 0.24701,-1.48206 0.26348,-0.92216 0.49402,-1.69613 -1.64673,1.9596 -3.02998,2.73357 -1.39972,0.77397 -0.98804,0.55988 -1.94314,0.55989 h -0.97157 -0.9057 l -1.59733,-0.69162 -0.65869,-0.67516 -0.67516,-0.69163 -0.65869,-1.87727 v -1.20211 -1.79494 l 1.18564,-3.80394 1.18565,-1.99255 1.16917,-2.00901 3.01352,-3.19465 1.82787,-1.20211 1.41619,-0.93864 2.70063,-0.9551 h 1.25152 0.75749 l 1.26798,0.32934 0.49402,0.34582 0.51049,0.32934 0.7575,1.11978 0.26347,0.77396 0.7575,-2.35482 z m -8.44772,1.18564 h -0.8069 l -1.69613,0.67516 -0.88923,0.67516 -1.28445,0.9551 -2.25602,2.84885 -0.98804,1.87727 -0.98804,1.87727 -1.0045,3.40873 v 1.53146 0.75749 l 0.44462,1.21858 0.44461,0.44462 0.44462,0.44462 1.00451,0.44461 h 0.57635 1.41619 l 3.06291,-1.8114 1.6632,-1.8114 2.02548,-2.42069 1.95961,-4.95666 -0.0659,-2.53596 v -0.95511 l -0.41168,-1.38325 -0.41169,-0.42815 -0.41168,-0.42815 -1.11978,-0.42815 z"
     id="path92"
     style="fill:#000000;fill-rule:evenodd;stroke-width:3.29346;stroke-miterlimit:4;stroke-dasharray:none" />
  <path
     d="m 70.565011,130.5844 -6.96663,23.92825 -0.28435,0.98102 -0.28436,1.27959 v 0.29857 0.0853 l 0.0569,0.17061 0.0569,0.0711 0.0569,0.0853 0.11375,0.0711 h 0.0569 0.0853 l 0.21327,-0.11375 0.11374,-0.0995 0.22748,-0.22748 0.75353,-1.18006 0.52606,-0.95258 0.68244,0.42652 -0.58292,0.9668 -1.18006,1.52129 -0.59714,0.54027 -0.58293,0.54027 -1.12319,0.54027 h -0.51183 -0.27014 l -0.4834,-0.2417 -0.21326,-0.22748 -0.19905,-0.2417 -0.19904,-0.68245 v -0.42653 -0.5687 l 0.29857,-1.52129 0.28435,-0.95258 0.78197,-2.5023 -1.59238,2.23217 -2.90039,3.09944 -1.29381,0.85305 -0.90992,0.59714 -1.72034,0.58293 h -0.82462 -0.82462 l -1.46441,-0.66823 -0.61136,-0.66823 -0.62558,-0.66823 -0.62557,-1.81985 v -1.15163 -1.47863 l 1.02367,-3.15631 1.02366,-1.67768 1.02367,-1.67768 2.70135,-2.72979 1.67768,-1.0521 1.32224,-0.83884 2.43121,-0.83884 h 1.10898 0.58292 l 1.00945,0.21326 0.41231,0.22749 0.42653,0.21326 0.82462,0.7251 0.41231,0.51183 1.89095,-6.58276 0.15639,-0.55448 0.25592,-0.8815 0.0853,-0.327 0.12796,-0.39809 0.11374,-0.66823 v -0.25592 -0.21326 l -0.14217,-0.35544 -0.1564,-0.12796 -0.19904,-0.17061 -0.54027,-0.17062 h -0.32701 -0.22748 l -0.75353,0.0569 -0.54027,0.0711 v -0.71088 z m -7.67751,14.31714 v -0.63979 l -0.3981,-1.02367 -0.41231,-0.38388 -0.39809,-0.38387 -1.03789,-0.38388 h -0.62557 -1.37911 l -2.88618,2.06156 -1.49285,2.06155 -1.50707,2.06156 -1.49285,3.9525 v 1.89094 0.75353 l 0.38388,1.13741 0.38387,0.38388 0.38388,0.39809 0.90993,0.38388 h 0.54027 1.2085 l 2.85774,-2.23217 1.66346,-2.23216 1.64924,-2.23217 1.64925,-3.90985 z"
     id="path94"
     style="fill:#000000;fill-rule:evenodd;stroke-width:2.84352;stroke-miterlimit:4;stroke-dasharray:none" />
  <g
     id="g5872"
     transform="matrix(4.6359447,0,0,4.636266,-5832.3769,475.55416)"
     style="stroke-width:1.22286;stroke-miterlimit:4;stroke-dasharray:none">
    <path
       inkscape:connector-curvature="0"
       style="fill:none;stroke:#000000;stroke-width:1.22286;stroke-linecap:butt;stroke-linejoin:miter;stroke-miterlimit:4;stroke-dasharray:none;stroke-opacity:1"
       d="m 1296.75,-87.58335 h -10.5"
       id="path2757"
       sodipodi:nodetypes="cc" />
    <path
       inkscape:connector-curvature="0"
       style="fill:none;stroke:#000000;stroke-width:1.22286;stroke-linecap:butt;stroke-linejoin:miter;stroke-miterlimit:4;stroke-dasharray:none;stroke-opacity:1"
       d="m 1291.5,-82.33335 v -10.5"
       id="path2759"
       sodipodi:nodetypes="cc" />
    <path
       sodipodi:nodetypes="cc"
       id="path2771"
       d="m 1296.75,-59.58335 h -10.5"
       style="fill:none;stroke:#000000;stroke-width:1.22286;stroke-linecap:butt;stroke-linejoin:miter;stroke-miterlimit:4;stroke-dasharray:none;stroke-opacity:1"
       inkscape:connector-curvature="0" />
    <path
       inkscape:connector-curvature="0"
       id="path5820"
       d="m 1274,-87.58335 h 7"
       style="opacity:1;fill:none;fill-opacity:1;fill-rule:nonzero;stroke:#000000;stroke-width:1.22286;stroke-linecap:round;stroke-linejoin:miter;stroke-miterlimit:4;stroke-dasharray:none;stroke-dashoffset:0;stroke-opacity:1" />
    <path
       inkscape:connector-curvature="0"
       id="path5822"
       d="m 1274,-59.58335 h 7"
       style="opacity:1;fill:none;fill-opacity:1;fill-rule:nonzero;stroke:#000000;stroke-width:1.22286;stroke-linecap:round;stroke-linejoin:miter;stroke-miterlimit:4;stroke-dasharray:none;stroke-dashoffset:0;stroke-opacity:1" />
    <path
       inkscape:connector-curvature="0"
       id="path5824"
       d="m 1281,-101.58335 v 56 l 56,-28 z"
       style="opacity:1;fill:none;fill-opacity:1;fill-rule:nonzero;stroke:#000000;stroke-width:1.22286;stroke-linecap:round;stroke-linejoin:miter;stroke-miterlimit:4;stroke-dasharray:none;stroke-dashoffset:0;stroke-opacity:1" />
    <path
       sodipodi:nodetypes="cc"
       inkscape:connector-curvature="0"
       id="path5826"
       d="m 1337,-73.58335 h 7"
       style="opacity:1;fill:none;fill-opacity:1;fill-rule:nonzero;stroke:#000000;stroke-width:1.22286;stroke-linecap:round;stroke-linejoin:miter;stroke-miterlimit:4;stroke-dasharray:none;stroke-dashoffset:0;stroke-opacity:1" />
  </g>
  <path
     style="fill:none;fill-opacity:0.346614;stroke:#000000;stroke-width:5.66929;stroke-linecap:square;stroke-miterlimit:4;stroke-dasharray:none;stroke-opacity:1;stop-color:#000000"
     d="M 73.816891,199.30986 H -2.3606585"
     id="path4171"
     sodipodi:nodetypes="cc" />
  <path
     style="fill:none;fill-opacity:0.346614;stroke:#000000;stroke-width:5.66929;stroke-linecap:square;stroke-miterlimit:4;stroke-dasharray:none;stroke-opacity:1;stop-color:#000000"
     d="M 73.816891,69.494444 H -2.3606585"
     id="path1111"
     sodipodi:nodetypes="cc" />
  <circle
     style="fill:#000000;fill-opacity:1;stroke:#000000;stroke-width:1.6252;stroke-linecap:square;stroke-dasharray:4.87559, 1.6252;stop-color:#000000"
     id="path1168"
     cx="-2.3606629"
     cy="69.494453"
     r="10.601708" />
  <circle
     style="fill:#000000;fill-opacity:1;stroke:#000000;stroke-width:1.6252;stroke-linecap:square;stroke-dasharray:4.87559, 1.6252;stop-color:#000000"
     id="circle1390"
     cx="-2.3606629"
     cy="199.30984"
     r="10.601708" />
  <circle
     style="fill:#000000;fill-opacity:1;stroke:#000000;stroke-width:1.6252;stroke-linecap:square;stroke-dasharray:4.87559, 1.6252;stop-color:#000000"
     id="circle1392"
     cx="408.93451"
     cy="134.40216"
     r="10.601708" />
  <path
     style="fill:#000000;fill-opacity:1;stroke:#000000;stroke-width:2;stroke-linecap:square;stroke-miterlimit:4;stroke-dasharray:6, 2;stroke-dashoffset:0;marker-end:url(#Arrow1Lend);stop-color:#000000"
     d="M -2.3606585,97.033724 V 171.42363"
     id="path1427" />
  <path
     style="fill:#000000;fill-opacity:1;stroke:#000000;stroke-width:2;stroke-linecap:square;stroke-miterlimit:4;stroke-dasharray:6, 2;stroke-dashoffset:0;marker-end:url(#Arrow1Lend);stop-color:#000000"
     d="m 408.93381,152.64034 v 74.3899"
     id="path1857" />
</svg>
