<?xml version="1.0" encoding="UTF-8" standalone="no"?>
<!-- Created with Inkscape (http://www.inkscape.org/) -->

<svg
   width="645.45898mm"
   height="361.40085mm"
   viewBox="0 0 645.45899 361.40086"
   version="1.1"
   id="svg62207"
   inkscape:version="1.1.1 (3bf5ae0d25, 2021-09-20, custom)"
   sodipodi:docname="current_source.svg"
   xmlns:inkscape="http://www.inkscape.org/namespaces/inkscape"
   xmlns:sodipodi="http://sodipodi.sourceforge.net/DTD/sodipodi-0.dtd"
   xmlns="http://www.w3.org/2000/svg"
   xmlns:svg="http://www.w3.org/2000/svg">
  <sodipodi:namedview
     id="namedview62209"
     pagecolor="#ffffff"
     bordercolor="#666666"
     borderopacity="1.0"
     inkscape:pageshadow="2"
     inkscape:pageopacity="0.0"
     inkscape:pagecheckerboard="0"
     inkscape:document-units="mm"
     showgrid="false"
     showguides="true"
     inkscape:guide-bbox="true"
     inkscape:snap-global="true"
     inkscape:snap-midpoints="true"
     inkscape:zoom="0.32636864"
     inkscape:cx="1338.9767"
     inkscape:cy="356.95832"
     inkscape:window-width="2653"
     inkscape:window-height="2073"
     inkscape:window-x="25"
     inkscape:window-y="52"
     inkscape:window-maximized="1"
     inkscape:current-layer="layer1"
     inkscape:object-paths="true">
    <sodipodi:guide
       position="131.88642,42.726834"
       orientation="1,0"
       id="guide63405" />
    <sodipodi:guide
       position="241.53486,73.038252"
       orientation="0,-1"
       id="guide63407" />
    <sodipodi:guide
       position="111.74778,37.366682"
       orientation="0,-1"
       id="guide68812" />
  </sodipodi:namedview>
  <defs
     id="defs62204">
    <marker
       style="overflow:visible"
       id="Arrow2Lend"
       refX="0"
       refY="0"
       orient="auto"
       inkscape:stockid="Arrow2Lend"
       inkscape:isstock="true">
      <path
         transform="matrix(-1.1,0,0,-1.1,-1.1,0)"
         d="M 8.7185878,4.0337352 -2.2072895,0.01601326 8.7185884,-4.0017078 c -1.7454984,2.3720609 -1.7354408,5.6174519 -6e-7,8.035443 z"
         style="fill:context-stroke;fill-rule:evenodd;stroke:context-stroke;stroke-width:0.625;stroke-linejoin:round"
         id="path43589" />
    </marker>
  </defs>
  <g
     inkscape:label="Layer 1"
     inkscape:groupmode="layer"
     id="layer1"
     transform="translate(359.60172,96.965128)">
    <g
       id="g5872"
       transform="matrix(1.2265936,0,0,-1.226656,-1543.5295,83.967294)"
       style="fill:none;stroke-width:1.22286782;stroke-miterlimit:4;stroke-dasharray:none">
      <path
         inkscape:connector-curvature="0"
         style="fill:none;stroke:#000000;stroke-width:1.22286782;stroke-linecap:butt;stroke-linejoin:miter;stroke-miterlimit:4;stroke-dasharray:none;stroke-opacity:1"
         d="m 1296.75,-87.58335 h -10.5"
         id="path2757"
         sodipodi:nodetypes="cc" />
      <path
         inkscape:connector-curvature="0"
         style="fill:none;stroke:#000000;stroke-width:1.22286782;stroke-linecap:butt;stroke-linejoin:miter;stroke-miterlimit:4;stroke-dasharray:none;stroke-opacity:1"
         d="m 1291.5,-82.33335 v -10.5"
         id="path2759"
         sodipodi:nodetypes="cc" />
      <path
         sodipodi:nodetypes="cc"
         id="path2771"
         d="m 1296.75,-59.58335 h -10.5"
         style="fill:none;stroke:#000000;stroke-width:1.22286782;stroke-linecap:butt;stroke-linejoin:miter;stroke-miterlimit:4;stroke-dasharray:none;stroke-opacity:1"
         inkscape:connector-curvature="0" />
      <path
         inkscape:connector-curvature="0"
         id="path5820"
         d="m 1274,-87.58335 h 7"
         style="opacity:1;fill:none;fill-opacity:1;fill-rule:nonzero;stroke:#000000;stroke-width:1.22286782;stroke-linecap:round;stroke-linejoin:miter;stroke-miterlimit:4;stroke-dasharray:none;stroke-dashoffset:0;stroke-opacity:1" />
      <path
         inkscape:connector-curvature="0"
         id="path5822"
         d="m 1274,-59.58335 h 7"
         style="opacity:1;fill:none;fill-opacity:1;fill-rule:nonzero;stroke:#000000;stroke-width:1.22286782;stroke-linecap:round;stroke-linejoin:miter;stroke-miterlimit:4;stroke-dasharray:none;stroke-dashoffset:0;stroke-opacity:1" />
      <path
         inkscape:connector-curvature="0"
         id="path5824"
         d="m 1281,-101.58335 v 56 l 56,-28 z"
         style="opacity:1;fill:none;fill-opacity:1;fill-rule:nonzero;stroke:#000000;stroke-width:1.22286782;stroke-linecap:round;stroke-linejoin:miter;stroke-miterlimit:4;stroke-dasharray:none;stroke-dashoffset:0;stroke-opacity:1" />
      <path
         sodipodi:nodetypes="cc"
         inkscape:connector-curvature="0"
         id="path5826"
         d="m 1337,-73.58335 h 7"
         style="opacity:1;fill:none;fill-opacity:1;fill-rule:nonzero;stroke:#000000;stroke-width:1.22286782;stroke-linecap:round;stroke-linejoin:miter;stroke-miterlimit:4;stroke-dasharray:none;stroke-dashoffset:0;stroke-opacity:1" />
    </g>
    <path
       style="fill:none;fill-opacity:0.346614;stroke:#000000;stroke-width:1.5;stroke-linecap:square;stroke-miterlimit:4;stroke-dasharray:none;stroke-opacity:1;stop-color:#000000"
       d="M 19.15088,191.40192 H -18.675252"
       id="path4171" />
    <path
       style="fill:none;fill-opacity:0.346614;stroke:#000000;stroke-width:1.5;stroke-linecap:square;stroke-miterlimit:4;stroke-dasharray:none;stroke-opacity:1;stop-color:#000000"
       d="m 105.01244,174.22876 h 24.34573 V 101.82475 H -16.317178 v 55.2308 l 35.468058,1e-5"
       id="path4760"
       sodipodi:nodetypes="cccccc" />
    <path
       style="fill:none;fill-opacity:0.346614;stroke:#000000;stroke-width:1.5;stroke-linecap:square;stroke-miterlimit:4;stroke-dasharray:none;stroke-opacity:1;stop-color:#000000"
       d="m 129.35817,174.22876 h 35.9889"
       id="path6258" />
    <ellipse
       id="path22620"
       style="fill:none;stroke:none;stroke-width:1.5;stroke-miterlimit:4;stroke-dasharray:none"
       cx="165.34706"
       cy="174.22874"
       rx="1.5001874"
       ry="1.5001597" />
    <path
       style="fill:none;fill-opacity:0.346614;stroke:#000000;stroke-width:1.5;stroke-linecap:square;stroke-miterlimit:4;stroke-dasharray:none;stroke-opacity:1;stop-color:#000000"
       d="m 165.34707,174.22876 h 119.0102"
       id="path22655" />
    <path
       style="fill:none;fill-opacity:0.346614;stroke:#000000;stroke-width:1.5;stroke-linecap:square;stroke-miterlimit:4;stroke-dasharray:none;stroke-opacity:1;stop-color:#000000"
       d="M 197.25797,174.22876 V 8.3266569 h -64.09359"
       id="path22868" />
    <path
       inkscape:connector-curvature="0"
       style="fill:none;stroke:#000000;stroke-width:1.5;stroke-linecap:butt;stroke-linejoin:miter;stroke-miterlimit:4;stroke-dasharray:none;stroke-opacity:1"
       d="m 105.26252,8.3267299 h 12.87919"
       id="path22950"
       sodipodi:nodetypes="cc" />
    <path
       inkscape:connector-curvature="0"
       style="fill:none;stroke:#000000;stroke-width:1.5;stroke-linecap:butt;stroke-linejoin:miter;stroke-miterlimit:4;stroke-dasharray:none;stroke-opacity:1"
       d="M 111.7021,1.8867788 V 14.766681"
       id="path22952"
       sodipodi:nodetypes="cc" />
    <path
       sodipodi:nodetypes="cc"
       id="path22954"
       d="m 105.26252,-26.019675 h 12.87919"
       style="fill:none;stroke:#000000;stroke-width:1.5;stroke-linecap:butt;stroke-linejoin:miter;stroke-miterlimit:4;stroke-dasharray:none;stroke-opacity:1"
       inkscape:connector-curvature="0" />
    <path
       inkscape:connector-curvature="0"
       id="path22956"
       d="M 133.16743,8.3267299 H 124.5813"
       style="fill:none;fill-opacity:1;fill-rule:nonzero;stroke:#000000;stroke-width:1.5;stroke-linecap:round;stroke-linejoin:miter;stroke-miterlimit:4;stroke-dasharray:none;stroke-dashoffset:0;stroke-opacity:1" />
    <path
       inkscape:connector-curvature="0"
       id="path22958"
       d="M 133.16743,-26.019675 H 124.5813"
       style="fill:none;fill-opacity:1;fill-rule:nonzero;stroke:#000000;stroke-width:1.5;stroke-linecap:round;stroke-linejoin:miter;stroke-miterlimit:4;stroke-dasharray:none;stroke-dashoffset:0;stroke-opacity:1" />
    <path
       inkscape:connector-curvature="0"
       id="path22960"
       d="M 124.5813,25.499933 V -43.192878 L 55.892273,-8.8464729 Z"
       style="fill:none;fill-opacity:1;fill-rule:nonzero;stroke:#000000;stroke-width:1.5;stroke-linecap:round;stroke-linejoin:miter;stroke-miterlimit:4;stroke-dasharray:none;stroke-dashoffset:0;stroke-opacity:1" />
    <path
       sodipodi:nodetypes="cc"
       inkscape:connector-curvature="0"
       id="path22962"
       d="m 55.892273,-8.8464729 h -8.58613"
       style="fill:none;fill-opacity:1;fill-rule:nonzero;stroke:#000000;stroke-width:1.5;stroke-linecap:round;stroke-linejoin:miter;stroke-miterlimit:4;stroke-dasharray:none;stroke-dashoffset:0;stroke-opacity:1" />
    <path
       inkscape:connector-curvature="0"
       style="fill:none;stroke:#000000;stroke-width:1.5;stroke-linecap:butt;stroke-linejoin:miter;stroke-miterlimit:4;stroke-dasharray:none;stroke-opacity:1"
       d="m 111.7021,-32.459626 v 12.879902"
       id="path23065"
       sodipodi:nodetypes="cc" />
    <path
       style="fill:none;fill-opacity:0.346614;stroke:#000000;stroke-width:1.5;stroke-linecap:square;stroke-miterlimit:4;stroke-dasharray:none;stroke-opacity:1;stop-color:#000000"
       d="M 133.16743,-26.019675 H 260.49752"
       id="path23213" />
    <path
       style="fill:none;fill-opacity:0.346614;stroke:#000000;stroke-width:1.5;stroke-linecap:square;stroke-miterlimit:4;stroke-dasharray:none;stroke-opacity:1;stop-color:#000000"
       d="M 47.306143,-8.8464729 H -77.011317 V 79.831187 m 0,61.406173 v 50.16483"
       id="path23328"
       sodipodi:nodetypes="ccccc" />
    <g
       id="g31182"
       transform="matrix(1.2839903,0,0,1.2812201,-567.81921,-12.855531)"
       style="fill:none;stroke-width:1.1694954;stroke-miterlimit:4;stroke-dasharray:none">
      <path
         inkscape:connector-curvature="0"
         id="path31174"
         d="m 211.93697,201.2579 h -42"
         style="display:inline;fill:none;stroke:#000000;stroke-width:1.1694954;stroke-linecap:square;stroke-linejoin:miter;stroke-miterlimit:4;stroke-dasharray:none;stroke-opacity:1"
         sodipodi:nodetypes="cc" />
      <path
         inkscape:connector-curvature="0"
         id="path31176"
         d="m 190.93697,187.2579 v 14"
         style="display:inline;fill:none;stroke:#000000;stroke-width:1.1694954;stroke-linecap:round;stroke-linejoin:miter;stroke-miterlimit:4;stroke-dasharray:none;stroke-opacity:1"
         sodipodi:nodetypes="cc" />
      <path
         inkscape:connector-curvature="0"
         id="path31178"
         d="m 204.93697,208.2579 h -28"
         style="display:inline;fill:none;stroke:#000000;stroke-width:1.1694954;stroke-linecap:square;stroke-linejoin:miter;stroke-miterlimit:4;stroke-dasharray:none;stroke-opacity:1"
         sodipodi:nodetypes="cc" />
      <path
         inkscape:connector-curvature="0"
         id="path31180"
         d="m 197.93697,215.2579 h -14"
         style="display:inline;fill:none;stroke:#000000;stroke-width:1.1694954;stroke-linecap:square;stroke-linejoin:miter;stroke-miterlimit:4;stroke-dasharray:none;stroke-opacity:1"
         sodipodi:nodetypes="cc" />
    </g>
    <path
       style="fill:none;fill-opacity:0.346614;stroke:#000000;stroke-width:1.5;stroke-linecap:square;stroke-miterlimit:4;stroke-dasharray:none;stroke-opacity:1;stop-color:#000000"
       d="M -18.671758,191.40219 H -77.011317"
       id="path33290" />
    <path
       style="fill:none;fill-opacity:0.346614;stroke:#000000;stroke-width:1.5;stroke-linecap:square;stroke-miterlimit:4;stroke-dasharray:none;stroke-opacity:1;stop-color:#000000"
       d="m -118.06688,191.39215 h 41.055563"
       id="path33485" />
    <rect
       style="fill:none;fill-opacity:0.346614;stroke:#000000;stroke-width:1.5;stroke-linecap:square;stroke-miterlimit:4;stroke-dasharray:none;stroke-opacity:1;stop-color:#000000"
       id="rect37388"
       width="22.309841"
       height="61.406166"
       x="-88.252701"
       y="79.831192" />
    <g
       style="fill:#000000;fill-opacity:1;stroke-width:0.62117938;stroke-miterlimit:4;stroke-dasharray:none"
       id="g37082"
       transform="matrix(2.4147836,0,0,2.4147392,-148.27063,-360.60252)">
      <g
         transform="translate(148.712,134.765)"
         id="g37080"
         style="stroke-width:0.62117938;stroke-miterlimit:4;stroke-dasharray:none">
        <path
           style="stroke:none;stroke-width:0.62117938;stroke-miterlimit:4;stroke-dasharray:none"
           d="M 6.265625,-5.671875 C 6.75,-6.453125 7.171875,-6.484375 7.53125,-6.5 c 0.125,-0.015625 0.140625,-0.171875 0.140625,-0.1875 0,-0.078125 -0.0625,-0.125 -0.140625,-0.125 -0.25,0 -0.546875,0.03125 -0.8125,0.03125 -0.328125,0 -0.671875,-0.03125 -0.984375,-0.03125 -0.0625,0 -0.1875,0 -0.1875,0.1875 0,0.109375 0.078125,0.125 0.15625,0.125 0.265625,0.015625 0.453125,0.125 0.453125,0.328125 0,0.15625 -0.140625,0.375 -0.140625,0.375 l -3.0625,4.875 -0.6875,-5.28125 C 2.265625,-6.375 2.5,-6.5 2.953125,-6.5 c 0.140625,0 0.25,0 0.25,-0.203125 0,-0.078125 -0.078125,-0.109375 -0.125,-0.109375 -0.40625,0 -0.828125,0.03125 -1.25,0.03125 -0.171875,0 -0.359375,0 -0.546875,0 -0.171875,0 -0.359375,-0.03125 -0.53125,-0.03125 -0.078125,0 -0.1875,0 -0.1875,0.1875 0,0.125 0.078125,0.125 0.25,0.125 0.546875,0 0.5625,0.09375 0.59375,0.34375 L 2.1875,-0.015625 C 2.21875,0.1875 2.265625,0.21875 2.390625,0.21875 c 0.15625,0 0.203125,-0.046875 0.28125,-0.171875 z m 0,0"
           id="path37078" />
      </g>
    </g>
    <g
       style="fill:#000000;fill-opacity:1;stroke-width:0.62117938;stroke-miterlimit:4;stroke-dasharray:none"
       id="g37096"
       transform="matrix(2.4147836,0,0,2.4147392,-148.27063,-360.60252)">
      <g
         transform="translate(154.524,136.259)"
         id="g37086"
         style="stroke-width:0.62117938;stroke-miterlimit:4;stroke-dasharray:none">
        <path
           style="stroke:none;stroke-width:0.62117938;stroke-miterlimit:4;stroke-dasharray:none"
           d="m 2.703125,-2.78125 c -0.125,0.0625 -0.1875,0.171875 -0.1875,0.3125 0,0.1875 0.125,0.328125 0.328125,0.328125 0.1875,0 0.328125,-0.125 0.328125,-0.34375 0,-0.625 -0.96875,-0.625 -1.15625,-0.625 -1.046875,0 -1.6875,0.796875 -1.6875,1.609375 0,0.875 0.734375,1.5625 1.65625,1.5625 1.03125,0 1.28125,-0.8125 1.28125,-0.90625 0,-0.078125 -0.09375,-0.078125 -0.125,-0.078125 -0.09375,0 -0.09375,0.015625 -0.125,0.125 C 2.859375,-0.375 2.484375,-0.15625 2.0625,-0.15625 c -0.484375,0 -1.109375,-0.359375 -1.109375,-1.359375 0,-0.875 0.4375,-1.375 1.078125,-1.375 0.09375,0 0.421875,0 0.671875,0.109375 z m 0,0"
           id="path37084" />
      </g>
      <g
         transform="translate(158.066,136.259)"
         id="g37090"
         style="stroke-width:0.62117938;stroke-miterlimit:4;stroke-dasharray:none">
        <path
           style="stroke:none;stroke-width:0.62117938;stroke-miterlimit:4;stroke-dasharray:none"
           d="m 5.734375,-2.109375 c 0,-0.609375 -0.3125,-0.96875 -1.046875,-0.96875 -0.5625,0 -0.9375,0.296875 -1.125,0.65625 -0.140625,-0.5 -0.515625,-0.65625 -1.015625,-0.65625 -0.578125,0 -0.9375,0.3125 -1.140625,0.6875 v -0.6875 L 0.375,-3 v 0.25 c 0.46875,0 0.53125,0.046875 0.53125,0.390625 v 1.8125 C 0.90625,-0.25 0.828125,-0.25 0.375,-0.25 V 0 C 0.390625,0 0.875,-0.03125 1.171875,-0.03125 1.421875,-0.03125 1.90625,0 1.96875,0 v -0.25 c -0.453125,0 -0.515625,0 -0.515625,-0.296875 V -1.8125 c 0,-0.71875 0.578125,-1.0625 1.03125,-1.0625 0.484375,0 0.546875,0.375 0.546875,0.734375 v 1.59375 C 3.03125,-0.25 2.96875,-0.25 2.515625,-0.25 V 0 C 2.53125,0 3.015625,-0.03125 3.3125,-0.03125 3.5625,-0.03125 4.046875,0 4.109375,0 v -0.25 c -0.453125,0 -0.515625,0 -0.515625,-0.296875 V -1.8125 c 0,-0.71875 0.578125,-1.0625 1.03125,-1.0625 0.484375,0 0.546875,0.375 0.546875,0.734375 v 1.59375 C 5.171875,-0.25 5.109375,-0.25 4.65625,-0.25 V 0 c 0.015625,0 0.5,-0.03125 0.796875,-0.03125 C 5.703125,-0.03125 6.1875,0 6.25,0 v -0.25 c -0.453125,0 -0.515625,0 -0.515625,-0.296875 z m 0,0"
           id="path37088" />
      </g>
      <g
         transform="translate(164.611,136.259)"
         id="g37094"
         style="stroke-width:0.62117938;stroke-miterlimit:4;stroke-dasharray:none">
        <path
           style="stroke:none;stroke-width:0.62117938;stroke-miterlimit:4;stroke-dasharray:none"
           d="m 2.484375,-4.765625 v 0.25 C 2.953125,-4.515625 3,-4.453125 3,-4.125 v 1.453125 c -0.25,-0.25 -0.59375,-0.40625 -0.96875,-0.40625 -0.9375,0 -1.703125,0.703125 -1.703125,1.578125 0,0.875 0.734375,1.5625 1.609375,1.5625 0.578125,0 0.921875,-0.296875 1.03125,-0.421875 V 0.0625 L 4.046875,0 V -0.25 C 3.578125,-0.25 3.53125,-0.296875 3.53125,-0.640625 V -4.84375 Z m 0.484375,4.03125 C 2.796875,-0.40625 2.4375,-0.125 1.984375,-0.125 1.59375,-0.125 1.3125,-0.359375 1.171875,-0.5625 1.03125,-0.765625 0.953125,-1.046875 0.953125,-1.484375 c 0,-0.171875 0,-0.6875 0.28125,-1.015625 0.28125,-0.3125 0.625,-0.375 0.828125,-0.375 0.328125,0 0.640625,0.15625 0.828125,0.40625 0.078125,0.109375 0.078125,0.109375 0.078125,0.25 z m 0,0"
           id="path37092" />
      </g>
    </g>
    <g
       style="fill:#000000;fill-opacity:1;stroke-width:0.62117938;stroke-miterlimit:4;stroke-dasharray:none"
       id="g37146"
       transform="matrix(2.4147836,0,0,2.4147392,-568.33359,-344.65569)">
      <g
         transform="translate(210.979,134.765)"
         id="g37144"
         style="stroke-width:0.62117938;stroke-miterlimit:4;stroke-dasharray:none">
        <path
           style="stroke:none;stroke-width:0.62117938;stroke-miterlimit:4;stroke-dasharray:none"
           d="M 6.265625,-5.671875 C 6.75,-6.453125 7.171875,-6.484375 7.53125,-6.5 c 0.125,-0.015625 0.140625,-0.171875 0.140625,-0.1875 0,-0.078125 -0.0625,-0.125 -0.140625,-0.125 -0.25,0 -0.546875,0.03125 -0.8125,0.03125 -0.328125,0 -0.671875,-0.03125 -0.984375,-0.03125 -0.0625,0 -0.1875,0 -0.1875,0.1875 0,0.109375 0.078125,0.125 0.15625,0.125 0.265625,0.015625 0.453125,0.125 0.453125,0.328125 0,0.15625 -0.140625,0.375 -0.140625,0.375 l -3.0625,4.875 -0.6875,-5.28125 C 2.265625,-6.375 2.5,-6.5 2.953125,-6.5 c 0.140625,0 0.25,0 0.25,-0.203125 0,-0.078125 -0.078125,-0.109375 -0.125,-0.109375 -0.40625,0 -0.828125,0.03125 -1.25,0.03125 -0.171875,0 -0.359375,0 -0.546875,0 -0.171875,0 -0.359375,-0.03125 -0.53125,-0.03125 -0.078125,0 -0.1875,0 -0.1875,0.1875 0,0.125 0.078125,0.125 0.25,0.125 0.546875,0 0.5625,0.09375 0.59375,0.34375 L 2.1875,-0.015625 C 2.21875,0.1875 2.265625,0.21875 2.390625,0.21875 c 0.15625,0 0.203125,-0.046875 0.28125,-0.171875 z m 0,0"
           id="path37142" />
      </g>
    </g>
    <g
       style="fill:#000000;fill-opacity:1;stroke-width:0.62117938;stroke-miterlimit:4;stroke-dasharray:none"
       id="g37160"
       transform="matrix(2.4147836,0,0,2.4147392,-568.33359,-344.65569)">
      <g
         transform="translate(216.79,136.259)"
         id="g37150"
         style="stroke-width:0.62117938;stroke-miterlimit:4;stroke-dasharray:none">
        <path
           style="stroke:none;stroke-width:0.62117938;stroke-miterlimit:4;stroke-dasharray:none"
           d="m 2.703125,-2.78125 c -0.125,0.0625 -0.1875,0.171875 -0.1875,0.3125 0,0.1875 0.125,0.328125 0.328125,0.328125 0.1875,0 0.328125,-0.125 0.328125,-0.34375 0,-0.625 -0.96875,-0.625 -1.15625,-0.625 -1.046875,0 -1.6875,0.796875 -1.6875,1.609375 0,0.875 0.734375,1.5625 1.65625,1.5625 1.03125,0 1.28125,-0.8125 1.28125,-0.90625 0,-0.078125 -0.09375,-0.078125 -0.125,-0.078125 -0.09375,0 -0.09375,0.015625 -0.125,0.125 C 2.859375,-0.375 2.484375,-0.15625 2.0625,-0.15625 c -0.484375,0 -1.109375,-0.359375 -1.109375,-1.359375 0,-0.875 0.4375,-1.375 1.078125,-1.375 0.09375,0 0.421875,0 0.671875,0.109375 z m 0,0"
           id="path37148" />
      </g>
      <g
         transform="translate(220.332,136.259)"
         id="g37154"
         style="stroke-width:0.62117938;stroke-miterlimit:4;stroke-dasharray:none">
        <path
           style="stroke:none;stroke-width:0.62117938;stroke-miterlimit:4;stroke-dasharray:none"
           d="m 5.734375,-2.109375 c 0,-0.609375 -0.3125,-0.96875 -1.046875,-0.96875 -0.5625,0 -0.9375,0.296875 -1.125,0.65625 -0.140625,-0.5 -0.515625,-0.65625 -1.015625,-0.65625 -0.578125,0 -0.9375,0.3125 -1.140625,0.6875 v -0.6875 L 0.375,-3 v 0.25 c 0.46875,0 0.53125,0.046875 0.53125,0.390625 v 1.8125 C 0.90625,-0.25 0.828125,-0.25 0.375,-0.25 V 0 C 0.390625,0 0.875,-0.03125 1.171875,-0.03125 1.421875,-0.03125 1.90625,0 1.96875,0 v -0.25 c -0.453125,0 -0.515625,0 -0.515625,-0.296875 V -1.8125 c 0,-0.71875 0.578125,-1.0625 1.03125,-1.0625 0.484375,0 0.546875,0.375 0.546875,0.734375 v 1.59375 C 3.03125,-0.25 2.96875,-0.25 2.515625,-0.25 V 0 C 2.53125,0 3.015625,-0.03125 3.3125,-0.03125 3.5625,-0.03125 4.046875,0 4.109375,0 v -0.25 c -0.453125,0 -0.515625,0 -0.515625,-0.296875 V -1.8125 c 0,-0.71875 0.578125,-1.0625 1.03125,-1.0625 0.484375,0 0.546875,0.375 0.546875,0.734375 v 1.59375 C 5.171875,-0.25 5.109375,-0.25 4.65625,-0.25 V 0 c 0.015625,0 0.5,-0.03125 0.796875,-0.03125 C 5.703125,-0.03125 6.1875,0 6.25,0 v -0.25 c -0.453125,0 -0.515625,0 -0.515625,-0.296875 z m 0,0"
           id="path37152" />
      </g>
      <g
         transform="translate(226.877,136.259)"
         id="g37158"
         style="stroke-width:0.62117938;stroke-miterlimit:4;stroke-dasharray:none">
        <path
           style="stroke:none;stroke-width:0.62117938;stroke-miterlimit:4;stroke-dasharray:none"
           d="m 2.484375,-4.765625 v 0.25 C 2.953125,-4.515625 3,-4.453125 3,-4.125 v 1.453125 c -0.25,-0.25 -0.59375,-0.40625 -0.96875,-0.40625 -0.9375,0 -1.703125,0.703125 -1.703125,1.578125 0,0.875 0.734375,1.5625 1.609375,1.5625 0.578125,0 0.921875,-0.296875 1.03125,-0.421875 V 0.0625 L 4.046875,0 V -0.25 C 3.578125,-0.25 3.53125,-0.296875 3.53125,-0.640625 V -4.84375 Z m 0.484375,4.03125 C 2.796875,-0.40625 2.4375,-0.125 1.984375,-0.125 1.59375,-0.125 1.3125,-0.359375 1.171875,-0.5625 1.03125,-0.765625 0.953125,-1.046875 0.953125,-1.484375 c 0,-0.171875 0,-0.6875 0.28125,-1.015625 0.28125,-0.3125 0.625,-0.375 0.828125,-0.375 0.328125,0 0.640625,0.15625 0.828125,0.40625 0.078125,0.109375 0.078125,0.109375 0.078125,0.25 z m 0,0"
           id="path37156" />
      </g>
    </g>
    <g
       style="fill:#000000;fill-opacity:1;stroke-width:0.62117938;stroke-miterlimit:4;stroke-dasharray:none"
       id="g37166"
       transform="matrix(2.4147836,0,0,2.4147392,-568.33359,-344.65569)">
      <g
         transform="translate(233.99,134.765)"
         id="g37164"
         style="stroke-width:0.62117938;stroke-miterlimit:4;stroke-dasharray:none">
        <path
           style="stroke:none;stroke-width:0.62117938;stroke-miterlimit:4;stroke-dasharray:none"
           d="m 4.078125,-2.296875 h 2.78125 C 7,-2.296875 7.1875,-2.296875 7.1875,-2.5 7.1875,-2.6875 7,-2.6875 6.859375,-2.6875 h -2.78125 v -2.796875 c 0,-0.140625 0,-0.328125 -0.203125,-0.328125 -0.203125,0 -0.203125,0.1875 -0.203125,0.328125 V -2.6875 h -2.78125 c -0.140625,0 -0.328125,0 -0.328125,0.1875 0,0.203125 0.1875,0.203125 0.328125,0.203125 h 2.78125 V 0.5 c 0,0.140625 0,0.328125 0.203125,0.328125 0.203125,0 0.203125,-0.1875 0.203125,-0.328125 z m 0,0"
           id="path37162" />
      </g>
    </g>
    <g
       style="fill:#000000;fill-opacity:1;stroke-width:0.62117938;stroke-miterlimit:4;stroke-dasharray:none"
       id="g37172"
       transform="matrix(2.4147836,0,0,2.4147392,-568.33359,-344.65569)">
      <g
         transform="translate(243.953,134.765)"
         id="g37170"
         style="stroke-width:0.62117938;stroke-miterlimit:4;stroke-dasharray:none">
        <path
           style="stroke:none;stroke-width:0.62117938;stroke-miterlimit:4;stroke-dasharray:none"
           d="M 6.265625,-5.671875 C 6.75,-6.453125 7.171875,-6.484375 7.53125,-6.5 c 0.125,-0.015625 0.140625,-0.171875 0.140625,-0.1875 0,-0.078125 -0.0625,-0.125 -0.140625,-0.125 -0.25,0 -0.546875,0.03125 -0.8125,0.03125 -0.328125,0 -0.671875,-0.03125 -0.984375,-0.03125 -0.0625,0 -0.1875,0 -0.1875,0.1875 0,0.109375 0.078125,0.125 0.15625,0.125 0.265625,0.015625 0.453125,0.125 0.453125,0.328125 0,0.15625 -0.140625,0.375 -0.140625,0.375 l -3.0625,4.875 -0.6875,-5.28125 C 2.265625,-6.375 2.5,-6.5 2.953125,-6.5 c 0.140625,0 0.25,0 0.25,-0.203125 0,-0.078125 -0.078125,-0.109375 -0.125,-0.109375 -0.40625,0 -0.828125,0.03125 -1.25,0.03125 -0.171875,0 -0.359375,0 -0.546875,0 -0.171875,0 -0.359375,-0.03125 -0.53125,-0.03125 -0.078125,0 -0.1875,0 -0.1875,0.1875 0,0.125 0.078125,0.125 0.25,0.125 0.546875,0 0.5625,0.09375 0.59375,0.34375 L 2.1875,-0.015625 C 2.21875,0.1875 2.265625,0.21875 2.390625,0.21875 c 0.15625,0 0.203125,-0.046875 0.28125,-0.171875 z m 0,0"
           id="path37168" />
      </g>
    </g>
    <g
       style="fill:#000000;fill-opacity:1;stroke-width:0.62117938;stroke-miterlimit:4;stroke-dasharray:none"
       id="g37178"
       transform="matrix(2.4147836,0,0,2.4147392,-568.33359,-344.65569)">
      <g
         transform="translate(249.764,136.259)"
         id="g37176"
         style="stroke-width:0.62117938;stroke-miterlimit:4;stroke-dasharray:none">
        <path
           style="stroke:none;stroke-width:0.62117938;stroke-miterlimit:4;stroke-dasharray:none"
           d="m 1.9375,1.09375 c -0.453125,0 -0.515625,0 -0.515625,-0.296875 v -1.125 C 1.453125,-0.296875 1.78125,0.0625 2.359375,0.0625 3.28125,0.0625 4.0625,-0.625 4.0625,-1.5 c 0,-0.859375 -0.703125,-1.578125 -1.59375,-1.578125 -0.390625,0 -0.796875,0.15625 -1.078125,0.4375 v -0.4375 L 0.34375,-3 v 0.25 c 0.484375,0 0.515625,0.046875 0.515625,0.328125 v 3.21875 c 0,0.296875 -0.0625,0.296875 -0.515625,0.296875 v 0.265625 c 0.015625,0 0.5,-0.03125 0.796875,-0.03125 0.25,0 0.734375,0.015625 0.796875,0.03125 z M 1.421875,-2.328125 C 1.625,-2.671875 2.03125,-2.84375 2.390625,-2.84375 c 0.59375,0 1.046875,0.609375 1.046875,1.34375 0,0.796875 -0.53125,1.375 -1.109375,1.375 -0.625,0 -0.890625,-0.53125 -0.90625,-0.578125 z m 0,0"
           id="path37174" />
      </g>
    </g>
    <g
       style="fill:#000000;fill-opacity:1;stroke-width:0.62117938;stroke-miterlimit:4;stroke-dasharray:none"
       id="g37184"
       transform="matrix(2.4147836,0,0,2.4147392,-325.45587,-126.12069)">
      <g
         transform="translate(196.948,134.765)"
         id="g37182"
         style="stroke-width:0.62117938;stroke-miterlimit:4;stroke-dasharray:none">
        <path
           style="stroke:none;stroke-width:0.62117938;stroke-miterlimit:4;stroke-dasharray:none"
           d="M 6.265625,-5.671875 C 6.75,-6.453125 7.171875,-6.484375 7.53125,-6.5 c 0.125,-0.015625 0.140625,-0.171875 0.140625,-0.1875 0,-0.078125 -0.0625,-0.125 -0.140625,-0.125 -0.25,0 -0.546875,0.03125 -0.8125,0.03125 -0.328125,0 -0.671875,-0.03125 -0.984375,-0.03125 -0.0625,0 -0.1875,0 -0.1875,0.1875 0,0.109375 0.078125,0.125 0.15625,0.125 0.265625,0.015625 0.453125,0.125 0.453125,0.328125 0,0.15625 -0.140625,0.375 -0.140625,0.375 l -3.0625,4.875 -0.6875,-5.28125 C 2.265625,-6.375 2.5,-6.5 2.953125,-6.5 c 0.140625,0 0.25,0 0.25,-0.203125 0,-0.078125 -0.078125,-0.109375 -0.125,-0.109375 -0.40625,0 -0.828125,0.03125 -1.25,0.03125 -0.171875,0 -0.359375,0 -0.546875,0 -0.171875,0 -0.359375,-0.03125 -0.53125,-0.03125 -0.078125,0 -0.1875,0 -0.1875,0.1875 0,0.125 0.078125,0.125 0.25,0.125 0.546875,0 0.5625,0.09375 0.59375,0.34375 L 2.1875,-0.015625 C 2.21875,0.1875 2.265625,0.21875 2.390625,0.21875 c 0.15625,0 0.203125,-0.046875 0.28125,-0.171875 z m 0,0"
           id="path37180" />
      </g>
    </g>
    <g
       style="fill:#000000;fill-opacity:1;stroke-width:0.62117938;stroke-miterlimit:4;stroke-dasharray:none"
       id="g37190"
       transform="matrix(2.4147836,0,0,2.4147392,-325.45587,-126.12069)">
      <g
         transform="translate(202.76,136.259)"
         id="g37188"
         style="stroke-width:0.62117938;stroke-miterlimit:4;stroke-dasharray:none">
        <path
           style="stroke:none;stroke-width:0.62117938;stroke-miterlimit:4;stroke-dasharray:none"
           d="m 1.9375,1.09375 c -0.453125,0 -0.515625,0 -0.515625,-0.296875 v -1.125 C 1.453125,-0.296875 1.78125,0.0625 2.359375,0.0625 3.28125,0.0625 4.0625,-0.625 4.0625,-1.5 c 0,-0.859375 -0.703125,-1.578125 -1.59375,-1.578125 -0.390625,0 -0.796875,0.15625 -1.078125,0.4375 v -0.4375 L 0.34375,-3 v 0.25 c 0.484375,0 0.515625,0.046875 0.515625,0.328125 v 3.21875 c 0,0.296875 -0.0625,0.296875 -0.515625,0.296875 v 0.265625 c 0.015625,0 0.5,-0.03125 0.796875,-0.03125 0.25,0 0.734375,0.015625 0.796875,0.03125 z M 1.421875,-2.328125 C 1.625,-2.671875 2.03125,-2.84375 2.390625,-2.84375 c 0.59375,0 1.046875,0.609375 1.046875,1.34375 0,0.796875 -0.53125,1.375 -1.109375,1.375 -0.625,0 -0.890625,-0.53125 -0.90625,-0.578125 z m 0,0"
           id="path37186" />
      </g>
    </g>
    <g
       style="fill:#000000;fill-opacity:1;stroke-width:0.62117938;stroke-miterlimit:4;stroke-dasharray:none"
       id="g39836"
       transform="matrix(2.4147836,0,0,2.4147392,-1061.3225,-154.08717)">
      <g
         transform="translate(372.291,134.765)"
         id="g39834"
         style="stroke-width:0.62117938;stroke-miterlimit:4;stroke-dasharray:none">
        <path
           style="stroke:none;stroke-width:0.62117938;stroke-miterlimit:4;stroke-dasharray:none"
           d="m 3.734375,-6.125 c 0.0625,-0.234375 0.09375,-0.328125 0.28125,-0.359375 C 4.109375,-6.5 4.421875,-6.5 4.625,-6.5 c 0.703125,0 1.8125,0 1.8125,0.984375 0,0.34375 -0.15625,1.03125 -0.546875,1.421875 -0.265625,0.25 -0.78125,0.578125 -1.6875,0.578125 H 3.09375 Z m 1.4375,2.734375 c 1.015625,-0.21875 2.1875,-0.921875 2.1875,-1.921875 0,-0.859375 -0.890625,-1.5 -2.203125,-1.5 H 2.328125 c -0.203125,0 -0.296875,0 -0.296875,0.203125 C 2.03125,-6.5 2.125,-6.5 2.3125,-6.5 c 0.015625,0 0.203125,0 0.375,0.015625 0.1875,0.03125 0.265625,0.03125 0.265625,0.171875 0,0.03125 0,0.0625 -0.03125,0.1875 l -1.34375,5.34375 C 1.484375,-0.390625 1.46875,-0.3125 0.671875,-0.3125 0.5,-0.3125 0.40625,-0.3125 0.40625,-0.109375 0.40625,0 0.53125,0 0.546875,0 c 0.28125,0 0.984375,-0.03125 1.25,-0.03125 0.28125,0 1,0.03125 1.28125,0.03125 0.078125,0 0.1875,0 0.1875,-0.203125 0,-0.109375 -0.078125,-0.109375 -0.28125,-0.109375 -0.359375,0 -0.640625,0 -0.640625,-0.171875 0,-0.0625 0.015625,-0.109375 0.03125,-0.171875 l 0.65625,-2.640625 h 1.1875 c 0.90625,0 1.078125,0.5625 1.078125,0.90625 0,0.140625 -0.078125,0.453125 -0.140625,0.6875 C 5.09375,-1.421875 5,-1.0625 5,-0.859375 5,0.21875 6.203125,0.21875 6.328125,0.21875 c 0.84375,0 1.203125,-1 1.203125,-1.140625 0,-0.125 -0.109375,-0.125 -0.125,-0.125 -0.09375,0 -0.109375,0.0625 -0.125,0.140625 C 7.03125,-0.171875 6.59375,0 6.375,0 6.046875,0 5.96875,-0.21875 5.96875,-0.609375 c 0,-0.3125 0.0625,-0.8125 0.109375,-1.140625 0.015625,-0.140625 0.03125,-0.328125 0.03125,-0.46875 0,-0.765625 -0.671875,-1.078125 -0.9375,-1.171875 z m 0,0"
           id="path39832" />
      </g>
    </g>
    <g
       style="fill:#000000;fill-opacity:1;stroke-width:0.62117938;stroke-miterlimit:4;stroke-dasharray:none"
       id="g39842"
       transform="matrix(2.4147836,0,0,2.4147392,-1061.3225,-154.08717)">
      <g
         transform="translate(379.855,136.259)"
         id="g39840"
         style="stroke-width:0.62117938;stroke-miterlimit:4;stroke-dasharray:none">
        <path
           style="stroke:none;stroke-width:0.62117938;stroke-miterlimit:4;stroke-dasharray:none"
           d="m 1.9375,1.09375 c -0.453125,0 -0.515625,0 -0.515625,-0.296875 v -1.125 C 1.453125,-0.296875 1.78125,0.0625 2.359375,0.0625 3.28125,0.0625 4.0625,-0.625 4.0625,-1.5 c 0,-0.859375 -0.703125,-1.578125 -1.59375,-1.578125 -0.390625,0 -0.796875,0.15625 -1.078125,0.4375 v -0.4375 L 0.34375,-3 v 0.25 c 0.484375,0 0.515625,0.046875 0.515625,0.328125 v 3.21875 c 0,0.296875 -0.0625,0.296875 -0.515625,0.296875 v 0.265625 c 0.015625,0 0.5,-0.03125 0.796875,-0.03125 0.25,0 0.734375,0.015625 0.796875,0.03125 z M 1.421875,-2.328125 C 1.625,-2.671875 2.03125,-2.84375 2.390625,-2.84375 c 0.59375,0 1.046875,0.609375 1.046875,1.34375 0,0.796875 -0.53125,1.375 -1.109375,1.375 -0.625,0 -0.890625,-0.53125 -0.90625,-0.578125 z m 0,0"
           id="path39838" />
      </g>
    </g>
    <g
       style="fill:#000000;fill-opacity:1;stroke-width:0.62117938;stroke-miterlimit:4;stroke-dasharray:none"
       id="g39860"
       transform="matrix(2.4147836,0,0,2.4147392,-724.38314,-141.64842)"
       inkscape:transform-center-y="-249.87399"
       inkscape:transform-center-x="1.0934499e-05">
      <g
         transform="translate(257.983,134.765)"
         id="g39858"
         style="stroke-width:0.62117938;stroke-miterlimit:4;stroke-dasharray:none">
        <path
           style="stroke:none;stroke-width:0.62117938;stroke-miterlimit:4;stroke-dasharray:none"
           d="M 3.734375,-6.046875 C 3.8125,-6.40625 3.84375,-6.5 4.640625,-6.5 c 0.234375,0 0.3125,0 0.3125,-0.1875 0,-0.125 -0.109375,-0.125 -0.140625,-0.125 -0.296875,0 -1.03125,0.03125 -1.328125,0.03125 -0.296875,0 -1.015625,-0.03125 -1.328125,-0.03125 -0.0625,0 -0.1875,0 -0.1875,0.203125 C 1.96875,-6.5 2.046875,-6.5 2.25,-6.5 c 0.40625,0 0.6875,0 0.6875,0.1875 0,0.046875 0,0.078125 -0.03125,0.15625 l -1.34375,5.375 c -0.09375,0.375 -0.109375,0.46875 -0.90625,0.46875 -0.234375,0 -0.3125,0 -0.3125,0.203125 C 0.34375,0 0.453125,0 0.484375,0 0.78125,0 1.5,-0.03125 1.796875,-0.03125 2.09375,-0.03125 2.828125,0 3.125,0 c 0.078125,0 0.203125,0 0.203125,-0.1875 0,-0.125 -0.078125,-0.125 -0.296875,-0.125 -0.1875,0 -0.234375,0 -0.421875,-0.015625 -0.21875,-0.015625 -0.25,-0.0625 -0.25,-0.171875 0,-0.078125 0.015625,-0.15625 0.03125,-0.234375 z m 0,0"
           id="path39856" />
      </g>
    </g>
    <g
       style="fill:#000000;fill-opacity:1;stroke-width:0.71064715;stroke-miterlimit:4;stroke-dasharray:none"
       id="g43862"
       transform="matrix(0,2.1107327,-2.1107716,0,237.46059,-240.04936)">
      <g
         transform="translate(148.712,134.765)"
         id="g43860"
         style="stroke-width:0.71064715;stroke-miterlimit:4;stroke-dasharray:none">
        <path
           style="stroke:none;stroke-width:0.71064715;stroke-miterlimit:4;stroke-dasharray:none"
           d="M 6.265625,-5.671875 C 6.75,-6.453125 7.171875,-6.484375 7.53125,-6.5 c 0.125,-0.015625 0.140625,-0.171875 0.140625,-0.1875 0,-0.078125 -0.0625,-0.125 -0.140625,-0.125 -0.25,0 -0.546875,0.03125 -0.8125,0.03125 -0.328125,0 -0.671875,-0.03125 -0.984375,-0.03125 -0.0625,0 -0.1875,0 -0.1875,0.1875 0,0.109375 0.078125,0.125 0.15625,0.125 0.265625,0.015625 0.453125,0.125 0.453125,0.328125 0,0.15625 -0.140625,0.375 -0.140625,0.375 l -3.0625,4.875 -0.6875,-5.28125 C 2.265625,-6.375 2.5,-6.5 2.953125,-6.5 c 0.140625,0 0.25,0 0.25,-0.203125 0,-0.078125 -0.078125,-0.109375 -0.125,-0.109375 -0.40625,0 -0.828125,0.03125 -1.25,0.03125 -0.171875,0 -0.359375,0 -0.546875,0 -0.171875,0 -0.359375,-0.03125 -0.53125,-0.03125 -0.078125,0 -0.1875,0 -0.1875,0.1875 0,0.125 0.078125,0.125 0.25,0.125 0.546875,0 0.5625,0.09375 0.59375,0.34375 L 2.1875,-0.015625 C 2.21875,0.1875 2.265625,0.21875 2.390625,0.21875 c 0.15625,0 0.203125,-0.046875 0.28125,-0.171875 z m 0,0"
           id="path43858" />
      </g>
    </g>
    <g
       style="fill:#000000;fill-opacity:1;stroke-width:0.71064715;stroke-miterlimit:4;stroke-dasharray:none"
       id="g43876"
       transform="matrix(0,2.1107327,-2.1107716,0,237.46059,-240.04936)">
      <g
         transform="translate(154.524,136.259)"
         id="g43866"
         style="stroke-width:0.71064715;stroke-miterlimit:4;stroke-dasharray:none">
        <path
           style="stroke:none;stroke-width:0.71064715;stroke-miterlimit:4;stroke-dasharray:none"
           d="m 2.703125,-2.78125 c -0.125,0.0625 -0.1875,0.171875 -0.1875,0.3125 0,0.1875 0.125,0.328125 0.328125,0.328125 0.1875,0 0.328125,-0.125 0.328125,-0.34375 0,-0.625 -0.96875,-0.625 -1.15625,-0.625 -1.046875,0 -1.6875,0.796875 -1.6875,1.609375 0,0.875 0.734375,1.5625 1.65625,1.5625 1.03125,0 1.28125,-0.8125 1.28125,-0.90625 0,-0.078125 -0.09375,-0.078125 -0.125,-0.078125 -0.09375,0 -0.09375,0.015625 -0.125,0.125 C 2.859375,-0.375 2.484375,-0.15625 2.0625,-0.15625 c -0.484375,0 -1.109375,-0.359375 -1.109375,-1.359375 0,-0.875 0.4375,-1.375 1.078125,-1.375 0.09375,0 0.421875,0 0.671875,0.109375 z m 0,0"
           id="path43864" />
      </g>
      <g
         transform="translate(158.066,136.259)"
         id="g43870"
         style="stroke-width:0.71064715;stroke-miterlimit:4;stroke-dasharray:none">
        <path
           style="stroke:none;stroke-width:0.71064715;stroke-miterlimit:4;stroke-dasharray:none"
           d="m 5.734375,-2.109375 c 0,-0.609375 -0.3125,-0.96875 -1.046875,-0.96875 -0.5625,0 -0.9375,0.296875 -1.125,0.65625 -0.140625,-0.5 -0.515625,-0.65625 -1.015625,-0.65625 -0.578125,0 -0.9375,0.3125 -1.140625,0.6875 v -0.6875 L 0.375,-3 v 0.25 c 0.46875,0 0.53125,0.046875 0.53125,0.390625 v 1.8125 C 0.90625,-0.25 0.828125,-0.25 0.375,-0.25 V 0 C 0.390625,0 0.875,-0.03125 1.171875,-0.03125 1.421875,-0.03125 1.90625,0 1.96875,0 v -0.25 c -0.453125,0 -0.515625,0 -0.515625,-0.296875 V -1.8125 c 0,-0.71875 0.578125,-1.0625 1.03125,-1.0625 0.484375,0 0.546875,0.375 0.546875,0.734375 v 1.59375 C 3.03125,-0.25 2.96875,-0.25 2.515625,-0.25 V 0 C 2.53125,0 3.015625,-0.03125 3.3125,-0.03125 3.5625,-0.03125 4.046875,0 4.109375,0 v -0.25 c -0.453125,0 -0.515625,0 -0.515625,-0.296875 V -1.8125 c 0,-0.71875 0.578125,-1.0625 1.03125,-1.0625 0.484375,0 0.546875,0.375 0.546875,0.734375 v 1.59375 C 5.171875,-0.25 5.109375,-0.25 4.65625,-0.25 V 0 c 0.015625,0 0.5,-0.03125 0.796875,-0.03125 C 5.703125,-0.03125 6.1875,0 6.25,0 v -0.25 c -0.453125,0 -0.515625,0 -0.515625,-0.296875 z m 0,0"
           id="path43868" />
      </g>
      <g
         transform="translate(164.611,136.259)"
         id="g43874"
         style="stroke-width:0.71064715;stroke-miterlimit:4;stroke-dasharray:none">
        <path
           style="stroke:none;stroke-width:0.71064715;stroke-miterlimit:4;stroke-dasharray:none"
           d="m 2.484375,-4.765625 v 0.25 C 2.953125,-4.515625 3,-4.453125 3,-4.125 v 1.453125 c -0.25,-0.25 -0.59375,-0.40625 -0.96875,-0.40625 -0.9375,0 -1.703125,0.703125 -1.703125,1.578125 0,0.875 0.734375,1.5625 1.609375,1.5625 0.578125,0 0.921875,-0.296875 1.03125,-0.421875 V 0.0625 L 4.046875,0 V -0.25 C 3.578125,-0.25 3.53125,-0.296875 3.53125,-0.640625 V -4.84375 Z m 0.484375,4.03125 C 2.796875,-0.40625 2.4375,-0.125 1.984375,-0.125 1.59375,-0.125 1.3125,-0.359375 1.171875,-0.5625 1.03125,-0.765625 0.953125,-1.046875 0.953125,-1.484375 c 0,-0.171875 0,-0.6875 0.28125,-1.015625 0.28125,-0.3125 0.625,-0.375 0.828125,-0.375 0.328125,0 0.640625,0.15625 0.828125,0.40625 0.078125,0.109375 0.078125,0.109375 0.078125,0.25 z m 0,0"
           id="path43872" />
      </g>
    </g>
    <rect
       style="fill:none;fill-opacity:0.346614;stroke:#000000;stroke-width:1.5;stroke-linecap:square;stroke-miterlimit:4;stroke-dasharray:none;stroke-opacity:1;stop-color:#000000"
       id="rect30092"
       width="22.309521"
       height="61.407043"
       x="180.2374"
       y="118.06688"
       transform="rotate(90)" />
    <path
       style="fill:none;fill-opacity:0.346614;stroke:#000000;stroke-width:1.5;stroke-linecap:square;stroke-miterlimit:4;stroke-dasharray:none;stop-color:#000000"
       d="M -179.47392,191.39215 H -211.9531"
       id="path63522"
       sodipodi:nodetypes="cc" />
    <g
       id="g43429"
       transform="matrix(2.4610355,0,0,2.4609902,-487.9759,-212.28953)"
       style="stroke-width:0.60950515;stroke-miterlimit:4;stroke-dasharray:none">
      <g
         style="fill:#000000;fill-opacity:1;stroke-width:0.60950515;stroke-miterlimit:4;stroke-dasharray:none"
         id="g43421">
        <g
           transform="translate(148.712,134.765)"
           id="g43419"
           style="stroke-width:0.60950515;stroke-miterlimit:4;stroke-dasharray:none">
          <path
             style="stroke:none;stroke-width:0.60950515;stroke-miterlimit:4;stroke-dasharray:none"
             d="m 3.734375,-6.125 c 0.0625,-0.234375 0.09375,-0.328125 0.28125,-0.359375 C 4.109375,-6.5 4.421875,-6.5 4.625,-6.5 c 0.703125,0 1.8125,0 1.8125,0.984375 0,0.34375 -0.15625,1.03125 -0.546875,1.421875 -0.265625,0.25 -0.78125,0.578125 -1.6875,0.578125 H 3.09375 Z m 1.4375,2.734375 c 1.015625,-0.21875 2.1875,-0.921875 2.1875,-1.921875 0,-0.859375 -0.890625,-1.5 -2.203125,-1.5 H 2.328125 c -0.203125,0 -0.296875,0 -0.296875,0.203125 C 2.03125,-6.5 2.125,-6.5 2.3125,-6.5 c 0.015625,0 0.203125,0 0.375,0.015625 0.1875,0.03125 0.265625,0.03125 0.265625,0.171875 0,0.03125 0,0.0625 -0.03125,0.1875 l -1.34375,5.34375 C 1.484375,-0.390625 1.46875,-0.3125 0.671875,-0.3125 0.5,-0.3125 0.40625,-0.3125 0.40625,-0.109375 0.40625,0 0.53125,0 0.546875,0 c 0.28125,0 0.984375,-0.03125 1.25,-0.03125 0.28125,0 1,0.03125 1.28125,0.03125 0.078125,0 0.1875,0 0.1875,-0.203125 0,-0.109375 -0.078125,-0.109375 -0.28125,-0.109375 -0.359375,0 -0.640625,0 -0.640625,-0.171875 0,-0.0625 0.015625,-0.109375 0.03125,-0.171875 l 0.65625,-2.640625 h 1.1875 c 0.90625,0 1.078125,0.5625 1.078125,0.90625 0,0.140625 -0.078125,0.453125 -0.140625,0.6875 C 5.09375,-1.421875 5,-1.0625 5,-0.859375 5,0.21875 6.203125,0.21875 6.328125,0.21875 c 0.84375,0 1.203125,-1 1.203125,-1.140625 0,-0.125 -0.109375,-0.125 -0.125,-0.125 -0.09375,0 -0.109375,0.0625 -0.125,0.140625 C 7.03125,-0.171875 6.59375,0 6.375,0 6.046875,0 5.96875,-0.21875 5.96875,-0.609375 c 0,-0.3125 0.0625,-0.8125 0.109375,-1.140625 0.015625,-0.140625 0.03125,-0.328125 0.03125,-0.46875 0,-0.765625 -0.671875,-1.078125 -0.9375,-1.171875 z m 0,0"
             id="path43417" />
        </g>
      </g>
      <g
         style="fill:#000000;fill-opacity:1;stroke-width:0.60950515;stroke-miterlimit:4;stroke-dasharray:none"
         id="g43427">
        <g
           transform="translate(156.277,136.259)"
           id="g43425"
           style="stroke-width:0.60950515;stroke-miterlimit:4;stroke-dasharray:none">
          <path
             style="stroke:none;stroke-width:0.60950515;stroke-miterlimit:4;stroke-dasharray:none"
             d="M 3.59375,-2.21875 C 3.59375,-2.984375 3.5,-3.546875 3.1875,-4.03125 2.96875,-4.34375 2.53125,-4.625 1.984375,-4.625 c -1.625,0 -1.625,1.90625 -1.625,2.40625 0,0.5 0,2.359375 1.625,2.359375 1.609375,0 1.609375,-1.859375 1.609375,-2.359375 z M 1.984375,-0.0625 c -0.328125,0 -0.75,-0.1875 -0.890625,-0.75 C 1,-1.21875 1,-1.796875 1,-2.3125 1,-2.828125 1,-3.359375 1.09375,-3.734375 1.25,-4.28125 1.6875,-4.4375 1.984375,-4.4375 c 0.375,0 0.734375,0.234375 0.859375,0.640625 0.109375,0.375 0.125,0.875 0.125,1.484375 0,0.515625 0,1.03125 -0.09375,1.46875 -0.140625,0.640625 -0.609375,0.78125 -0.890625,0.78125 z m 0,0"
             id="path43423" />
        </g>
      </g>
    </g>
    <path
       style="fill:none;fill-opacity:0.346614;stroke:#000000;stroke-width:1.5;stroke-linecap:square;stroke-miterlimit:4;stroke-dasharray:none;stroke-opacity:1;marker-end:url(#Arrow2Lend);stop-color:#000000"
       d="M -55.054193,77.952964 V 136.01299"
       id="path43486" />
    <g
       style="fill:#000000;fill-opacity:1;stroke-width:0.62117938;stroke-miterlimit:4;stroke-dasharray:none"
       id="g64521"
       transform="matrix(2.4147836,0,0,2.4147392,-537.17486,-110.12717)">
      <g
         transform="translate(196.948,134.765)"
         id="g64519"
         style="stroke-width:0.62117938;stroke-miterlimit:4;stroke-dasharray:none">
        <path
           style="stroke:none;stroke-width:0.62117938;stroke-miterlimit:4;stroke-dasharray:none"
           d="M 6.265625,-5.671875 C 6.75,-6.453125 7.171875,-6.484375 7.53125,-6.5 c 0.125,-0.015625 0.140625,-0.171875 0.140625,-0.1875 0,-0.078125 -0.0625,-0.125 -0.140625,-0.125 -0.25,0 -0.546875,0.03125 -0.8125,0.03125 -0.328125,0 -0.671875,-0.03125 -0.984375,-0.03125 -0.0625,0 -0.1875,0 -0.1875,0.1875 0,0.109375 0.078125,0.125 0.15625,0.125 0.265625,0.015625 0.453125,0.125 0.453125,0.328125 0,0.15625 -0.140625,0.375 -0.140625,0.375 l -3.0625,4.875 -0.6875,-5.28125 C 2.265625,-6.375 2.5,-6.5 2.953125,-6.5 c 0.140625,0 0.25,0 0.25,-0.203125 0,-0.078125 -0.078125,-0.109375 -0.125,-0.109375 -0.40625,0 -0.828125,0.03125 -1.25,0.03125 -0.171875,0 -0.359375,0 -0.546875,0 -0.171875,0 -0.359375,-0.03125 -0.53125,-0.03125 -0.078125,0 -0.1875,0 -0.1875,0.1875 0,0.125 0.078125,0.125 0.25,0.125 0.546875,0 0.5625,0.09375 0.59375,0.34375 L 2.1875,-0.015625 C 2.21875,0.1875 2.265625,0.21875 2.390625,0.21875 c 0.15625,0 0.203125,-0.046875 0.28125,-0.171875 z m 0,0"
           id="path64517" />
      </g>
    </g>
    <g
       style="fill:#000000;fill-opacity:1;stroke-width:0.62117938;stroke-miterlimit:4;stroke-dasharray:none"
       id="g64527"
       transform="matrix(2.4147836,0,0,2.4147392,-537.17486,-110.12717)">
      <g
         transform="translate(202.76,136.259)"
         id="g64525"
         style="stroke-width:0.62117938;stroke-miterlimit:4;stroke-dasharray:none">
        <path
           style="stroke:none;stroke-width:0.62117938;stroke-miterlimit:4;stroke-dasharray:none"
           d="m 1.9375,1.09375 c -0.453125,0 -0.515625,0 -0.515625,-0.296875 v -1.125 C 1.453125,-0.296875 1.78125,0.0625 2.359375,0.0625 3.28125,0.0625 4.0625,-0.625 4.0625,-1.5 c 0,-0.859375 -0.703125,-1.578125 -1.59375,-1.578125 -0.390625,0 -0.796875,0.15625 -1.078125,0.4375 v -0.4375 L 0.34375,-3 v 0.25 c 0.484375,0 0.515625,0.046875 0.515625,0.328125 v 3.21875 c 0,0.296875 -0.0625,0.296875 -0.515625,0.296875 v 0.265625 c 0.015625,0 0.5,-0.03125 0.796875,-0.03125 0.25,0 0.734375,0.015625 0.796875,0.03125 z M 1.421875,-2.328125 C 1.625,-2.671875 2.03125,-2.84375 2.390625,-2.84375 c 0.59375,0 1.046875,0.609375 1.046875,1.34375 0,0.796875 -0.53125,1.375 -1.109375,1.375 -0.625,0 -0.890625,-0.53125 -0.90625,-0.578125 z m 0,0"
           id="path64523" />
      </g>
    </g>
    <ellipse
       style="fill:none;fill-opacity:0.346614;stroke:#000000;stroke-width:1.5;stroke-linecap:square;stroke-miterlimit:4;stroke-dasharray:none;stop-color:#000000"
       id="path66634"
       cx="84.603966"
       cy="-71.16925"
       rx="25.296343"
       ry="25.295879" />
    <text
       xml:space="preserve"
       style="font-size:29.9997px;line-height:1.1;font-family:'Latin Modern Roman';-inkscape-font-specification:'Latin Modern Roman, ';font-variant-ligatures:none;text-decoration-color:#000000;letter-spacing:0px;word-spacing:0px;fill:#000000;stroke-width:1.5;stop-color:#000000;stroke-miterlimit:4;stroke-dasharray:none"
       x="72.641083"
       y="-62.294315"
       id="text67532"><tspan
         sodipodi:role="line"
         id="tspan67530"
         style="stroke-width:1.5;stroke-miterlimit:4;stroke-dasharray:none"
         x="72.641083"
         y="-62.294315">A</tspan></text>
    <ellipse
       style="fill:none;fill-opacity:0.346614;stroke:#000000;stroke-width:1.5;stroke-linecap:square;stroke-miterlimit:4;stroke-dasharray:none;stop-color:#000000"
       id="circle67614"
       cx="82.558472"
       cy="223.58244"
       rx="25.296343"
       ry="25.295879" />
    <text
       xml:space="preserve"
       style="font-size:29.9997px;line-height:1.1;font-family:'Latin Modern Roman';-inkscape-font-specification:'Latin Modern Roman, ';font-variant-ligatures:none;text-decoration-color:#000000;letter-spacing:0px;word-spacing:0px;fill:#000000;stroke-width:1.5;stop-color:#000000;stroke-miterlimit:4;stroke-dasharray:none"
       x="72.208138"
       y="232.8873"
       id="text67618"><tspan
         sodipodi:role="line"
         id="tspan67616"
         style="stroke-width:1.5;stroke-miterlimit:4;stroke-dasharray:none"
         x="72.208138"
         y="232.8873">B</tspan></text>
    <ellipse
       style="fill:none;fill-opacity:0.346614;stroke:#000000;stroke-width:1.5;stroke-linecap:square;stroke-miterlimit:4;stroke-dasharray:none;stop-color:#000000"
       id="path68517"
       cx="-322.42941"
       cy="191.39214"
       rx="35.672306"
       ry="35.67165" />
    <text
       xml:space="preserve"
       style="font-size:29.9997px;line-height:1.1;font-family:'Latin Modern Roman';-inkscape-font-specification:'Latin Modern Roman, ';font-variant-ligatures:none;text-decoration-color:#000000;letter-spacing:0px;word-spacing:0px;fill:#000000;stroke-width:1.5;stop-color:#000000;stroke-miterlimit:4;stroke-dasharray:none"
       x="-353.12451"
       y="199.08168"
       id="text70128"><tspan
         sodipodi:role="line"
         id="tspan70126"
         style="stroke-width:1.5;stroke-miterlimit:4;stroke-dasharray:none"
         x="-353.12451"
         y="199.08168">Zelle</tspan></text>
    <g
       id="g1082"
       transform="translate(19.024915,112.55657)"
       style="stroke-width:1.5;stroke-miterlimit:4;stroke-dasharray:none">
      <g
         id="g34254"
         transform="matrix(0,0.16344197,0.20083648,0,86.10453,-790.38626)"
         style="fill:none;stroke-width:8.27919601;stroke-miterlimit:4;stroke-dasharray:none">
        <path
           style="fill:none;fill-opacity:0.332995;stroke:#000000;stroke-width:8.27919601;stroke-linecap:square;stroke-miterlimit:4;stroke-dasharray:none;stop-color:#000000"
           d="m 5318.2625,-1947.1145 v 165.424 h 63.8994"
           id="path34250"
           sodipodi:nodetypes="ccc" />
        <path
           style="fill:none;fill-opacity:0.332995;stroke:#000000;stroke-width:8.27919601;stroke-linecap:square;stroke-miterlimit:4;stroke-dasharray:none;stop-color:#000000"
           d="m 5254.3633,-1781.6905 h 63.8992"
           id="path34252" />
      </g>
      <g
         id="g34260"
         transform="matrix(0,0.16344197,-0.1449199,0,-521.6979,-790.3864)"
         style="fill:none;stroke-width:9.7464274;stroke-miterlimit:4;stroke-dasharray:none">
        <path
           style="fill:none;fill-opacity:0.332995;stroke:#000000;stroke-width:9.7464274;stroke-linecap:square;stroke-miterlimit:4;stroke-dasharray:none;stop-color:#000000"
           d="m 5318.2625,-2012.9255 v 231.235 h 63.8994"
           id="path34256"
           sodipodi:nodetypes="ccc" />
        <path
           style="fill:none;fill-opacity:0.332995;stroke:#000000;stroke-width:9.7464274;stroke-linecap:square;stroke-miterlimit:4;stroke-dasharray:none;stop-color:#000000"
           d="m 5254.3633,-1781.6905 h 63.8992"
           id="path34258" />
      </g>
    </g>
    <g
       style="fill:#000000;fill-opacity:1;stroke-width:0.60752744;stroke-miterlimit:4;stroke-dasharray:none"
       id="g41306"
       transform="matrix(2.4690243,0,0,2.4690243,-630.4238,-164.62759)">
      <g
         transform="translate(148.712,134.765)"
         id="g41304"
         style="stroke-width:0.60752744;stroke-miterlimit:4;stroke-dasharray:none">
        <path
           style="stroke:none;stroke-width:0.60752744;stroke-miterlimit:4;stroke-dasharray:none"
           d="m 7.578125,-6.921875 c 0,-0.03125 -0.015625,-0.109375 -0.109375,-0.109375 -0.03125,0 -0.046875,0.015625 -0.15625,0.125 L 6.625,-6.140625 C 6.53125,-6.28125 6.078125,-7.03125 4.96875,-7.03125 2.734375,-7.03125 0.5,-4.828125 0.5,-2.515625 0.5,-0.875 1.671875,0.21875 3.203125,0.21875 c 0.859375,0 1.625,-0.390625 2.15625,-0.859375 0.921875,-0.8125 1.09375,-1.71875 1.09375,-1.75 C 6.453125,-2.5 6.34375,-2.5 6.328125,-2.5 c -0.0625,0 -0.109375,0.03125 -0.125,0.109375 -0.09375,0.28125 -0.328125,1 -1.015625,1.578125 -0.6875,0.546875 -1.3125,0.71875 -1.828125,0.71875 -0.890625,0 -1.953125,-0.515625 -1.953125,-2.0625 0,-0.578125 0.203125,-2.1875 1.203125,-3.359375 0.609375,-0.703125 1.546875,-1.203125 2.4375,-1.203125 1.015625,0 1.609375,0.765625 1.609375,1.921875 0,0.40625 -0.03125,0.40625 -0.03125,0.515625 0,0.09375 0.109375,0.09375 0.140625,0.09375 0.125,0 0.125,-0.015625 0.1875,-0.203125 z m 0,0"
           id="path41302" />
      </g>
    </g>
    <g
       style="fill:#000000;fill-opacity:1;stroke-width:0.60752744;stroke-miterlimit:4;stroke-dasharray:none"
       id="g41312"
       transform="matrix(2.4690243,0,0,2.4690243,-630.4238,-164.62759)">
      <g
         transform="translate(155.833,136.259)"
         id="g41310"
         style="stroke-width:0.60752744;stroke-miterlimit:4;stroke-dasharray:none">
        <path
           style="stroke:none;stroke-width:0.60752744;stroke-miterlimit:4;stroke-dasharray:none"
           d="m 1.9375,1.09375 c -0.453125,0 -0.515625,0 -0.515625,-0.296875 v -1.125 C 1.453125,-0.296875 1.78125,0.0625 2.359375,0.0625 3.28125,0.0625 4.0625,-0.625 4.0625,-1.5 c 0,-0.859375 -0.703125,-1.578125 -1.59375,-1.578125 -0.390625,0 -0.796875,0.15625 -1.078125,0.4375 v -0.4375 L 0.34375,-3 v 0.25 c 0.484375,0 0.515625,0.046875 0.515625,0.328125 v 3.21875 c 0,0.296875 -0.0625,0.296875 -0.515625,0.296875 v 0.265625 c 0.015625,0 0.5,-0.03125 0.796875,-0.03125 0.25,0 0.734375,0.015625 0.796875,0.03125 z M 1.421875,-2.328125 C 1.625,-2.671875 2.03125,-2.84375 2.390625,-2.84375 c 0.59375,0 1.046875,0.609375 1.046875,1.34375 0,0.796875 -0.53125,1.375 -1.109375,1.375 -0.625,0 -0.890625,-0.53125 -0.90625,-0.578125 z m 0,0"
           id="path41308" />
      </g>
    </g>
  </g>
</svg>
