<?xml version="1.0" encoding="UTF-8" standalone="no"?>
<svg
   width="616.03741"
   height="385.99649"
   viewBox="0 0 2464.1497 1543.9859"
   version="1.1"
   id="svg239"
   sodipodi:docname="jgk_vary.svg"
   inkscape:version="1.1.1 (3bf5ae0d25, 2021-09-20, custom)"
   xmlns:inkscape="http://www.inkscape.org/namespaces/inkscape"
   xmlns:sodipodi="http://sodipodi.sourceforge.net/DTD/sodipodi-0.dtd"
   xmlns="http://www.w3.org/2000/svg"
   xmlns:svg="http://www.w3.org/2000/svg">
  <sodipodi:namedview
     id="namedview241"
     pagecolor="#ffffff"
     bordercolor="#666666"
     borderopacity="1.0"
     inkscape:pageshadow="2"
     inkscape:pageopacity="0.0"
     inkscape:pagecheckerboard="0"
     showgrid="false"
     inkscape:zoom="1.9135274"
     inkscape:cx="272.79463"
     inkscape:cy="103.73512"
     inkscape:window-width="2653"
     inkscape:window-height="2073"
     inkscape:window-x="25"
     inkscape:window-y="52"
     inkscape:window-maximized="1"
     inkscape:current-layer="svg239" />
  <defs
     id="defs5">
    <clipPath
       id="clip060">
      <rect
         x="0"
         y="0"
         width="2400"
         height="1600"
         id="rect2" />
    </clipPath>
  </defs>
  <defs
     id="defs12">
    <clipPath
       id="clip061">
      <rect
         x="480"
         y="0"
         width="1681"
         height="1600"
         id="rect9" />
    </clipPath>
  </defs>
  <defs
     id="defs17">
    <clipPath
       id="clip062">
      <rect
         x="195"
         y="47"
         width="2158"
         height="1342"
         id="rect14" />
    </clipPath>
  </defs>
  <polyline
     clip-path="url(#clip060)"
     style="fill:none;stroke:#000000;stroke-width:4;stroke-linecap:butt;stroke-linejoin:round;stroke-miterlimit:4;stroke-dasharray:4, 16;stroke-dashoffset:0;stroke-opacity:1"
     points="   195.329,1388.43 195.329,47.2441    "
     id="polyline1222"
     transform="translate(236.67233,-47.2441)" />
  <polyline
     clip-path="url(#clip060)"
     style="fill:none;stroke:#000000;stroke-width:4;stroke-linecap:butt;stroke-linejoin:round;stroke-miterlimit:4;stroke-dasharray:4, 16;stroke-dashoffset:0;stroke-opacity:1"
     points="   195.329,1388.43 195.329,47.2441    "
     id="polyline1224"
     transform="translate(676.56841,-47.2441)" />
  <polyline
     clip-path="url(#clip060)"
     style="fill:none;stroke:#000000;stroke-width:4;stroke-linecap:butt;stroke-linejoin:round;stroke-opacity:1"
     points="   195.329,1388.43 2352.76,1388.43    "
     id="polyline21"
     transform="translate(75.5896,-47.2441)" />
  <polyline
     clip-path="url(#clip060)"
     style="fill:none;stroke:#000000;stroke-width:4;stroke-linecap:butt;stroke-linejoin:round;stroke-opacity:1"
     points="   559.519,1388.43 559.519,1369.53    "
     id="polyline23"
     transform="translate(75.5896,-47.2441)" />
  <polyline
     clip-path="url(#clip060)"
     style="fill:none;stroke:#000000;stroke-width:4;stroke-linecap:butt;stroke-linejoin:round;stroke-opacity:1"
     points="   992.563,1388.43 992.563,1369.53    "
     id="polyline25"
     transform="translate(75.5896,-47.2441)" />
  <polyline
     clip-path="url(#clip060)"
     style="fill:none;stroke:#000000;stroke-width:4;stroke-linecap:butt;stroke-linejoin:round;stroke-opacity:1"
     points="   1425.61,1388.43 1425.61,1369.53    "
     id="polyline27"
     transform="translate(75.5896,-47.2441)" />
  <polyline
     clip-path="url(#clip060)"
     style="fill:none;stroke:#000000;stroke-width:4;stroke-linecap:butt;stroke-linejoin:round;stroke-opacity:1"
     points="   1858.65,1388.43 1858.65,1369.53    "
     id="polyline29"
     transform="translate(75.5896,-47.2441)" />
  <polyline
     clip-path="url(#clip060)"
     style="fill:none;stroke:#000000;stroke-width:4;stroke-linecap:butt;stroke-linejoin:round;stroke-opacity:1"
     points="   2291.7,1388.43 2291.7,1369.53    "
     id="polyline31"
     transform="translate(75.5896,-47.2441)" />
  <path
     clip-path="url(#clip060)"
     d="m 464,1454.91 q 0,-13.01 3.286,-20.1 4.582,-10.55 15.39,-10.55 2.291,0 4.669,0.65 2.421,0.61 5.447,2.98 3.07,2.38 4.929,6.27 3.544,7.52 3.544,20.75 0,12.93 -3.285,19.97 -4.799,10.29 -15.39,10.29 -3.978,0 -8.041,-2.03 -4.021,-2.03 -6.571,-6.92 -3.978,-7.3 -3.978,-21.31 m 7.35,-1.08 q 0,13.36 0.951,18.68 1.081,5.75 4.02,8.25 2.983,2.47 6.269,2.47 3.545,0 6.484,-2.64 2.983,-2.68 3.891,-8.43 0.994,-5.66 0.951,-18.33 0,-12.32 -0.864,-17.25 -1.168,-5.75 -4.28,-8.04 -3.07,-2.33 -6.182,-2.33 -1.168,0 -2.421,0.34 -1.211,0.35 -2.983,1.34 -1.773,1 -3.156,3.46 -1.34,2.47 -1.989,6.18 -0.691,4.8 -0.691,16.3 z"
     fill="#000000"
     fill-rule="evenodd"
     fill-opacity="1"
     id="path33"
     transform="translate(75.5896,-47.2441)" />
  <path
     clip-path="url(#clip060)"
     d="m 513.673,1481.8 q -1.34,-1.42 -1.34,-3.28 0,-1.86 1.34,-3.2 1.34,-1.39 3.372,-1.39 1.945,0 3.242,1.3 1.34,1.25 1.34,3.33 0,2.03 -1.426,3.37 -1.384,1.3 -3.156,1.3 -2.032,0 -3.372,-1.43 z"
     fill="#000000"
     fill-rule="evenodd"
     fill-opacity="1"
     id="path35"
     transform="translate(75.5896,-47.2441)" />
  <path
     clip-path="url(#clip060)"
     d="m 532.867,1454.91 q 0,-13.01 3.286,-20.1 4.582,-10.55 15.39,-10.55 2.291,0 4.669,0.65 2.421,0.61 5.447,2.98 3.069,2.38 4.928,6.27 3.545,7.52 3.545,20.75 0,12.93 -3.285,19.97 -4.799,10.29 -15.391,10.29 -3.977,0 -8.04,-2.03 -4.021,-2.03 -6.572,-6.92 -3.977,-7.3 -3.977,-21.31 m 7.349,-1.08 q 0,13.36 0.952,18.68 1.08,5.75 4.02,8.25 2.983,2.47 6.268,2.47 3.545,0 6.485,-2.64 2.983,-2.68 3.891,-8.43 0.994,-5.66 0.951,-18.33 0,-12.32 -0.865,-17.25 -1.167,-5.75 -4.279,-8.04 -3.07,-2.33 -6.183,-2.33 -1.167,0 -2.42,0.34 -1.211,0.35 -2.983,1.34 -1.773,1 -3.156,3.46 -1.34,2.47 -1.989,6.18 -0.692,4.8 -0.692,16.3 z"
     fill="#000000"
     fill-rule="evenodd"
     fill-opacity="1"
     id="path37"
     transform="translate(75.5896,-47.2441)" />
  <path
     clip-path="url(#clip060)"
     d="m 577.136,1454.91 q 0,-13.01 3.285,-20.1 4.583,-10.55 15.39,-10.55 2.292,0 4.669,0.65 2.421,0.61 5.447,2.98 3.07,2.38 4.929,6.27 3.545,7.52 3.545,20.75 0,12.93 -3.286,19.97 -4.799,10.29 -15.39,10.29 -3.977,0 -8.041,-2.03 -4.021,-2.03 -6.571,-6.92 -3.977,-7.3 -3.977,-21.31 m 7.349,-1.08 q 0,13.36 0.951,18.68 1.081,5.75 4.02,8.25 2.983,2.47 6.269,2.47 3.545,0 6.485,-2.64 2.982,-2.68 3.89,-8.43 0.995,-5.66 0.951,-18.33 0,-12.32 -0.864,-17.25 -1.167,-5.75 -4.28,-8.04 -3.069,-2.33 -6.182,-2.33 -1.167,0 -2.421,0.34 -1.21,0.35 -2.983,1.34 -1.772,1 -3.156,3.46 -1.34,2.47 -1.988,6.18 -0.692,4.8 -0.692,16.3 z"
     fill="#000000"
     fill-rule="evenodd"
     fill-opacity="1"
     id="path39"
     transform="translate(75.5896,-47.2441)" />
  <path
     clip-path="url(#clip060)"
     d="m 625.814,1432.69 v -2.77 q 10.634,0 16.125,-5.66 1.513,0 1.772,0.35 0.26,0.34 0.26,1.94 v 49.67 q 0,2.64 1.296,3.46 1.297,0.82 6.961,0.82 h 2.81 v 2.73 q -3.113,-0.26 -14.353,-0.26 -11.24,0 -14.309,0.26 v -2.73 h 2.81 q 5.576,0 6.917,-0.77 1.34,-0.82 1.34,-3.51 v -45.86 q -4.626,2.33 -11.629,2.33 z"
     fill="#000000"
     fill-rule="evenodd"
     fill-opacity="1"
     id="path41"
     transform="translate(75.5896,-47.2441)" />
  <path
     clip-path="url(#clip060)"
     d="m 895.705,1454.91 q 0,-13.01 3.285,-20.1 4.583,-10.55 15.39,-10.55 2.292,0 4.669,0.65 2.421,0.61 5.447,2.98 3.07,2.38 4.929,6.27 3.545,7.52 3.545,20.75 0,12.93 -3.286,19.97 -4.798,10.29 -15.39,10.29 -3.977,0 -8.041,-2.03 -4.02,-2.03 -6.571,-6.92 -3.977,-7.3 -3.977,-21.31 m 7.349,-1.08 q 0,13.36 0.951,18.68 1.081,5.75 4.02,8.25 2.983,2.47 6.269,2.47 3.545,0 6.485,-2.64 2.983,-2.68 3.89,-8.43 0.995,-5.66 0.951,-18.33 0,-12.32 -0.864,-17.25 -1.167,-5.75 -4.28,-8.04 -3.069,-2.33 -6.182,-2.33 -1.167,0 -2.421,0.34 -1.21,0.35 -2.983,1.34 -1.772,1 -3.156,3.46 -1.34,2.47 -1.988,6.18 -0.692,4.8 -0.692,16.3 z"
     fill="#000000"
     fill-rule="evenodd"
     fill-opacity="1"
     id="path43"
     transform="translate(75.5896,-47.2441)" />
  <path
     clip-path="url(#clip060)"
     d="m 945.377,1481.8 q -1.34,-1.42 -1.34,-3.28 0,-1.86 1.34,-3.2 1.34,-1.39 3.372,-1.39 1.945,0 3.242,1.3 1.34,1.25 1.34,3.33 0,2.03 -1.426,3.37 -1.384,1.3 -3.156,1.3 -2.032,0 -3.372,-1.43 z"
     fill="#000000"
     fill-rule="evenodd"
     fill-opacity="1"
     id="path45"
     transform="translate(75.5896,-47.2441)" />
  <path
     clip-path="url(#clip060)"
     d="m 964.571,1454.91 q 0,-13.01 3.286,-20.1 4.582,-10.55 15.39,-10.55 2.291,0 4.669,0.65 2.421,0.61 5.447,2.98 3.07,2.38 4.929,6.27 3.548,7.52 3.548,20.75 0,12.93 -3.289,19.97 -4.799,10.29 -15.39,10.29 -3.978,0 -8.041,-2.03 -4.021,-2.03 -6.571,-6.92 -3.978,-7.3 -3.978,-21.31 m 7.35,-1.08 q 0,13.36 0.951,18.68 1.081,5.75 4.02,8.25 2.983,2.47 6.269,2.47 3.545,0 6.484,-2.64 2.983,-2.68 3.891,-8.43 0.994,-5.66 0.951,-18.33 0,-12.32 -0.864,-17.25 -1.168,-5.75 -4.28,-8.04 -3.07,-2.33 -6.182,-2.33 -1.168,0 -2.421,0.34 -1.211,0.35 -2.983,1.34 -1.773,1 -3.156,3.46 -1.34,2.47 -1.989,6.18 -0.691,4.8 -0.691,16.3 z"
     fill="#000000"
     fill-rule="evenodd"
     fill-opacity="1"
     id="path47"
     transform="translate(75.5896,-47.2441)" />
  <path
     clip-path="url(#clip060)"
     d="m 1008.84,1454.91 q 0,-13.01 3.29,-20.1 4.58,-10.55 15.39,-10.55 2.29,0 4.66,0.65 2.43,0.61 5.45,2.98 3.07,2.38 4.93,6.27 3.54,7.52 3.54,20.75 0,12.93 -3.28,19.97 -4.8,10.29 -15.39,10.29 -3.98,0 -8.04,-2.03 -4.02,-2.03 -6.57,-6.92 -3.98,-7.3 -3.98,-21.31 m 7.35,-1.08 q 0,13.36 0.95,18.68 1.08,5.75 4.02,8.25 2.98,2.47 6.27,2.47 3.54,0 6.48,-2.64 2.99,-2.68 3.89,-8.43 1,-5.66 0.96,-18.33 0,-12.32 -0.87,-17.25 -1.17,-5.75 -4.28,-8.04 -3.07,-2.33 -6.18,-2.33 -1.17,0 -2.42,0.34 -1.21,0.35 -2.98,1.34 -1.78,1 -3.16,3.46 -1.34,2.47 -1.99,6.18 -0.69,4.8 -0.69,16.3 z"
     fill="#000000"
     fill-rule="evenodd"
     fill-opacity="1"
     id="path49"
     transform="translate(75.5896,-47.2441)" />
  <path
     clip-path="url(#clip060)"
     d="m 1054.06,1483.23 q 0,-1.6 0.13,-2.08 0.17,-0.47 0.86,-1.21 l 16.99,-18.93 q 9.3,-10.46 9.3,-19.59 0,-5.92 -3.11,-10.16 -3.07,-4.23 -8.74,-4.23 -3.89,0 -7.17,2.38 -3.29,2.37 -4.8,6.61 0.26,-0.09 1.17,-0.09 2.2,0 3.41,1.39 1.25,1.38 1.25,3.24 0,2.38 -1.55,3.54 -1.52,1.13 -3.03,1.13 -0.6,0 -1.43,-0.13 -0.77,-0.13 -2.03,-1.34 -1.25,-1.26 -1.25,-3.46 0,-6.18 4.67,-11.11 4.71,-4.93 11.89,-4.93 8.12,0 13.44,4.84 5.36,4.8 5.36,12.32 0,2.64 -0.82,5.06 -0.78,2.38 -1.86,4.24 -1.04,1.86 -3.89,4.84 -2.85,2.98 -5.14,5.1 -2.29,2.12 -7.44,6.62 l -9.38,9.12 h 15.95 q 7.78,0 8.39,-0.69 0.86,-1.26 1.94,-7.87 h 2.25 l -2.51,15.39 z"
     fill="#000000"
     fill-rule="evenodd"
     fill-opacity="1"
     id="path51"
     transform="translate(75.5896,-47.2441)" />
  <path
     clip-path="url(#clip060)"
     d="m 1328.4,1454.91 q 0,-13.01 3.29,-20.1 4.58,-10.55 15.39,-10.55 2.29,0 4.67,0.65 2.42,0.61 5.44,2.98 3.07,2.38 4.93,6.27 3.55,7.52 3.55,20.75 0,12.93 -3.29,19.97 -4.8,10.29 -15.39,10.29 -3.97,0 -8.04,-2.03 -4.02,-2.03 -6.57,-6.92 -3.98,-7.3 -3.98,-21.31 m 7.35,-1.08 q 0,13.36 0.95,18.68 1.08,5.75 4.02,8.25 2.99,2.47 6.27,2.47 3.55,0 6.49,-2.64 2.98,-2.68 3.89,-8.43 0.99,-5.66 0.95,-18.33 0,-12.32 -0.87,-17.25 -1.16,-5.75 -4.28,-8.04 -3.06,-2.33 -6.18,-2.33 -1.16,0 -2.42,0.34 -1.21,0.35 -2.98,1.34 -1.77,1 -3.16,3.46 -1.34,2.47 -1.99,6.18 -0.69,4.8 -0.69,16.3 z"
     fill="#000000"
     fill-rule="evenodd"
     fill-opacity="1"
     id="path53"
     transform="translate(75.5896,-47.2441)" />
  <path
     clip-path="url(#clip060)"
     d="m 1378.08,1481.8 q -1.34,-1.42 -1.34,-3.28 0,-1.86 1.34,-3.2 1.34,-1.39 3.37,-1.39 1.94,0 3.24,1.3 1.34,1.25 1.34,3.33 0,2.03 -1.43,3.37 -1.38,1.3 -3.15,1.3 -2.03,0 -3.37,-1.43 z"
     fill="#000000"
     fill-rule="evenodd"
     fill-opacity="1"
     id="path55"
     transform="translate(75.5896,-47.2441)" />
  <path
     clip-path="url(#clip060)"
     d="m 1397.27,1454.91 q 0,-13.01 3.29,-20.1 4.58,-10.55 15.39,-10.55 2.29,0 4.66,0.65 2.43,0.61 5.45,2.98 3.07,2.38 4.93,6.27 3.55,7.52 3.55,20.75 0,12.93 -3.29,19.97 -4.8,10.29 -15.39,10.29 -3.98,0 -8.04,-2.03 -4.02,-2.03 -6.57,-6.92 -3.98,-7.3 -3.98,-21.31 m 7.35,-1.08 q 0,13.36 0.95,18.68 1.08,5.75 4.02,8.25 2.98,2.47 6.27,2.47 3.54,0 6.48,-2.64 2.99,-2.68 3.89,-8.43 1,-5.66 0.96,-18.33 0,-12.32 -0.87,-17.25 -1.17,-5.75 -4.28,-8.04 -3.07,-2.33 -6.18,-2.33 -1.17,0 -2.42,0.34 -1.21,0.35 -2.98,1.34 -1.78,1 -3.16,3.46 -1.34,2.47 -1.99,6.18 -0.69,4.8 -0.69,16.3 z"
     fill="#000000"
     fill-rule="evenodd"
     fill-opacity="1"
     id="path57"
     transform="translate(75.5896,-47.2441)" />
  <path
     clip-path="url(#clip060)"
     d="m 1441.54,1454.91 q 0,-13.01 3.28,-20.1 4.59,-10.55 15.39,-10.55 2.3,0 4.67,0.65 2.42,0.61 5.45,2.98 3.07,2.38 4.93,6.27 3.54,7.52 3.54,20.75 0,12.93 -3.28,19.97 -4.8,10.29 -15.39,10.29 -3.98,0 -8.04,-2.03 -4.02,-2.03 -6.57,-6.92 -3.98,-7.3 -3.98,-21.31 m 7.35,-1.08 q 0,13.36 0.95,18.68 1.08,5.75 4.02,8.25 2.98,2.47 6.27,2.47 3.54,0 6.48,-2.64 2.99,-2.68 3.89,-8.43 1,-5.66 0.95,-18.33 0,-12.32 -0.86,-17.25 -1.17,-5.75 -4.28,-8.04 -3.07,-2.33 -6.18,-2.33 -1.17,0 -2.42,0.34 -1.21,0.35 -2.99,1.34 -1.77,1 -3.15,3.46 -1.34,2.47 -1.99,6.18 -0.69,4.8 -0.69,16.3 z"
     fill="#000000"
     fill-rule="evenodd"
     fill-opacity="1"
     id="path59"
     transform="translate(75.5896,-47.2441)" />
  <path
     clip-path="url(#clip060)"
     d="m 1486.07,1471.3 q 0,-2.64 1.51,-3.89 1.51,-1.26 3.46,-1.26 2.03,0 3.46,1.34 1.47,1.3 1.47,3.59 0,2.46 -1.73,3.85 -1.69,1.38 -4.11,1.04 2.12,3.54 6.01,5.14 3.93,1.6 7.56,1.6 3.81,0 6.88,-3.29 3.11,-3.28 3.11,-11.32 0,-6.83 -2.68,-10.77 -2.64,-3.93 -7.87,-3.93 h -3.89 q -1.34,0 -1.73,-0.13 -0.39,-0.13 -0.39,-0.87 0,-0.86 1.34,-1.03 1.34,0 3.46,-0.26 5.15,-0.18 7.87,-4.63 2.46,-4.15 2.46,-10.07 0,-5.4 -2.59,-7.65 -2.55,-2.29 -5.88,-2.29 -3.11,0 -6.53,1.29 -3.41,1.3 -5.27,4.2 5.49,0 5.49,4.45 0,1.94 -1.25,3.24 -1.21,1.26 -3.25,1.26 -1.94,0 -3.24,-1.22 -1.3,-1.25 -1.3,-3.37 0,-5.06 4.5,-8.56 4.54,-3.5 11.2,-3.5 6.57,0 11.41,3.46 4.88,3.46 4.88,8.78 0,5.23 -3.45,9.51 -3.46,4.28 -8.95,6.05 6.74,1.34 10.76,5.92 4.02,4.54 4.02,10.12 0,6.91 -5.44,12.02 -5.45,5.05 -13.41,5.05 -7.35,0 -12.62,-3.97 -5.27,-3.98 -5.27,-9.9 z"
     fill="#000000"
     fill-rule="evenodd"
     fill-opacity="1"
     id="path61"
     transform="translate(75.5896,-47.2441)" />
  <path
     clip-path="url(#clip060)"
     d="m 1760.82,1454.91 q 0,-13.01 3.29,-20.1 4.58,-10.55 15.39,-10.55 2.29,0 4.67,0.65 2.42,0.61 5.44,2.98 3.07,2.38 4.93,6.27 3.55,7.52 3.55,20.75 0,12.93 -3.29,19.97 -4.8,10.29 -15.39,10.29 -3.98,0 -8.04,-2.03 -4.02,-2.03 -6.57,-6.92 -3.98,-7.3 -3.98,-21.31 m 7.35,-1.08 q 0,13.36 0.95,18.68 1.08,5.75 4.02,8.25 2.98,2.47 6.27,2.47 3.54,0 6.48,-2.64 2.99,-2.68 3.9,-8.43 0.99,-5.66 0.95,-18.33 0,-12.32 -0.87,-17.25 -1.17,-5.75 -4.28,-8.04 -3.07,-2.33 -6.18,-2.33 -1.17,0 -2.42,0.34 -1.21,0.35 -2.98,1.34 -1.78,1 -3.16,3.46 -1.34,2.47 -1.99,6.18 -0.69,4.8 -0.69,16.3 z"
     fill="#000000"
     fill-rule="evenodd"
     fill-opacity="1"
     id="path63"
     transform="translate(75.5896,-47.2441)" />
  <path
     clip-path="url(#clip060)"
     d="m 1810.49,1481.8 q -1.34,-1.42 -1.34,-3.28 0,-1.86 1.34,-3.2 1.34,-1.39 3.38,-1.39 1.94,0 3.24,1.3 1.34,1.25 1.34,3.33 0,2.03 -1.43,3.37 -1.38,1.3 -3.15,1.3 -2.04,0 -3.38,-1.43 z"
     fill="#000000"
     fill-rule="evenodd"
     fill-opacity="1"
     id="path65"
     transform="translate(75.5896,-47.2441)" />
  <path
     clip-path="url(#clip060)"
     d="m 1829.69,1454.91 q 0,-13.01 3.28,-20.1 4.59,-10.55 15.39,-10.55 2.29,0 4.67,0.65 2.42,0.61 5.45,2.98 3.07,2.38 4.93,6.27 3.54,7.52 3.54,20.75 0,12.93 -3.28,19.97 -4.8,10.29 -15.39,10.29 -3.98,0 -8.04,-2.03 -4.02,-2.03 -6.58,-6.92 -3.97,-7.3 -3.97,-21.31 m 7.35,-1.08 q 0,13.36 0.95,18.68 1.08,5.75 4.02,8.25 2.98,2.47 6.27,2.47 3.54,0 6.48,-2.64 2.98,-2.68 3.89,-8.43 1,-5.66 0.95,-18.33 0,-12.32 -0.86,-17.25 -1.17,-5.75 -4.28,-8.04 -3.07,-2.33 -6.18,-2.33 -1.17,0 -2.42,0.34 -1.21,0.35 -2.99,1.34 -1.77,1 -3.15,3.46 -1.34,2.47 -1.99,6.18 -0.69,4.8 -0.69,16.3 z"
     fill="#000000"
     fill-rule="evenodd"
     fill-opacity="1"
     id="path67"
     transform="translate(75.5896,-47.2441)" />
  <path
     clip-path="url(#clip060)"
     d="m 1873.96,1454.91 q 0,-13.01 3.28,-20.1 4.58,-10.55 15.39,-10.55 2.29,0 4.67,0.65 2.42,0.61 5.45,2.98 3.07,2.38 4.93,6.27 3.54,7.52 3.54,20.75 0,12.93 -3.28,19.97 -4.8,10.29 -15.39,10.29 -3.98,0 -8.05,-2.03 -4.02,-2.03 -6.57,-6.92 -3.97,-7.3 -3.97,-21.31 m 7.35,-1.08 q 0,13.36 0.95,18.68 1.08,5.75 4.02,8.25 2.98,2.47 6.27,2.47 3.54,0 6.48,-2.64 2.98,-2.68 3.89,-8.43 0.99,-5.66 0.95,-18.33 0,-12.32 -0.86,-17.25 -1.17,-5.75 -4.28,-8.04 -3.07,-2.33 -6.18,-2.33 -1.17,0 -2.43,0.34 -1.21,0.35 -2.98,1.34 -1.77,1 -3.15,3.46 -1.34,2.47 -1.99,6.18 -0.69,4.8 -0.69,16.3 z"
     fill="#000000"
     fill-rule="evenodd"
     fill-opacity="1"
     id="path69"
     transform="translate(75.5896,-47.2441)" />
  <path
     clip-path="url(#clip060)"
     d="m 1917.23,1468.62 v -2.73 l 27.19,-41.54 q 0.69,-1.08 1.77,-1.04 1,0 1.22,0.39 0.21,0.39 0.21,1.9 v 40.29 h 8.86 v 2.73 h -8.86 v 7.69 q 0,2.55 1.04,3.37 1.08,0.82 5.66,0.82 h 1.86 v 2.73 q -3.63,-0.26 -12.02,-0.26 -8.34,0 -11.97,0.26 v -2.73 h 1.86 q 4.58,0 5.66,-0.77 1.08,-0.82 1.08,-3.42 v -7.69 h -23.56 m 2.51,-2.73 h 21.57 v -33.03 z"
     fill="#000000"
     fill-rule="evenodd"
     fill-opacity="1"
     id="path71"
     transform="translate(75.5896,-47.2441)" />
  <path
     clip-path="url(#clip060)"
     d="m 2194.84,1454.91 q 0,-13.01 3.28,-20.1 4.59,-10.55 15.39,-10.55 2.29,0 4.67,0.65 2.42,0.61 5.45,2.98 3.07,2.38 4.93,6.27 3.54,7.52 3.54,20.75 0,12.93 -3.28,19.97 -4.8,10.29 -15.39,10.29 -3.98,0 -8.04,-2.03 -4.02,-2.03 -6.57,-6.92 -3.98,-7.3 -3.98,-21.31 m 7.35,-1.08 q 0,13.36 0.95,18.68 1.08,5.75 4.02,8.25 2.98,2.47 6.27,2.47 3.54,0 6.48,-2.64 2.98,-2.68 3.89,-8.43 1,-5.66 0.95,-18.33 0,-12.32 -0.86,-17.25 -1.17,-5.75 -4.28,-8.04 -3.07,-2.33 -6.18,-2.33 -1.17,0 -2.42,0.34 -1.21,0.35 -2.99,1.34 -1.77,1 -3.15,3.46 -1.34,2.47 -1.99,6.18 -0.69,4.8 -0.69,16.3 z"
     fill="#000000"
     fill-rule="evenodd"
     fill-opacity="1"
     id="path73"
     transform="translate(75.5896,-47.2441)" />
  <path
     clip-path="url(#clip060)"
     d="m 2244.51,1481.8 q -1.34,-1.42 -1.34,-3.28 0,-1.86 1.34,-3.2 1.34,-1.39 3.37,-1.39 1.95,0 3.24,1.3 1.34,1.25 1.34,3.33 0,2.03 -1.42,3.37 -1.39,1.3 -3.16,1.3 -2.03,0 -3.37,-1.43 z"
     fill="#000000"
     fill-rule="evenodd"
     fill-opacity="1"
     id="path75"
     transform="translate(75.5896,-47.2441)" />
  <path
     clip-path="url(#clip060)"
     d="m 2263.7,1454.91 q 0,-13.01 3.29,-20.1 4.58,-10.55 15.39,-10.55 2.29,0 4.67,0.65 2.42,0.61 5.45,2.98 3.07,2.38 4.92,6.27 3.55,7.52 3.55,20.75 0,12.93 -3.29,19.97 -4.79,10.29 -15.39,10.29 -3.97,0 -8.04,-2.03 -4.02,-2.03 -6.57,-6.92 -3.98,-7.3 -3.98,-21.31 m 7.35,-1.08 q 0,13.36 0.95,18.68 1.09,5.75 4.03,8.25 2.98,2.47 6.26,2.47 3.55,0 6.49,-2.64 2.98,-2.68 3.89,-8.43 0.99,-5.66 0.95,-18.33 0,-12.32 -0.86,-17.25 -1.17,-5.75 -4.28,-8.04 -3.07,-2.33 -6.19,-2.33 -1.16,0 -2.42,0.34 -1.21,0.35 -2.98,1.34 -1.77,1 -3.16,3.46 -1.34,2.47 -1.98,6.18 -0.7,4.8 -0.7,16.3 z"
     fill="#000000"
     fill-rule="evenodd"
     fill-opacity="1"
     id="path77"
     transform="translate(75.5896,-47.2441)" />
  <path
     clip-path="url(#clip060)"
     d="m 2307.97,1454.91 q 0,-13.01 3.29,-20.1 4.58,-10.55 15.39,-10.55 2.29,0 4.67,0.65 2.42,0.61 5.44,2.98 3.07,2.38 4.93,6.27 3.55,7.52 3.55,20.75 0,12.93 -3.29,19.97 -4.8,10.29 -15.39,10.29 -3.97,0 -8.04,-2.03 -4.02,-2.03 -6.57,-6.92 -3.98,-7.3 -3.98,-21.31 m 7.35,-1.08 q 0,13.36 0.95,18.68 1.08,5.75 4.02,8.25 2.99,2.47 6.27,2.47 3.55,0 6.49,-2.64 2.98,-2.68 3.89,-8.43 0.99,-5.66 0.95,-18.33 0,-12.32 -0.87,-17.25 -1.16,-5.75 -4.28,-8.04 -3.07,-2.33 -6.18,-2.33 -1.16,0 -2.42,0.34 -1.21,0.35 -2.98,1.34 -1.77,1 -3.16,3.46 -1.34,2.47 -1.99,6.18 -0.69,4.8 -0.69,16.3 z"
     fill="#000000"
     fill-rule="evenodd"
     fill-opacity="1"
     id="path79"
     transform="translate(75.5896,-47.2441)" />
  <path
     clip-path="url(#clip060)"
     d="m 2353.19,1468.96 q 0,-2.63 1.43,-3.63 1.43,-1.04 2.94,-1.04 2.03,0 3.2,1.3 1.21,1.25 1.21,3.03 0,1.77 -1.21,3.07 -1.17,1.25 -3.2,1.25 -1,0 -1.51,-0.17 1.16,4.06 4.71,7 3.59,2.94 8.3,2.94 5.92,0 9.47,-5.75 2.11,-3.72 2.11,-12.15 0,-7.43 -1.6,-11.15 -2.46,-5.66 -7.52,-5.66 -7.17,0 -11.41,6.18 -0.52,0.78 -1.12,0.82 -0.87,0 -1.09,-0.48 -0.17,-0.52 -0.17,-1.86 v -26.19 q 0,-2.12 0.87,-2.12 0.34,0 1.08,0.26 5.57,2.46 11.76,2.5 6.35,0 12.06,-2.59 0.43,-0.26 0.69,-0.26 0.86,0 0.91,1 0,0.34 -0.74,1.38 -0.69,0.99 -2.2,2.33 -1.52,1.3 -3.46,2.55 -1.95,1.26 -4.8,2.12 -2.81,0.82 -5.92,0.82 -3.72,0 -7.52,-1.16 v 17.25 q 4.58,-4.5 11.24,-4.5 7.09,0 11.97,5.71 4.89,5.7 4.89,13.66 0,8.34 -5.8,14.05 -5.75,5.7 -13.53,5.7 -7.09,0 -11.58,-5.05 -4.46,-5.06 -4.46,-11.16 z"
     fill="#000000"
     fill-rule="evenodd"
     fill-opacity="1"
     id="path81"
     transform="translate(75.5896,-47.2441)" />
  <path
     clip-path="url(#clip060)"
     d="m 1241.58,1507.17 q 0,0.78 -0.33,1.15 -0.33,0.33 -0.69,0.41 -0.37,0.04 -1.23,0.04 -1.77,0 -2.71,0.12 -0.94,0.13 -1.52,0.66 -0.57,0.49 -0.77,0.98 -0.17,0.5 -0.46,1.77 l -9.83,39.18 q -1.52,6.03 -7.01,9.96 -5.49,3.9 -11.52,3.9 -4.92,0 -8.03,-2.59 -3.08,-2.62 -3.08,-6.55 0,-2.01 0.66,-3.45 0.65,-1.43 1.64,-2.09 0.98,-0.65 1.8,-0.9 0.86,-0.29 1.56,-0.29 1.35,0 2.5,0.86 1.19,0.87 1.19,2.67 0,2.01 -1.56,3.69 -1.56,1.68 -3.89,1.68 -0.78,0 -1.03,-0.08 0.62,2.01 2.21,3.28 1.6,1.23 3,1.59 1.43,0.33 2.78,0.33 3.53,0 7.1,-3.4 3.56,-3.4 5,-9.18 l 9.63,-38.53 q 0.33,-1.31 0.33,-1.76 0,-0.86 -0.54,-1.15 -0.49,-0.33 -2.05,-0.53 -2.09,-0.17 -4.87,-0.17 -0.99,0 -1.4,0 -0.41,-0.04 -0.82,-0.12 -0.41,-0.08 -0.53,-0.25 -0.12,-0.2 -0.12,-0.57 0,-0.78 0.32,-1.15 0.33,-0.41 0.62,-0.45 0.29,-0.08 0.82,-0.08 l 12.34,0.24 q 1.06,0 4.67,-0.12 3.61,-0.12 4.67,-0.12 1.15,0 1.15,1.02 z"
     fill="#000000"
     fill-rule="evenodd"
     fill-opacity="1"
     id="path83"
     transform="translate(75.5896,-47.2441)" />
  <path
     clip-path="url(#clip060)"
     d="m 1291.8,1549.11 -3.7,14.98 q -0.26,0.95 -0.43,1.06 -0.15,0.12 -0.6,0.12 -0.89,0 -0.89,-0.6 0,-0.06 0.08,-0.81 0.09,-0.77 0.09,-2.18 0,-5.19 -2.53,-8.26 -2.49,-3.07 -6.94,-3.07 -4.16,0 -8.15,2.18 -3.99,2.18 -6.54,5.39 -2.15,2.64 -3.65,5.86 -1.46,3.21 -2.06,6.02 -0.6,2.78 -0.83,4.48 -0.2,1.69 -0.2,2.78 0,3.21 1.03,5.71 1.03,2.47 2.75,3.87 1.75,1.41 3.76,2.1 2.04,0.69 4.25,0.69 0.83,0 1.84,-0.12 1,-0.11 2.55,-0.54 1.58,-0.43 2.87,-1.15 1.32,-0.72 2.47,-2.1 1.17,-1.37 1.63,-3.21 1.23,-4.68 1.23,-5.36 0,-0.58 -0.34,-0.78 -0.34,-0.2 -1.49,-0.34 l -3.1,-0.12 q -0.06,0 -0.14,0 -0.55,0 -0.78,0 -0.23,-0.03 -0.49,-0.08 -0.23,-0.06 -0.31,-0.18 -0.06,-0.14 -0.06,-0.37 0,-0.54 0.23,-0.8 0.23,-0.29 0.43,-0.32 0.2,-0.06 0.57,-0.06 l 8.24,0.18 q 0.66,0 3.07,-0.09 2.41,-0.09 3.1,-0.09 0.77,0 0.77,0.64 0,1.17 -0.94,1.17 -0.95,0.03 -1.44,0.06 -0.49,0 -0.97,0.14 -0.46,0.15 -0.64,0.26 -0.17,0.09 -0.4,0.52 -0.23,0.4 -0.31,0.74 -0.09,0.32 -0.29,1.12 -0.11,0.52 -0.4,1.49 -0.26,0.98 -0.37,1.5 l -1.12,4.53 q -0.78,3.36 -1.01,3.59 -0.11,0.23 -0.4,0.23 -0.43,0 -1.35,-1.27 -0.89,-1.26 -1.29,-2.38 -0.72,0.78 -1.18,1.24 -0.45,0.43 -1.52,1.11 -1.03,0.69 -2.41,1.24 -3.35,1.4 -7.34,1.4 -7.12,0 -11.59,-4.5 -4.48,-4.53 -4.48,-11.59 0,-4.99 2.3,-9.9 2.29,-4.91 5.94,-8.55 3.64,-3.65 8.46,-5.91 4.82,-2.27 9.64,-2.27 1.84,0 3.47,0.49 1.64,0.49 2.61,1.09 1.01,0.6 1.9,1.49 0.89,0.86 1.17,1.26 0.32,0.41 0.61,0.89 l 4.1,-4.5 q 0.72,-0.72 0.89,-0.72 0.34,0 0.49,0.2 0.14,0.2 0.14,0.4 z"
     fill="#000000"
     fill-rule="evenodd"
     fill-opacity="1"
     id="path85"
     transform="translate(75.5896,-47.2441)" />
  <path
     clip-path="url(#clip060)"
     d="m 1345.34,1550.46 q 0,0.38 -0.08,0.63 -0.09,0.23 -0.29,0.35 -0.2,0.11 -0.31,0.14 -0.12,0.03 -0.38,0.06 -1.23,0.11 -2.09,0.31 -0.83,0.21 -2.9,1.24 -2.04,1.03 -4.59,2.9 l -10.27,7.94 -1.72,1.35 q 0,0.09 0.05,0.26 0.06,0.14 0.12,0.34 0.08,0.18 0.11,0.23 l 8.35,19.26 q 0.66,1.55 1.47,2.09 0.8,0.55 2.61,0.58 0.28,0 0.4,0.02 0.14,0 0.34,0.06 0.23,0.03 0.32,0.17 0.11,0.15 0.11,0.38 0,1.17 -1.06,1.17 -0.66,0 -2.9,-0.08 -2.23,-0.09 -2.87,-0.09 -1.17,0 -3.58,0.09 -2.41,0.08 -3.59,0.08 -0.83,0 -0.83,-0.66 0,-0.54 0.2,-0.8 0.23,-0.29 0.43,-0.32 0.2,-0.02 0.66,-0.02 0.34,0 0.72,-0.03 0.4,-0.06 0.97,-0.2 0.61,-0.18 0.98,-0.58 0.4,-0.43 0.4,-1.03 0,-0.49 -0.72,-2.07 l -6.8,-15.81 -8.75,6.83 -2.35,9.24 q -0.06,0.35 -0.2,0.95 -0.15,0.6 -0.26,1.03 -0.09,0.43 -0.09,0.6 0,0.38 0.23,0.61 0.26,0.23 0.89,0.34 0.63,0.09 1.12,0.12 0.52,0 1.58,0 1.32,0 1.55,0.23 0.11,0.14 0.11,0.4 0,0.4 -0.11,0.69 -0.12,0.25 -0.34,0.34 -0.21,0.09 -0.35,0.11 -0.14,0.03 -0.37,0.03 -0.6,0 -1.9,-0.05 -1.26,-0.06 -1.92,-0.06 l -3.76,-0.06 -7.46,0.17 q -0.89,0 -0.89,-0.71 0,-0.55 0.23,-0.78 0.23,-0.26 0.49,-0.29 0.26,-0.02 0.92,-0.02 1.43,0 2.29,-0.09 0.87,-0.09 1.41,-0.2 0.57,-0.14 0.86,-0.55 0.32,-0.4 0.46,-0.74 0.14,-0.38 0.34,-1.21 l 7.87,-31.56 q 0.23,-0.95 0.23,-1.09 0,-0.49 -0.29,-0.66 -0.26,-0.2 -1.01,-0.29 -1.43,-0.11 -2.52,-0.11 -0.72,0 -1,-0.03 -0.26,-0.03 -0.49,-0.17 -0.2,-0.17 -0.2,-0.52 0,-1.12 1.17,-1.12 l 7.58,0.17 7.52,-0.17 q 0.83,0 0.83,0.66 0,0.83 -0.4,1.01 -0.38,0.17 -1.61,0.17 -2.15,0 -3.13,0.29 -0.95,0.25 -1.23,0.71 -0.26,0.43 -0.58,1.7 l -4.7,18.85 22.92,-17.62 q 2.13,-1.78 2.13,-2.7 0,-0.6 -0.43,-0.86 -0.41,-0.29 -1.41,-0.37 -0.72,-0.12 -0.72,-0.66 0,-0.55 0.2,-0.8 0.23,-0.29 0.41,-0.32 0.2,-0.06 0.51,-0.06 1.06,0 3.27,0.09 2.21,0.08 3.27,0.08 0.72,0 2.13,-0.08 1.4,-0.09 2.03,-0.09 0.32,0 0.49,0.23 0.17,0.2 0.17,0.43 z"
     fill="#000000"
     fill-rule="evenodd"
     fill-opacity="1"
     id="path87"
     transform="translate(75.5896,-47.2441)" />
  <polyline
     clip-path="url(#clip060)"
     style="fill:none;stroke:#000000;stroke-width:4;stroke-linecap:butt;stroke-linejoin:round;stroke-opacity:1"
     points="   195.329,1388.43 195.329,47.2441    "
     id="polyline89"
     transform="translate(75.5896,-47.2441)" />
  <polyline
     clip-path="url(#clip060)"
     style="fill:none;stroke:#000000;stroke-width:4;stroke-linecap:butt;stroke-linejoin:round;stroke-opacity:1"
     points="   195.329,1352.73 214.226,1352.73    "
     id="polyline91"
     transform="translate(75.5896,-47.2441)" />
  <polyline
     clip-path="url(#clip060)"
     style="fill:none;stroke:#000000;stroke-width:4;stroke-linecap:butt;stroke-linejoin:round;stroke-opacity:1"
     points="   195.329,1178.83 214.226,1178.83    "
     id="polyline93"
     transform="translate(75.5896,-47.2441)" />
  <polyline
     clip-path="url(#clip060)"
     style="fill:none;stroke:#000000;stroke-width:4;stroke-linecap:butt;stroke-linejoin:round;stroke-opacity:1"
     points="   195.329,1004.92 214.226,1004.92    "
     id="polyline95"
     transform="translate(75.5896,-47.2441)" />
  <polyline
     clip-path="url(#clip060)"
     style="fill:none;stroke:#000000;stroke-width:4;stroke-linecap:butt;stroke-linejoin:round;stroke-opacity:1"
     points="   195.329,831.016 214.226,831.016    "
     id="polyline97"
     transform="translate(75.5896,-47.2441)" />
  <polyline
     clip-path="url(#clip060)"
     style="fill:none;stroke:#000000;stroke-width:4;stroke-linecap:butt;stroke-linejoin:round;stroke-opacity:1"
     points="   195.329,657.111 214.226,657.111    "
     id="polyline99"
     transform="translate(75.5896,-47.2441)" />
  <polyline
     clip-path="url(#clip060)"
     style="fill:none;stroke:#000000;stroke-width:4;stroke-linecap:butt;stroke-linejoin:round;stroke-opacity:1"
     points="   195.329,483.206 214.226,483.206    "
     id="polyline101"
     transform="translate(75.5896,-47.2441)" />
  <polyline
     clip-path="url(#clip060)"
     style="fill:none;stroke:#000000;stroke-width:4;stroke-linecap:butt;stroke-linejoin:round;stroke-opacity:1"
     points="   195.329,309.301 214.226,309.301    "
     id="polyline103"
     transform="translate(75.5896,-47.2441)" />
  <polyline
     clip-path="url(#clip060)"
     style="fill:none;stroke:#000000;stroke-width:4;stroke-linecap:butt;stroke-linejoin:round;stroke-opacity:1"
     points="   195.329,135.395 214.226,135.395    "
     id="polyline105"
     transform="translate(75.5896,-47.2441)" />
  <path
     clip-path="url(#clip060)"
     d="m 53.1969,1354.65 q 0,-13.01 3.2855,-20.1 4.5825,-10.55 15.3902,-10.55 2.2913,0 4.669,0.65 2.4209,0.61 5.4471,2.99 3.0694,2.37 4.9283,6.26 3.5449,7.53 3.5449,20.75 0,12.93 -3.2855,19.98 -4.7987,10.29 -15.3902,10.29 -3.9773,0 -8.041,-2.04 -4.0204,-2.03 -6.5711,-6.91 -3.9772,-7.31 -3.9772,-21.32 m 7.3493,-1.08 q 0,13.36 0.951,18.68 1.0808,5.75 4.0205,8.26 2.9829,2.46 6.2685,2.46 3.5449,0 6.4846,-2.64 2.9829,-2.68 3.8908,-8.43 0.9943,-5.66 0.9511,-18.33 0,-12.32 -0.8646,-17.25 -1.1673,-5.74 -4.2799,-8.04 -3.0694,-2.33 -6.182,-2.33 -1.1673,0 -2.421,0.35 -1.2104,0.34 -2.9829,1.34 -1.7724,0.99 -3.1558,3.45 -1.3402,2.47 -1.9887,6.19 -0.6916,4.79 -0.6916,16.29 z"
     fill="#000000"
     fill-rule="evenodd"
     fill-opacity="1"
     id="path107"
     transform="translate(75.5896,-47.2441)" />
  <path
     clip-path="url(#clip060)"
     d="m 102.869,1381.54 q -1.34,-1.42 -1.34,-3.28 0,-1.86 1.34,-3.2 1.34,-1.38 3.372,-1.38 1.946,0 3.243,1.29 1.34,1.26 1.34,3.33 0,2.03 -1.427,3.37 -1.383,1.3 -3.156,1.3 -2.032,0 -3.372,-1.43 z"
     fill="#000000"
     fill-rule="evenodd"
     fill-opacity="1"
     id="path109"
     transform="translate(75.5896,-47.2441)" />
  <path
     clip-path="url(#clip060)"
     d="m 122.064,1354.65 q 0,-13.01 3.285,-20.1 4.583,-10.55 15.39,-10.55 2.292,0 4.669,0.65 2.421,0.61 5.447,2.99 3.07,2.37 4.929,6.26 3.545,7.53 3.545,20.75 0,12.93 -3.286,19.98 -4.798,10.29 -15.39,10.29 -3.977,0 -8.041,-2.04 -4.02,-2.03 -6.571,-6.91 -3.977,-7.31 -3.977,-21.32 m 7.349,-1.08 q 0,13.36 0.951,18.68 1.081,5.75 4.02,8.26 2.983,2.46 6.269,2.46 3.545,0 6.485,-2.64 2.983,-2.68 3.89,-8.43 0.995,-5.66 0.951,-18.33 0,-12.32 -0.864,-17.25 -1.167,-5.74 -4.28,-8.04 -3.069,-2.33 -6.182,-2.33 -1.167,0 -2.421,0.35 -1.21,0.34 -2.983,1.34 -1.772,0.99 -3.156,3.45 -1.34,2.47 -1.988,6.19 -0.692,4.79 -0.692,16.29 z"
     fill="#000000"
     fill-rule="evenodd"
     fill-opacity="1"
     id="path111"
     transform="translate(75.5896,-47.2441)" />
  <path
     clip-path="url(#clip060)"
     d="m 56.8283,1180.75 q 0,-13.01 3.2855,-20.1 4.5825,-10.55 15.3902,-10.55 2.2913,0 4.669,0.65 2.4209,0.6 5.4471,2.98 3.0694,2.38 4.9283,6.27 3.5449,7.52 3.5449,20.75 0,12.93 -3.2855,19.97 -4.7987,10.29 -15.3902,10.29 -3.9773,0 -8.041,-2.03 -4.0204,-2.03 -6.5711,-6.92 -3.9772,-7.3 -3.9772,-21.31 m 7.3492,-1.08 q 0,13.36 0.9511,18.67 1.0808,5.75 4.0205,8.26 2.9829,2.47 6.2685,2.47 3.5449,0 6.4846,-2.64 2.9829,-2.68 3.8908,-8.43 0.9943,-5.66 0.9511,-18.33 0,-12.32 -0.8647,-17.25 -1.1672,-5.75 -4.2798,-8.04 -3.0694,-2.34 -6.182,-2.34 -1.1673,0 -2.421,0.35 -1.2104,0.35 -2.9829,1.34 -1.7725,0.99 -3.1558,3.46 -1.3402,2.46 -1.9887,6.18 -0.6917,4.8 -0.6917,16.3 z"
     fill="#000000"
     fill-rule="evenodd"
     fill-opacity="1"
     id="path113"
     transform="translate(75.5896,-47.2441)" />
  <path
     clip-path="url(#clip060)"
     d="m 106.501,1207.64 q -1.341,-1.43 -1.341,-3.29 0,-1.86 1.341,-3.2 1.34,-1.38 3.372,-1.38 1.945,0 3.242,1.3 1.34,1.25 1.34,3.33 0,2.03 -1.427,3.37 -1.383,1.3 -3.155,1.3 -2.032,0 -3.372,-1.43 z"
     fill="#000000"
     fill-rule="evenodd"
     fill-opacity="1"
     id="path115"
     transform="translate(75.5896,-47.2441)" />
  <path
     clip-path="url(#clip060)"
     d="m 130.105,1158.53 v -2.77 q 10.634,0 16.125,-5.66 1.513,0 1.772,0.34 0.26,0.35 0.26,1.95 v 49.67 q 0,2.64 1.297,3.46 1.296,0.82 6.96,0.82 h 2.81 v 2.73 q -3.113,-0.26 -14.353,-0.26 -11.24,0 -14.309,0.26 v -2.73 h 2.81 q 5.576,0 6.917,-0.78 1.34,-0.82 1.34,-3.5 v -45.87 q -4.626,2.34 -11.629,2.34 z"
     fill="#000000"
     fill-rule="evenodd"
     fill-opacity="1"
     id="path117"
     transform="translate(75.5896,-47.2441)" />
  <path
     clip-path="url(#clip060)"
     d="m 54.148,1006.84 q 0,-13.008 3.2855,-20.098 4.5825,-10.548 15.3902,-10.548 2.2913,0 4.669,0.648 2.4209,0.606 5.447,2.983 3.0694,2.378 4.9284,6.269 3.5449,7.522 3.5449,20.746 0,12.93 -3.2855,19.98 -4.7987,10.29 -15.3902,10.29 -3.9773,0 -8.041,-2.04 -4.0205,-2.03 -6.5711,-6.91 -3.9772,-7.31 -3.9772,-21.32 m 7.3492,-1.08 q 0,13.36 0.9511,18.68 1.0808,5.75 4.0205,8.26 2.9829,2.46 6.2685,2.46 3.5449,0 6.4846,-2.64 2.9829,-2.68 3.8908,-8.43 0.9943,-5.66 0.951,-18.33 0,-12.317 -0.8646,-17.245 -1.1672,-5.75 -4.2798,-8.041 -3.0694,-2.335 -6.182,-2.335 -1.1673,0 -2.421,0.346 -1.2104,0.346 -2.9829,1.34 -1.7725,0.995 -3.1559,3.459 -1.3401,2.464 -1.9886,6.182 -0.6917,4.799 -0.6917,16.294 z"
     fill="#000000"
     fill-rule="evenodd"
     fill-opacity="1"
     id="path119"
     transform="translate(75.5896,-47.2441)" />
  <path
     clip-path="url(#clip060)"
     d="m 103.82,1033.73 q -1.34,-1.42 -1.34,-3.28 0,-1.86 1.34,-3.2 1.34,-1.38 3.372,-1.38 1.946,0 3.243,1.29 1.34,1.26 1.34,3.33 0,2.03 -1.427,3.37 -1.383,1.3 -3.156,1.3 -2.032,0 -3.372,-1.43 z"
     fill="#000000"
     fill-rule="evenodd"
     fill-opacity="1"
     id="path121"
     transform="translate(75.5896,-47.2441)" />
  <path
     clip-path="url(#clip060)"
     d="m 123.966,1035.16 q 0,-1.6 0.13,-2.07 0.172,-0.48 0.864,-1.21 l 16.99,-18.94 q 9.295,-10.46 9.295,-19.583 0,-5.923 -3.113,-10.16 -3.069,-4.236 -8.733,-4.236 -3.891,0 -7.176,2.377 -3.286,2.378 -4.799,6.615 0.26,-0.087 1.168,-0.087 2.204,0 3.415,1.384 1.253,1.383 1.253,3.242 0,2.378 -1.556,3.545 -1.513,1.124 -3.026,1.124 -0.605,0 -1.427,-0.13 -0.778,-0.129 -2.031,-1.34 -1.254,-1.254 -1.254,-3.458 0,-6.182 4.669,-11.111 4.712,-4.928 11.888,-4.928 8.128,0 13.445,4.842 5.361,4.798 5.361,12.321 0,2.637 -0.822,5.058 -0.778,2.375 -1.859,4.235 -1.037,1.86 -3.89,4.84 -2.854,2.99 -5.145,5.1 -2.291,2.12 -7.436,6.62 l -9.381,9.12 h 15.953 q 7.781,0 8.386,-0.69 0.865,-1.25 1.946,-7.87 h 2.248 l -2.508,15.39 z"
     fill="#000000"
     fill-rule="evenodd"
     fill-opacity="1"
     id="path123"
     transform="translate(75.5896,-47.2441)" />
  <path
     clip-path="url(#clip060)"
     d="m 53.4563,832.94 q 0,-13.013 3.2855,-20.103 4.5825,-10.548 15.3902,-10.548 2.2913,0 4.669,0.648 2.4209,0.606 5.4471,2.983 3.0693,2.378 4.9283,6.269 3.5449,7.522 3.5449,20.751 0,12.926 -3.2855,19.972 -4.7987,10.289 -15.3902,10.289 -3.9773,0 -8.041,-2.032 -4.0205,-2.031 -6.5711,-6.917 -3.9772,-7.306 -3.9772,-21.312 m 7.3492,-1.081 q 0,13.358 0.9511,18.676 1.0808,5.749 4.0205,8.257 2.9829,2.464 6.2685,2.464 3.5449,0 6.4846,-2.637 2.9829,-2.681 3.8908,-8.43 0.9943,-5.664 0.9511,-18.33 0,-12.321 -0.8647,-17.249 -1.1672,-5.75 -4.2798,-8.041 -3.0694,-2.335 -6.182,-2.335 -1.1673,0 -2.421,0.346 -1.2104,0.346 -2.9829,1.34 -1.7725,0.995 -3.1558,3.459 -1.3402,2.464 -1.9887,6.182 -0.6917,4.798 -0.6917,16.298 z"
     fill="#000000"
     fill-rule="evenodd"
     fill-opacity="1"
     id="path125"
     transform="translate(75.5896,-47.2441)" />
  <path
     clip-path="url(#clip060)"
     d="m 103.129,859.829 q -1.341,-1.426 -1.341,-3.285 0,-1.859 1.341,-3.199 1.34,-1.384 3.372,-1.384 1.945,0 3.242,1.297 1.34,1.254 1.34,3.329 0,2.032 -1.427,3.372 -1.383,1.297 -3.155,1.297 -2.032,0 -3.372,-1.427 z"
     fill="#000000"
     fill-rule="evenodd"
     fill-opacity="1"
     id="path127"
     transform="translate(75.5896,-47.2441)" />
  <path
     clip-path="url(#clip060)"
     d="m 122.582,849.324 q 0,-2.637 1.514,-3.891 1.513,-1.253 3.458,-1.253 2.032,0 3.458,1.34 1.47,1.297 1.47,3.588 0,2.464 -1.729,3.848 -1.686,1.383 -4.107,1.037 2.118,3.545 6.009,5.145 3.934,1.599 7.566,1.599 3.804,0 6.873,-3.285 3.113,-3.286 3.113,-11.327 0,-6.83 -2.68,-10.764 -2.637,-3.934 -7.868,-3.934 h -3.891 q -1.34,0 -1.729,-0.13 -0.389,-0.13 -0.389,-0.865 0,-0.864 1.34,-1.037 1.34,0 3.458,-0.26 5.145,-0.173 7.868,-4.625 2.464,-4.151 2.464,-10.073 0,-5.404 -2.593,-7.652 -2.551,-2.291 -5.88,-2.291 -3.113,0 -6.528,1.297 -3.415,1.297 -5.274,4.193 5.49,0 5.49,4.453 0,1.945 -1.253,3.242 -1.211,1.254 -3.243,1.254 -1.945,0 -3.242,-1.211 -1.297,-1.253 -1.297,-3.372 0,-5.058 4.496,-8.559 4.539,-3.502 11.197,-3.502 6.571,0 11.413,3.458 4.885,3.459 4.885,8.776 0,5.231 -3.458,9.511 -3.459,4.28 -8.949,6.052 6.744,1.341 10.764,5.923 4.021,4.539 4.021,10.116 0,6.917 -5.447,12.018 -5.447,5.058 -13.402,5.058 -7.349,0 -12.623,-3.977 -5.275,-3.977 -5.275,-9.9 z"
     fill="#000000"
     fill-rule="evenodd"
     fill-opacity="1"
     id="path129"
     transform="translate(75.5896,-47.2441)" />
  <path
     clip-path="url(#clip060)"
     d="m 52.2026,659.035 q 0,-13.013 3.2855,-20.103 4.5825,-10.548 15.3902,-10.548 2.2913,0 4.669,0.648 2.4209,0.606 5.4471,2.983 3.0693,2.378 4.9283,6.269 3.5449,7.522 3.5449,20.751 0,12.926 -3.2855,19.972 -4.7987,10.289 -15.3902,10.289 -3.9773,0 -8.041,-2.032 -4.0204,-2.032 -6.5711,-6.917 -3.9772,-7.306 -3.9772,-21.312 m 7.3492,-1.081 q 0,13.358 0.9511,18.675 1.0808,5.75 4.0205,8.258 2.9829,2.464 6.2685,2.464 3.5449,0 6.4846,-2.637 2.9829,-2.681 3.8908,-8.43 0.9943,-5.664 0.9511,-18.33 0,-12.321 -0.8647,-17.249 -1.1672,-5.75 -4.2798,-8.041 -3.0694,-2.335 -6.182,-2.335 -1.1673,0 -2.421,0.346 -1.2104,0.346 -2.9829,1.34 -1.7725,0.995 -3.1558,3.459 -1.3402,2.464 -1.9887,6.182 -0.6917,4.798 -0.6917,16.298 z"
     fill="#000000"
     fill-rule="evenodd"
     fill-opacity="1"
     id="path131"
     transform="translate(75.5896,-47.2441)" />
  <path
     clip-path="url(#clip060)"
     d="m 101.875,685.924 q -1.34,-1.426 -1.34,-3.285 0,-1.859 1.34,-3.199 1.34,-1.384 3.372,-1.384 1.945,0 3.242,1.297 1.34,1.254 1.34,3.329 0,2.032 -1.426,3.372 -1.384,1.297 -3.156,1.297 -2.032,0 -3.372,-1.427 z"
     fill="#000000"
     fill-rule="evenodd"
     fill-opacity="1"
     id="path133"
     transform="translate(75.5896,-47.2441)" />
  <path
     clip-path="url(#clip060)"
     d="m 120.075,672.739 v -2.724 l 27.192,-41.545 q 0.692,-1.08 1.773,-1.037 0.994,0 1.21,0.389 0.216,0.389 0.216,1.902 v 40.291 h 8.863 v 2.724 h -8.863 v 7.695 q 0,2.55 1.038,3.372 1.081,0.821 5.663,0.821 h 1.859 v 2.724 q -3.631,-0.26 -12.018,-0.26 -8.344,0 -11.975,0.26 v -2.724 h 1.859 q 4.582,0 5.663,-0.778 1.081,-0.821 1.081,-3.415 v -7.695 h -23.561 m 2.507,-2.724 h 21.573 v -33.028 z"
     fill="#000000"
     fill-rule="evenodd"
     fill-opacity="1"
     id="path135"
     transform="translate(75.5896,-47.2441)" />
  <path
     clip-path="url(#clip060)"
     d="m 54.148,485.129 q 0,-13.012 3.2855,-20.102 4.5825,-10.548 15.3902,-10.548 2.2913,0 4.669,0.648 2.4209,0.605 5.447,2.983 3.0694,2.378 4.9284,6.269 3.5449,7.522 3.5449,20.75 0,12.926 -3.2855,19.973 -4.7987,10.289 -15.3902,10.289 -3.9773,0 -8.041,-2.032 -4.0205,-2.032 -6.5711,-6.917 -3.9772,-7.306 -3.9772,-21.313 m 7.3492,-1.08 q 0,13.358 0.9511,18.675 1.0808,5.75 4.0205,8.258 2.9829,2.464 6.2685,2.464 3.5449,0 6.4846,-2.637 2.9829,-2.681 3.8908,-8.43 0.9943,-5.664 0.951,-18.33 0,-12.321 -0.8646,-17.249 -1.1672,-5.75 -4.2798,-8.041 -3.0694,-2.335 -6.182,-2.335 -1.1673,0 -2.421,0.346 -1.2104,0.346 -2.9829,1.34 -1.7725,0.994 -3.1559,3.459 -1.3401,2.464 -1.9886,6.182 -0.6917,4.798 -0.6917,16.298 z"
     fill="#000000"
     fill-rule="evenodd"
     fill-opacity="1"
     id="path137"
     transform="translate(75.5896,-47.2441)" />
  <path
     clip-path="url(#clip060)"
     d="m 103.82,512.019 q -1.34,-1.427 -1.34,-3.285 0,-1.859 1.34,-3.2 1.34,-1.383 3.372,-1.383 1.946,0 3.243,1.297 1.34,1.254 1.34,3.329 0,2.032 -1.427,3.372 -1.383,1.297 -3.156,1.297 -2.032,0 -3.372,-1.427 z"
     fill="#000000"
     fill-rule="evenodd"
     fill-opacity="1"
     id="path139"
     transform="translate(75.5896,-47.2441)" />
  <path
     clip-path="url(#clip060)"
     d="m 123.966,499.179 q 0,-2.637 1.426,-3.631 1.427,-1.037 2.94,-1.037 2.032,0 3.199,1.296 1.211,1.254 1.211,3.027 0,1.772 -1.211,3.069 -1.167,1.254 -3.199,1.254 -0.994,0 -1.513,-0.173 1.167,4.063 4.712,7.003 3.588,2.94 8.301,2.94 5.922,0 9.467,-5.75 2.118,-3.718 2.118,-12.148 0,-7.435 -1.599,-11.153 -2.464,-5.663 -7.522,-5.663 -7.177,0 -11.413,6.182 -0.519,0.778 -1.124,0.821 -0.865,0 -1.081,-0.476 -0.173,-0.518 -0.173,-1.859 v -26.197 q 0,-2.119 0.865,-2.119 0.346,0 1.08,0.26 5.577,2.464 11.759,2.507 6.355,0 12.062,-2.594 0.432,-0.259 0.691,-0.259 0.865,0 0.908,0.994 0,0.346 -0.735,1.383 -0.691,0.995 -2.204,2.335 -1.514,1.297 -3.459,2.551 -1.945,1.253 -4.799,2.118 -2.81,0.821 -5.922,0.821 -3.718,0 -7.522,-1.167 v 17.249 q 4.582,-4.496 11.24,-4.496 7.09,0 11.975,5.707 4.885,5.706 4.885,13.661 0,8.343 -5.793,14.05 -5.75,5.706 -13.531,5.706 -7.09,0 -11.586,-5.058 -4.453,-5.058 -4.453,-11.154 z"
     fill="#000000"
     fill-rule="evenodd"
     fill-opacity="1"
     id="path141"
     transform="translate(75.5896,-47.2441)" />
  <path
     clip-path="url(#clip060)"
     d="m 53.4563,311.224 q 0,-13.012 3.2855,-20.102 4.5825,-10.548 15.3902,-10.548 2.2913,0 4.669,0.648 2.4209,0.605 5.4471,2.983 3.0693,2.378 4.9283,6.269 3.5449,7.522 3.5449,20.75 0,12.926 -3.2855,19.973 -4.7987,10.289 -15.3902,10.289 -3.9773,0 -8.041,-2.032 -4.0205,-2.032 -6.5711,-6.917 -3.9772,-7.306 -3.9772,-21.313 m 7.3492,-1.08 q 0,13.358 0.9511,18.675 1.0808,5.75 4.0205,8.257 2.9829,2.465 6.2685,2.465 3.5449,0 6.4846,-2.638 2.9829,-2.68 3.8908,-8.43 0.9943,-5.663 0.9511,-18.329 0,-12.321 -0.8647,-17.25 -1.1672,-5.749 -4.2798,-8.04 -3.0694,-2.335 -6.182,-2.335 -1.1673,0 -2.421,0.346 -1.2104,0.346 -2.9829,1.34 -1.7725,0.994 -3.1558,3.459 -1.3402,2.464 -1.9887,6.182 -0.6917,4.798 -0.6917,16.298 z"
     fill="#000000"
     fill-rule="evenodd"
     fill-opacity="1"
     id="path143"
     transform="translate(75.5896,-47.2441)" />
  <path
     clip-path="url(#clip060)"
     d="m 103.129,338.114 q -1.341,-1.427 -1.341,-3.286 0,-1.859 1.341,-3.199 1.34,-1.383 3.372,-1.383 1.945,0 3.242,1.297 1.34,1.254 1.34,3.329 0,2.031 -1.427,3.372 -1.383,1.297 -3.155,1.297 -2.032,0 -3.372,-1.427 z"
     fill="#000000"
     fill-rule="evenodd"
     fill-opacity="1"
     id="path145"
     transform="translate(75.5896,-47.2441)" />
  <path
     clip-path="url(#clip060)"
     d="m 122.582,311.57 q 0,-13.92 7.09,-22.437 7.09,-8.559 16.212,-8.559 5.317,0 8.257,2.723 2.983,2.681 2.983,6.831 0,2.291 -1.34,3.285 -1.34,0.995 -2.724,0.995 -1.599,0 -2.853,-1.081 -1.254,-1.081 -1.254,-3.026 0,-3.978 4.885,-3.978 -2.291,-3.545 -7.781,-3.545 -1.686,0 -3.415,0.519 -1.73,0.476 -3.978,2.119 -2.248,1.642 -3.977,4.236 -1.729,2.594 -2.94,7.479 -1.21,4.885 -1.21,11.24 v 2.118 q 3.631,-8.775 11.067,-8.732 7.436,0 12.58,5.663 5.145,5.663 5.145,14.05 0,8.603 -5.361,14.309 -5.361,5.707 -12.883,5.707 -3.372,0 -6.441,-1.427 -3.026,-1.383 -5.88,-4.582 -2.81,-3.199 -4.496,-9.338 -1.686,-6.139 -1.686,-14.569 m 8.128,7.955 q 0,8.689 1.599,12.839 0.26,0.692 0.822,1.643 0.605,0.951 1.599,2.205 1.038,1.21 2.724,2.032 1.686,0.778 3.631,0.778 5.923,0 8.776,-5.75 1.513,-3.199 1.513,-11.888 0,-8.863 -1.599,-12.105 -2.724,-5.49 -8.257,-5.49 -3.718,0 -6.312,2.55 -2.551,2.551 -3.545,5.966 -0.951,3.415 -0.951,7.22 z"
     fill="#000000"
     fill-rule="evenodd"
     fill-opacity="1"
     id="path147"
     transform="translate(75.5896,-47.2441)" />
  <path
     clip-path="url(#clip060)"
     d="m 50.9921,137.319 q 0,-13.012 3.2856,-20.102 4.5824,-10.548 15.3902,-10.548 2.2912,0 4.6689,0.648 2.4209,0.605 5.4471,2.983 3.0694,2.378 4.9283,6.268 3.5449,7.523 3.5449,20.751 0,12.926 -3.2855,19.973 -4.7986,10.289 -15.3902,10.289 -3.9772,0 -8.0409,-2.032 -4.0205,-2.032 -6.5711,-6.917 -3.9773,-7.306 -3.9773,-21.313 m 7.3493,-1.081 q 0,13.359 0.9511,18.676 1.0807,5.75 4.0204,8.257 2.983,2.464 6.2685,2.464 3.5449,0 6.4846,-2.637 2.983,-2.68 3.8908,-8.43 0.9943,-5.663 0.9511,-18.33 0,-12.32 -0.8646,-17.249 -1.1673,-5.749 -4.2799,-8.041 -3.0694,-2.334 -6.182,-2.334 -1.1672,0 -2.4209,0.346 -1.2105,0.346 -2.983,1.34 -1.7724,0.994 -3.1558,3.458 -1.3402,2.465 -1.9886,6.182 -0.6917,4.799 -0.6917,16.298 z"
     fill="#000000"
     fill-rule="evenodd"
     fill-opacity="1"
     id="path149"
     transform="translate(75.5896,-47.2441)" />
  <path
     clip-path="url(#clip060)"
     d="m 100.664,164.209 q -1.3398,-1.427 -1.3398,-3.286 0,-1.859 1.3398,-3.199 1.341,-1.383 3.372,-1.383 1.946,0 3.243,1.297 1.34,1.253 1.34,3.329 0,2.031 -1.427,3.372 -1.383,1.296 -3.156,1.296 -2.031,0 -3.372,-1.426 z"
     fill="#000000"
     fill-rule="evenodd"
     fill-opacity="1"
     id="path151"
     transform="translate(75.5896,-47.2441)" />
  <path
     clip-path="url(#clip060)"
     d="m 121.372,124.004 2.896,-18.2 h 2.205 q 0.26,1.081 0.692,1.556 0.475,0.476 2.983,0.865 2.55,0.389 7.695,0.389 h 21.486 q 0,2.032 -0.778,3.113 l -11.975,16.816 q -3.805,5.318 -5.491,15.131 -0.994,6.571 -0.951,14.526 v 4.496 q 0,4.885 -4.107,4.885 -4.063,0 -4.063,-4.885 0,-16.903 10.894,-33.288 1.167,-1.686 5.447,-7.695 4.323,-6.009 4.496,-6.269 h -18.33 q -8.041,0 -8.689,0.519 -0.865,0.778 -2.205,8.041 z"
     fill="#000000"
     fill-rule="evenodd"
     fill-opacity="1"
     id="path153"
     transform="translate(75.5896,-47.2441)" />
  <polyline
     clip-path="url(#clip062)"
     style="fill:none;stroke:#000000;stroke-width:4.8;stroke-linecap:butt;stroke-linejoin:round;stroke-opacity:1"
     points="   256.388,85.6876 260.718,85.6441 265.049,85.5862 269.379,85.5355 273.71,85.463 278.04,85.434 282.371,85.3543 286.701,85.3036 291.032,85.2384 295.362,85.2021    299.692,102.238 304.023,147.88 308.353,193.741 312.684,236.811 317.014,277.824 321.345,311.924 325.675,332.814 330.006,352.668 334.336,370.53 338.666,384.167    342.997,392.05 347.327,394.739 351.658,398.412 355.988,405.398 360.319,366.298 364.649,368.631 368.98,362.82 373.31,374.863 377.64,363.095 381.971,358.661    386.301,356.197 390.632,354.4 394.962,353.103 399.293,352.502 403.623,352.277 407.954,352.291 412.284,352.465 416.614,352.574 420.945,353.096 425.275,355.096    429.606,359.074 433.936,362.175 438.267,366.139 442.597,381.42 446.928,397.115 451.258,423.643 455.588,445.628 459.919,466.924 464.249,487.234 468.58,511.523    472.91,528.088 477.241,541.015 481.571,553.492 485.902,571.223 490.232,593.556 494.562,609.432 498.893,624.583 503.223,639.771 507.554,654.183 511.884,668.226    516.215,643.843 520.545,650.879 524.875,663.089 529.206,673.9 533.536,683.298 537.867,693.884 542.197,704.203 546.528,712.623 550.858,720.803 555.189,728.709    559.519,736.578 563.849,744.592 568.18,752.751 572.51,760.91 576.841,753.853 581.171,751.534 585.502,752.15 589.832,761.751 594.163,768.656 598.493,740.629    602.823,741.716 607.154,761.751 611.484,771.337 615.815,777.352 620.145,782.38 624.476,787.134 628.806,791.706 633.137,795.445 637.467,804.321 641.797,815.959    646.128,822.509 650.458,803.619 654.789,798.271 659.119,807.292 663.45,817.654 667.78,825.973 672.111,834.769 676.441,795.677 680.771,803.314 685.102,812.669    689.432,822.241 693.763,814.096 698.093,840.059 702.424,830.965 706.754,847.877 711.085,838.305 715.415,846.327 719.745,847.993 724.076,856.71 728.406,864.181    732.737,872.84 737.067,879.55 741.398,892.194 745.728,904.034 750.059,908.092 754.389,932.308 758.719,871.84 763.05,882.977 767.38,896.846 771.711,897.969    776.041,927.272 780.372,947.757 784.702,953.032 789.033,964.792 793.363,980.045 797.693,1160.15 802.024,1175.91 806.354,1202.17 810.685,1208.77 815.015,1211.9    819.346,1219.82 823.676,1217.81 828.007,1223.37 832.337,1233.32 836.667,1231.45 840.998,1235.22 845.328,1238.14 849.659,1246.79 853.989,1252.34 858.32,1256.81    862.65,1261.54 866.981,1261.62 871.311,1265.4 875.641,1268.49 879.972,1272.16 884.302,1266.96 888.633,1274.18 892.963,1275.09 897.294,1276.09 901.624,1277.26    905.955,1278.44 910.285,1279.5 914.615,1280.6 918.946,1281.47 923.276,1282.55 927.607,1283.53 931.937,1284.51 936.268,1285.36 940.598,1286.31 944.929,1287.23    949.259,1288.04 953.589,1289.43 957.92,1290.53 962.25,1291.46 966.581,1293.34 970.911,1294.42 975.242,1297.99 979.572,1299.17 983.903,1300.2 988.233,1301.31    992.563,1298.45 996.894,1299.36 1001.22,1300.29 1005.55,1301.15 1009.89,1302.56 1014.22,1303.65 1018.55,1304.76 1022.88,1305.92 1027.21,1306.89 1031.54,1307.84    1035.87,1309.07 1040.2,1294.44 1044.53,1295.11 1048.86,1295.47 1053.19,1296.18 1057.52,1296.57 1061.85,1297.19 1066.18,1297.64 1070.51,1298.15 1074.84,1298.72    1079.17,1299.23 1083.5,1299.63 1087.83,1300.23 1092.16,1300.75 1096.49,1301.23 1100.82,1301.73 1105.15,1302.13 1109.49,1302.73 1113.82,1303.2 1118.15,1303.66    1122.48,1304.18 1126.81,1304.65 1131.14,1305.15 1135.47,1305.27 1139.8,1305.86 1144.13,1306.39 1148.46,1306.77 1152.79,1307.17 1157.12,1307.65 1161.45,1308.12    1165.78,1308.57 1170.11,1309.06 1174.44,1309.43 1178.77,1309.82 1183.1,1310.29 1187.43,1310.73 1191.76,1311.15 1196.09,1311.45 1200.42,1311.89 1204.76,1312.78    1209.09,1313.44 1213.42,1314.06 1217.75,1314.59 1222.08,1314.91 1226.41,1315.36 1230.74,1315.66 1235.07,1316.04 1239.4,1316.26 1243.73,1316.67 1248.06,1316.88    1252.39,1317.57 1256.72,1318.14 1261.05,1318.94 1265.38,1318.51 1269.71,1318.82 1274.04,1319.15 1278.37,1334.29 1282.7,1334.53 1287.03,1320.11 1291.36,1320.36    1295.69,1320.44 1300.02,1321.1 1304.36,1321.48 1308.69,1321.58 1313.02,1320.33 1317.35,1320.68 1321.68,1334.77 1326.01,1335.23 1330.34,1335.55 1334.67,1335.98    1339,1336.44 1343.33,1336.85 1347.66,1331.44 1351.99,1332.23 1356.32,1332.39 1360.65,1333.18 1364.98,1334.35 1369.31,1335.26 1373.64,1336.09 1377.97,1336.82    1382.3,1337.59 1386.63,1338.07 1390.96,1338.35 1395.29,1338.99 1399.63,1339.29 1403.96,1339.66 1408.29,1339.86 1412.62,1340.07 1416.95,1340.46 1421.28,1340.67    1425.61,1340.69 1429.94,1340.96 1434.27,1341.14 1438.6,1341.21 1442.93,1341.18 1447.26,1340.78 1451.59,1343.91 1455.92,1347.4 1460.25,1348.7 1464.58,1350.41    1468.91,1350.14 1473.24,1350.43 1477.57,1350.27 1481.9,1350.41 1486.23,1350.46 1490.56,1350.47 1494.89,1350.43 1499.23,1350.19 1503.56,1350.4 1507.89,1350.3    1512.22,1350.35 1516.55,1350.33 1520.88,1350.33 1525.21,1350.38 1529.54,1350.27 1533.87,1350.3 1538.2,1350.22 1542.53,1350.31 1546.86,1350.33 1551.19,1350.26    1555.52,1350.29 1559.85,1350.27 1564.18,1350.25 1568.51,1350.34 1572.84,1350.3 1577.17,1350.22 1581.5,1350.2 1585.83,1350.21 1590.16,1350.16 1594.5,1350.12    1598.83,1350.24 1603.16,1350.19 1607.49,1350.17 1611.82,1350.28 1616.15,1350.17 1620.48,1350.13 1624.81,1350.22 1629.14,1350.1 1633.47,1350.24 1637.8,1350.2    1642.13,1350.22 1646.46,1350.06 1650.79,1350.19 1655.12,1350.06 1659.45,1350.09 1663.78,1350.13 1668.11,1350.11 1672.44,1350.14 1676.77,1350.22 1681.1,1350.14    1685.43,1350.13 1689.76,1350.16 1694.1,1350.15 1698.43,1350.09 1702.76,1350.12 1707.09,1350.06 1711.42,1349.94 1715.75,1350.02 1720.08,1350.21 1724.41,1350.2    1728.74,1350.12 1733.07,1349.96 1737.4,1349.99 1741.73,1350.01 1746.06,1350.01 1750.39,1350.07 1754.72,1350.04 1759.05,1350.01 1763.38,1349.98 1767.71,1350.03    1772.04,1350.13 1776.37,1349.88 1780.7,1350.06 1785.03,1350.04 1789.37,1349.99 1793.7,1349.77 1798.03,1349.96 1802.36,1349.92 1806.69,1349.91 1811.02,1349.88    1815.35,1349.96 1819.68,1349.95 1824.01,1350.04 1828.34,1349.93 1832.67,1350.09 1837,1349.81 1841.33,1349.93 1845.66,1349.87 1849.99,1350.02 1854.32,1349.88    1858.65,1349.94 1862.98,1349.88 1867.31,1349.95 1871.64,1349.92 1875.97,1349.81 1880.3,1349.91 1884.63,1349.87 1888.97,1349.92 1893.3,1349.91 1897.63,1349.98    1901.96,1349.66 1906.29,1350.06 1910.62,1349.96 1914.95,1349.96 1919.28,1349.8 1923.61,1349.86 1927.94,1349.91 1932.27,1349.88 1936.6,1349.99 1940.93,1349.88    1945.26,1349.86 1949.59,1349.88 1953.92,1349.88 1958.25,1349.99 1962.58,1349.72 1966.91,1349.87 1971.24,1349.92 1975.57,1350.06 1979.9,1349.83 1984.24,1349.93    1988.57,1349.88 1992.9,1349.94 1997.23,1350.02 2001.56,1349.94 2005.89,1349.91 2010.22,1349.82 2014.55,1349.91 2018.88,1349.86 2023.21,1349.77 2027.54,1349.83    2031.87,1349.62 2036.2,1349.76 2040.53,1349.8 2044.86,1349.77 2049.19,1349.95 2053.52,1349.85 2057.85,1349.85 2062.18,1349.73 2066.51,1349.66 2070.84,1349.71    2075.17,1349.87 2079.5,1349.85 2083.84,1350.02 2088.17,1349.93 2092.5,1349.93 2096.83,1350.09 2101.16,1349.87 2105.49,1349.85 2109.82,1349.7 2114.15,1349.84    2118.48,1349.93 2122.81,1350 2127.14,1349.93 2131.47,1349.82 2135.8,1349.81 2140.13,1349.99 2144.46,1349.92 2148.79,1349.56 2153.12,1349.98 2157.45,1349.78    2161.78,1349.7 2166.11,1349.88 2170.44,1349.91 2174.77,1349.98 2179.11,1349.83 2183.44,1349.69 2187.77,1349.58 2192.1,1349.83 2196.43,1349.9 2200.76,1349.96    2205.09,1349.85 2209.42,1349.64 2213.75,1349.83 2218.08,1349.93 2222.41,1349.78 2226.74,1349.8 2231.07,1349.87 2235.4,1349.86 2239.73,1349.95 2244.06,1349.91    2248.39,1349.82 2252.72,1349.77 2257.05,1349.78 2261.38,1349.74 2265.71,1349.98 2270.04,1349.75 2274.37,1349.85 2278.71,1349.81 2283.04,1349.68 2287.37,1349.73    2291.7,1349.75    "
     id="polyline155"
     transform="translate(75.5896,-47.2441)" />
  <polyline
     clip-path="url(#clip062)"
     style="fill:none;stroke:#000000;stroke-width:5.2;stroke-linecap:butt;stroke-linejoin:round;stroke-miterlimit:4;stroke-dasharray:20.8, 20.8;stroke-dashoffset:0;stroke-opacity:1"
     points="   256.388,102.486 260.718,116.163 265.049,129.691 269.379,143.071 273.71,156.304 278.04,169.393 282.371,182.338 286.701,195.142 291.032,207.806 295.362,220.331    299.692,232.719 304.023,244.972 308.353,257.09 312.684,269.076 317.014,280.931 321.345,292.656 325.675,304.253 330.006,315.723 334.336,327.068 338.666,338.288    342.997,349.386 347.327,360.362 351.658,371.219 355.988,381.956 360.319,392.576 364.649,403.08 368.98,413.469 373.31,423.744 377.64,433.907 381.971,443.959    386.301,453.9 390.632,463.733 394.962,473.459 399.293,483.078 403.623,492.591 407.954,502.001 412.284,511.308 416.614,520.513 420.945,529.617 425.275,538.622    429.606,547.528 433.936,556.337 438.267,565.049 442.597,573.666 446.928,582.189 451.258,590.618 455.588,598.955 459.919,607.202 464.249,615.357 468.58,623.424    472.91,631.403 477.241,639.294 481.571,647.098 485.902,654.818 490.232,662.453 494.562,670.004 498.893,677.473 503.223,684.86 507.554,692.167 511.884,699.393    516.215,706.54 520.545,713.609 524.875,720.601 529.206,727.517 533.536,734.356 537.867,741.121 542.197,747.812 546.528,754.43 550.858,760.975 555.189,767.449    559.519,773.851 563.849,780.184 568.18,786.448 572.51,792.643 576.841,798.77 581.171,804.83 585.502,810.824 589.832,816.752 594.163,822.616 598.493,828.415    602.823,834.151 607.154,839.824 611.484,845.435 615.815,850.985 620.145,856.474 624.476,861.903 628.806,867.272 633.137,872.583 637.467,877.836 641.797,883.031    646.128,888.169 650.458,893.251 654.789,898.278 659.119,903.25 663.45,908.167 667.78,913.03 672.111,917.84 676.441,922.598 680.771,927.304 685.102,931.958    689.432,936.561 693.763,941.114 698.093,945.616 702.424,950.07 706.754,954.475 711.085,958.832 715.415,963.141 719.745,967.403 724.076,971.619 728.406,975.788    732.737,979.911 737.067,983.99 741.398,988.024 745.728,992.014 750.059,995.96 754.389,999.863 758.719,1003.72 763.05,1007.54 767.38,1011.32 771.711,1015.05    776.041,1018.75 780.372,1022.4 784.702,1026.01 789.033,1029.59 793.363,1033.12 797.693,1036.62 802.024,1040.08 806.354,1043.5 810.685,1046.88 815.015,1050.23    819.346,1053.54 823.676,1056.81 828.007,1060.05 832.337,1063.25 836.667,1066.42 840.998,1069.55 845.328,1072.65 849.659,1075.71 853.989,1078.74 858.32,1081.74    862.65,1084.7 866.981,1087.63 871.311,1090.53 875.641,1093.4 879.972,1096.24 884.302,1099.05 888.633,1101.82 892.963,1104.57 897.294,1107.28 901.624,1109.97    905.955,1112.62 910.285,1115.25 914.615,1117.85 918.946,1120.42 923.276,1122.96 927.607,1125.47 931.937,1127.96 936.268,1130.42 940.598,1132.85 944.929,1135.25    949.259,1137.63 953.589,1139.99 957.92,1142.31 962.25,1144.62 966.581,1146.89 970.911,1149.14 975.242,1151.37 979.572,1153.57 983.903,1155.75 988.233,1157.91    992.563,1160.04 996.894,1162.15 1001.22,1164.23 1005.55,1166.29 1009.89,1168.33 1014.22,1170.35 1018.55,1172.35 1022.88,1174.32 1027.21,1176.27 1031.54,1178.2    1035.87,1180.11 1040.2,1182 1044.53,1183.87 1048.86,1185.71 1053.19,1187.54 1057.52,1189.35 1061.85,1191.14 1066.18,1192.9 1070.51,1194.65 1074.84,1196.38    1079.17,1198.09 1083.5,1199.78 1087.83,1201.46 1092.16,1203.11 1096.49,1204.75 1100.82,1206.37 1105.15,1207.97 1109.49,1209.55 1113.82,1211.12 1118.15,1212.67    1122.48,1214.2 1126.81,1215.72 1131.14,1217.21 1135.47,1218.7 1139.8,1220.16 1144.13,1221.61 1148.46,1223.05 1152.79,1224.47 1157.12,1225.87 1161.45,1227.26    1165.78,1228.63 1170.11,1229.99 1174.44,1231.33 1178.77,1232.66 1183.1,1233.97 1187.43,1235.27 1191.76,1236.56 1196.09,1237.83 1200.42,1239.08 1204.76,1240.33    1209.09,1241.56 1213.42,1242.77 1217.75,1243.98 1222.08,1245.17 1226.41,1246.34 1230.74,1247.51 1235.07,1248.66 1239.4,1249.8 1243.73,1250.92 1248.06,1252.04    1252.39,1253.14 1256.72,1254.23 1261.05,1255.3 1265.38,1256.37 1269.71,1257.42 1274.04,1258.47 1278.37,1259.5 1282.7,1260.52 1287.03,1261.53 1291.36,1262.53    1295.69,1263.51 1300.02,1264.49 1304.36,1265.45 1308.69,1266.41 1313.02,1267.35 1317.35,1268.29 1321.68,1269.21 1326.01,1270.12 1330.34,1271.03 1334.67,1271.92    1339,1272.81 1343.33,1273.68 1347.66,1274.54 1351.99,1275.4 1356.32,1276.25 1360.65,1277.08 1364.98,1277.91 1369.31,1278.73 1373.64,1279.54 1377.97,1280.34    1382.3,1281.13 1386.63,1281.91 1390.96,1282.69 1395.29,1283.46 1399.63,1284.21 1403.96,1284.96 1408.29,1285.7 1412.62,1286.44 1416.95,1287.16 1421.28,1287.88    1425.61,1288.59 1429.94,1289.29 1434.27,1289.99 1438.6,1290.67 1442.93,1291.35 1447.26,1292.02 1451.59,1292.69 1455.92,1293.34 1460.25,1293.99 1464.58,1294.64    1468.91,1295.27 1473.24,1295.9 1477.57,1296.52 1481.9,1297.14 1486.23,1297.74 1490.56,1298.35 1494.89,1298.94 1499.23,1299.53 1503.56,1300.11 1507.89,1300.69    1512.22,1301.26 1516.55,1301.82 1520.88,1302.38 1525.21,1302.93 1529.54,1303.47 1533.87,1304.01 1538.2,1304.54 1542.53,1305.07 1546.86,1305.59 1551.19,1306.11    1555.52,1306.62 1559.85,1307.12 1564.18,1307.62 1568.51,1308.12 1572.84,1308.6 1577.17,1309.09 1581.5,1309.56 1585.83,1310.04 1590.16,1310.5 1594.5,1310.96    1598.83,1311.42 1603.16,1311.87 1607.49,1312.32 1611.82,1312.76 1616.15,1313.2 1620.48,1313.63 1624.81,1314.06 1629.14,1314.48 1633.47,1314.9 1637.8,1315.32    1642.13,1315.72 1646.46,1316.13 1650.79,1316.53 1655.12,1316.93 1659.45,1317.32 1663.78,1317.7 1668.11,1318.09 1672.44,1318.47 1676.77,1318.84 1681.1,1319.21    1685.43,1319.58 1689.76,1319.94 1694.1,1320.3 1698.43,1320.66 1702.76,1321.01 1707.09,1321.35 1711.42,1321.7 1715.75,1322.04 1720.08,1322.37 1724.41,1322.7    1728.74,1323.03 1733.07,1323.36 1737.4,1323.68 1741.73,1324 1746.06,1324.31 1750.39,1324.62 1754.72,1324.93 1759.05,1325.23 1763.38,1325.53 1767.71,1325.83    1772.04,1326.13 1776.37,1326.42 1780.7,1326.71 1785.03,1326.99 1789.37,1327.27 1793.7,1327.55 1798.03,1327.83 1802.36,1328.1 1806.69,1328.37 1811.02,1328.63    1815.35,1328.9 1819.68,1329.16 1824.01,1329.42 1828.34,1329.67 1832.67,1329.92 1837,1330.17 1841.33,1330.42 1845.66,1330.66 1849.99,1330.91 1854.32,1331.14    1858.65,1331.38 1862.98,1331.61 1867.31,1331.84 1871.64,1332.07 1875.97,1332.3 1880.3,1332.52 1884.63,1332.74 1888.97,1332.96 1893.3,1333.18 1897.63,1333.39    1901.96,1333.6 1906.29,1333.81 1910.62,1334.02 1914.95,1334.23 1919.28,1334.43 1923.61,1334.63 1927.94,1334.83 1932.27,1335.02 1936.6,1335.22 1940.93,1335.41    1945.26,1335.6 1949.59,1335.78 1953.92,1335.97 1958.25,1336.15 1962.58,1336.33 1966.91,1336.51 1971.24,1336.69 1975.57,1336.87 1979.9,1337.04 1984.24,1337.21    1988.57,1337.38 1992.9,1337.55 1997.23,1337.72 2001.56,1337.88 2005.89,1338.04 2010.22,1338.2 2014.55,1338.36 2018.88,1338.52 2023.21,1338.67 2027.54,1338.83    2031.87,1338.98 2036.2,1339.13 2040.53,1339.28 2044.86,1339.43 2049.19,1339.57 2053.52,1339.72 2057.85,1339.86 2062.18,1340 2066.51,1340.14 2070.84,1340.28    2075.17,1340.41 2079.5,1340.55 2083.84,1340.68 2088.17,1340.81 2092.5,1340.94 2096.83,1341.07 2101.16,1341.2 2105.49,1341.33 2109.82,1341.45 2114.15,1341.57    2118.48,1341.7 2122.81,1341.82 2127.14,1341.94 2131.47,1342.05 2135.8,1342.17 2140.13,1342.29 2144.46,1342.4 2148.79,1342.51 2153.12,1342.63 2157.45,1342.74    2161.78,1342.85 2166.11,1342.95 2170.44,1343.06 2174.77,1343.17 2179.11,1343.27 2183.44,1343.37 2187.77,1343.48 2192.1,1343.58 2196.43,1343.68 2200.76,1343.78    2205.09,1343.88 2209.42,1343.97 2213.75,1344.07 2218.08,1344.16 2222.41,1344.26 2226.74,1344.35 2231.07,1344.44 2235.4,1344.53 2239.73,1344.62 2244.06,1344.71    2248.39,1344.8 2252.72,1344.88 2257.05,1344.97 2261.38,1345.06 2265.71,1345.14 2270.04,1345.22 2274.37,1345.3 2278.71,1345.39 2283.04,1345.47 2287.37,1345.55    2291.7,1345.62    "
     id="polyline157"
     transform="translate(75.5896,-47.2441)" />
  <polyline
     clip-path="url(#clip060)"
     style="fill:none;stroke:#000000;stroke-width:4;stroke-linecap:butt;stroke-linejoin:round;stroke-opacity:1"
     points="   1001.47,344.67 2280.84,344.67 2280.84,91.9502 1001.47,91.9502 1001.47,344.67    "
     id="polyline161"
     transform="translate(75.5896,-47.2441)" />
  <polyline
     clip-path="url(#clip060)"
     style="fill:none;stroke:#000000;stroke-width:6.5;stroke-linecap:butt;stroke-linejoin:round;stroke-opacity:1"
     points="   1025.44,176.19 1169.26,176.19    "
     id="polyline163"
     transform="translate(75.5896,-47.2441)" />
  <g
     id="g1027"
     transform="rotate(-90,-113.96949,663.53478)">
    <path
       clip-path="url(#clip060)"
       d="m 1193.24,204.27 v -2.529 q 7.3,-0.16 9.19,-5.539 l 17.02,-49.135 q 0.32,-1.004 0.68,-1.325 0.36,-0.321 1.29,-0.321 0.48,0 0.76,0.08 0.32,0.08 0.52,0.361 0.2,0.281 0.28,0.442 0.08,0.16 0.32,0.763 l 17.75,51.383 q 0.64,2.047 1.96,2.689 1.33,0.602 5.06,0.602 h 1.45 v 2.529 q -5.18,-0.241 -10.76,-0.241 -8.87,0 -11.84,0.241 v -2.529 q 6.82,0 6.82,-2.489 0,-0.16 -0.24,-1.164 l -4.34,-12.565 h -20.31 l -3.81,10.759 q -0.16,0.321 -0.16,1.244 0,1.726 1.6,2.971 1.61,1.244 4.58,1.244 v 2.529 q -7.91,-0.241 -9.47,-0.241 -2.69,0 -8.35,0.241 m 16.5,-21.276 h 18.5 l -9.27,-26.735 z"
       fill="#000000"
       fill-rule="evenodd"
       fill-opacity="1"
       id="path165"
       transform="translate(-1436.7143,632.08327)" />
    <path
       clip-path="url(#clip060)"
       d="m 1254.9,204.27 v -2.529 q 4.37,0 5.38,-0.522 1,-0.562 1,-3.211 v -22.039 q 0,-3.05 -1.09,-3.813 -1.04,-0.763 -5.29,-0.763 v -2.569 l 11.56,-0.883 v 8.631 q 3.85,-8.631 12.16,-8.631 6.18,0 8.63,3.051 1.81,2.047 2.17,4.335 0.4,2.288 0.4,8.229 v 15.696 q 0.08,1.727 1.41,2.128 1.32,0.361 5.01,0.361 v 2.529 q -8.39,-0.241 -9.23,-0.241 -0.64,0 -9.27,0.241 v -2.529 q 4.37,0 5.38,-0.522 1.04,-0.562 1.04,-3.211 V 178.86 q 0,-4.175 -1.28,-6.624 -1.29,-2.489 -4.82,-2.489 -4.26,0 -7.67,3.573 -3.41,3.573 -3.41,9.594 v 15.094 q 0,2.649 1,3.211 1.05,0.522 5.38,0.522 v 2.529 q -8.39,-0.241 -9.19,-0.241 -0.64,0 -9.27,0.241 z"
       fill="#000000"
       fill-rule="evenodd"
       fill-opacity="1"
       id="path167"
       transform="translate(-1436.7143,632.08327)" />
    <path
       clip-path="url(#clip060)"
       d="m 1297.13,171.393 v -1.806 q 3.77,-0.161 6.26,-2.81 2.53,-2.69 3.37,-5.982 0.88,-3.291 0.96,-7.105 h 2.05 v 15.134 h 11.76 v 2.569 h -11.76 v 22.841 q 0,8.872 5.54,8.872 2.37,0 3.94,-2.408 1.56,-2.449 1.56,-6.785 v -4.536 h 2.05 v 4.697 q 0,4.456 -2.05,7.788 -2.05,3.332 -6.1,3.332 -1.49,0 -2.97,-0.402 -1.45,-0.361 -3.37,-1.325 -1.89,-1.003 -3.09,-3.412 -1.17,-2.448 -1.17,-5.981 v -22.681 z"
       fill="#000000"
       fill-rule="evenodd"
       fill-opacity="1"
       id="path169"
       transform="translate(-1436.7143,632.08327)" />
    <path
       clip-path="url(#clip060)"
       d="m 1329.72,186.166 q 0,-7.748 4.98,-13.247 4.98,-5.5 12.12,-5.5 7.23,0 10.96,4.697 3.78,4.696 3.78,11.44 0,1.245 -0.33,1.486 -0.32,0.241 -1.72,0.241 h -22.96 q 0,8.389 2.49,12.324 3.45,5.499 9.27,5.499 0.8,0 1.76,-0.16 0.97,-0.161 2.94,-0.843 1.96,-0.723 3.69,-2.61 1.72,-1.886 2.73,-4.857 0.24,-1.164 1.04,-1.124 1.09,0 1.09,0.963 0,0.723 -0.81,2.369 -0.76,1.606 -2.25,3.532 -1.48,1.927 -4.37,3.372 -2.85,1.446 -6.3,1.446 -7.23,0 -12.69,-5.46 -5.42,-5.5 -5.42,-13.568 m 6.91,-2.61 h 19.51 q 0,-1.726 -0.32,-3.653 -0.29,-1.926 -1.17,-4.576 -0.84,-2.689 -2.85,-4.375 -2.01,-1.686 -4.98,-1.686 -1.32,0 -2.77,0.562 -1.4,0.562 -3.13,1.926 -1.72,1.365 -2.93,4.456 -1.2,3.091 -1.36,7.346 z"
       fill="#000000"
       fill-rule="evenodd"
       fill-opacity="1"
       id="path171"
       transform="translate(-1436.7143,632.08327)" />
    <path
       clip-path="url(#clip060)"
       d="m 1366.65,204.27 v -2.529 q 4.38,0 5.38,-0.522 1.01,-0.562 1.01,-3.211 v -22.119 q 0,-3.051 -1.05,-3.773 -1,-0.723 -5.01,-0.723 v -2.569 l 11.48,-0.883 v 30.147 q 0,2.449 0.88,3.051 0.88,0.602 4.9,0.602 v 2.529 q -8.39,-0.241 -8.55,-0.241 -1.13,0 -9.04,0.241 m 3.46,-50.66 q 0,-1.646 1.24,-2.971 1.29,-1.365 3.09,-1.365 1.81,0 3.09,1.245 1.29,1.204 1.29,3.131 0,1.887 -1.29,3.131 -1.28,1.204 -3.09,1.204 -1.89,0 -3.13,-1.324 -1.2,-1.325 -1.2,-3.051 z"
       fill="#000000"
       fill-rule="evenodd"
       fill-opacity="1"
       id="path173"
       transform="translate(-1436.7143,632.08327)" />
    <path
       clip-path="url(#clip060)"
       d="m 1389.41,204.27 v -2.529 q 4.38,0 5.38,-0.522 1.01,-0.562 1.01,-3.211 v -42.752 q 0,-3.051 -1.09,-3.814 -1.04,-0.763 -5.3,-0.763 v -2.569 l 11.81,-0.883 v 50.781 q 0,2.649 1.04,3.211 1.04,0.522 5.38,0.522 v 2.529 q -1,0 -3.09,-0.08 -2.09,-0.08 -3.61,-0.12 -1.53,-0.041 -2.41,-0.041 -0.97,0 -9.12,0.241 z"
       fill="#000000"
       fill-rule="evenodd"
       fill-opacity="1"
       id="path175"
       transform="translate(-1436.7143,632.08327)" />
  </g>
  <path
     clip-path="url(#clip060)"
     d="m 1580.62,210.773 q 0,-2.649 2,-4.937 2.05,-2.288 5.58,-3.292 -3.61,-2.288 -3.61,-7.306 0,-3.854 2.53,-6.824 -3.85,-3.212 -3.85,-8.47 0,-4.858 3.85,-8.43 3.85,-3.573 9.47,-3.573 4.94,0 8.71,2.97 3.94,-3.853 8.71,-3.893 2.13,0 3.14,1.324 1.04,1.325 1.04,2.73 0,1.244 -0.8,1.847 -0.77,0.602 -1.57,0.602 -1,0 -1.72,-0.643 -0.69,-0.682 -0.69,-1.726 0,-1.726 1.33,-2.248 -0.24,-0.08 -0.81,-0.08 -4.01,0 -7.42,3.211 3.37,3.132 3.37,7.989 0,4.857 -3.85,8.43 -3.86,3.573 -9.44,3.573 -4.61,0 -8.15,-2.57 -1.4,1.646 -1.4,3.894 0,2.048 1.24,3.653 1.25,1.606 3.13,1.847 0.57,0.08 6.15,0.08 3.29,0 5.09,0.081 1.81,0.08 4.38,0.642 2.61,0.522 4.66,1.565 5.34,2.971 5.38,9.394 0,4.697 -5.42,7.627 -5.38,2.971 -12.85,2.971 -7.55,0 -12.89,-3.011 -5.29,-2.971 -5.29,-7.427 m 4.29,0 q 0,3.372 3.98,5.942 3.97,2.609 9.99,2.609 5.9,0 9.88,-2.569 4.01,-2.529 4.01,-5.982 0,-2.448 -1.4,-4.014 -1.41,-1.565 -4.3,-2.208 -2.85,-0.602 -4.86,-0.722 -2,-0.121 -5.7,-0.121 h -4.85 q -2.81,0.161 -4.78,2.208 -1.97,2.047 -1.97,4.857 m 4.5,-30.749 q 0,10.116 7.18,10.116 3.62,0 5.82,-3.292 1.33,-2.208 1.33,-6.904 0,-10.116 -7.15,-10.116 -3.61,0 -5.86,3.291 -1.32,2.208 -1.32,6.905 z"
     fill="#000000"
     fill-rule="evenodd"
     fill-opacity="1"
     id="path183"
     transform="translate(-300.70326,-60.801522)" />
  <path
     clip-path="url(#clip060)"
     d="m 1621.72,186.166 q 0,-7.748 4.98,-13.247 4.98,-5.5 12.12,-5.5 7.23,0 10.96,4.697 3.78,4.696 3.78,11.44 0,1.245 -0.33,1.486 -0.32,0.241 -1.72,0.241 h -22.96 q 0,8.389 2.49,12.324 3.45,5.499 9.27,5.499 0.8,0 1.76,-0.16 0.97,-0.161 2.94,-0.843 1.96,-0.723 3.69,-2.61 1.72,-1.886 2.73,-4.857 0.24,-1.164 1.04,-1.124 1.09,0 1.09,0.963 0,0.723 -0.81,2.369 -0.76,1.606 -2.25,3.532 -1.48,1.927 -4.37,3.372 -2.85,1.446 -6.3,1.446 -7.23,0 -12.69,-5.46 -5.42,-5.5 -5.42,-13.568 m 6.91,-2.61 h 19.51 q 0,-1.726 -0.32,-3.653 -0.29,-1.926 -1.17,-4.576 -0.84,-2.689 -2.85,-4.375 -2.01,-1.686 -4.98,-1.686 -1.32,0 -2.77,0.562 -1.4,0.562 -3.13,1.926 -1.72,1.365 -2.93,4.456 -1.2,3.091 -1.36,7.346 z"
     fill="#000000"
     fill-rule="evenodd"
     fill-opacity="1"
     id="path185"
     transform="translate(-300.70326,-60.801522)" />
  <path
     clip-path="url(#clip060)"
     d="m 1658.21,204.27 v -2.529 q 4.38,0 5.38,-0.522 1.05,-0.562 1.05,-3.211 v -22.039 q 0,-3.05 -1.09,-3.813 -1.04,-0.763 -5.34,-0.763 v -2.569 l 11.44,-0.883 v 9.032 q 1.17,-3.533 3.62,-6.262 2.48,-2.77 6.5,-2.77 2.65,0 4.33,1.485 1.73,1.485 1.73,3.533 0,1.806 -1.12,2.729 -1.09,0.884 -2.41,0.884 -1.49,0 -2.53,-0.924 -1,-0.963 -1,-2.609 0,-1.004 0.44,-1.766 0.48,-0.803 0.84,-1.084 0.36,-0.281 0.6,-0.361 -0.16,-0.081 -0.88,-0.081 -4.54,0 -7.15,4.536 -2.57,4.496 -2.57,10.919 v 12.645 q 0,2.369 0.97,3.132 1,0.762 5.3,0.762 h 1.72 v 2.529 q -3.29,-0.241 -10.43,-0.241 -1.01,0 -2.57,0.041 -1.57,0.04 -3.62,0.12 -2.04,0.08 -3.21,0.08 z"
     fill="#000000"
     fill-rule="evenodd"
     fill-opacity="1"
     id="path187"
     transform="translate(-300.70326,-60.801522)" />
  <path
     clip-path="url(#clip060)"
     d="m 1690.77,204.27 v -2.529 q 4.37,0 5.38,-0.522 1,-0.562 1,-3.211 v -22.119 q 0,-3.051 -1.04,-3.773 -1.01,-0.723 -5.02,-0.723 v -2.569 l 11.48,-0.883 v 30.147 q 0,2.449 0.88,3.051 0.89,0.602 4.9,0.602 v 2.529 q -8.39,-0.241 -8.55,-0.241 -1.12,0 -9.03,0.241 m 3.45,-50.66 q 0,-1.646 1.24,-2.971 1.29,-1.365 3.1,-1.365 1.8,0 3.09,1.245 1.28,1.204 1.28,3.131 0,1.887 -1.28,3.131 -1.29,1.204 -3.09,1.204 -1.89,0 -3.14,-1.324 -1.2,-1.325 -1.2,-3.051 z"
     fill="#000000"
     fill-rule="evenodd"
     fill-opacity="1"
     id="path189"
     transform="translate(-300.70326,-60.801522)" />
  <path
     clip-path="url(#clip060)"
     d="m 1713.45,204.27 v -2.529 q 4.37,0 5.38,-0.522 1,-0.562 1,-3.211 v -22.039 q 0,-3.05 -1.08,-3.813 -1.05,-0.763 -5.3,-0.763 v -2.569 l 11.56,-0.883 v 8.631 q 3.85,-8.631 12.16,-8.631 6.19,0 8.63,3.051 1.81,2.047 2.17,4.335 0.4,2.288 0.4,8.229 v 15.696 q 0.08,1.727 1.41,2.128 1.32,0.361 5.02,0.361 v 2.529 q -8.39,-0.241 -9.24,-0.241 -0.64,0 -9.27,0.241 v -2.529 q 4.38,0 5.38,-0.522 1.04,-0.562 1.04,-3.211 V 178.86 q 0,-4.175 -1.28,-6.624 -1.29,-2.489 -4.82,-2.489 -4.25,0 -7.67,3.573 -3.41,3.573 -3.41,9.594 v 15.094 q 0,2.649 1.01,3.211 1.04,0.522 5.37,0.522 v 2.529 q -8.39,-0.241 -9.19,-0.241 -0.64,0 -9.27,0.241 z"
     fill="#000000"
     fill-rule="evenodd"
     fill-opacity="1"
     id="path191"
     transform="translate(-300.70326,-60.801522)" />
  <path
     clip-path="url(#clip060)"
     d="m 1758.69,210.773 q 0,-2.649 2.01,-4.937 2.04,-2.288 5.58,-3.292 -3.62,-2.288 -3.62,-7.306 0,-3.854 2.53,-6.824 -3.85,-3.212 -3.85,-8.47 0,-4.858 3.85,-8.43 3.86,-3.573 9.48,-3.573 4.93,0 8.71,2.97 3.93,-3.853 8.71,-3.893 2.13,0 3.13,1.324 1.04,1.325 1.04,2.73 0,1.244 -0.8,1.847 -0.76,0.602 -1.56,0.602 -1.01,0 -1.73,-0.643 -0.68,-0.682 -0.68,-1.726 0,-1.726 1.32,-2.248 -0.24,-0.08 -0.8,-0.08 -4.02,0 -7.43,3.211 3.37,3.132 3.37,7.989 0,4.857 -3.85,8.43 -3.85,3.573 -9.43,3.573 -4.62,0 -8.15,-2.57 -1.41,1.646 -1.41,3.894 0,2.048 1.25,3.653 1.24,1.606 3.13,1.847 0.56,0.08 6.14,0.08 3.29,0 5.1,0.081 1.8,0.08 4.37,0.642 2.61,0.522 4.66,1.565 5.34,2.971 5.38,9.394 0,4.697 -5.42,7.627 -5.38,2.971 -12.85,2.971 -7.54,0 -12.88,-3.011 -5.3,-2.971 -5.3,-7.427 m 4.3,0 q 0,3.372 3.97,5.942 3.97,2.609 10,2.609 5.9,0 9.87,-2.569 4.01,-2.529 4.01,-5.982 0,-2.448 -1.4,-4.014 -1.41,-1.565 -4.3,-2.208 -2.85,-0.602 -4.85,-0.722 -2.01,-0.121 -5.7,-0.121 h -4.86 q -2.81,0.161 -4.78,2.208 -1.96,2.047 -1.96,4.857 m 4.49,-30.749 q 0,10.116 7.19,10.116 3.61,0 5.82,-3.292 1.32,-2.208 1.32,-6.904 0,-10.116 -7.14,-10.116 -3.62,0 -5.86,3.291 -1.33,2.208 -1.33,6.905 z"
     fill="#000000"
     fill-rule="evenodd"
     fill-opacity="1"
     id="path193"
     transform="translate(-300.70326,-60.801522)" />
  <path
     clip-path="url(#clip060)"
     d="m 1799.8,186.166 q 0,-7.748 4.97,-13.247 4.98,-5.5 12.13,-5.5 7.22,0 10.96,4.697 3.77,4.696 3.77,11.44 0,1.245 -0.32,1.486 -0.32,0.241 -1.73,0.241 h -22.96 q 0,8.389 2.49,12.324 3.45,5.499 9.27,5.499 0.81,0 1.77,-0.16 0.96,-0.161 2.93,-0.843 1.97,-0.723 3.69,-2.61 1.73,-1.886 2.73,-4.857 0.24,-1.164 1.05,-1.124 1.08,0 1.08,0.963 0,0.723 -0.8,2.369 -0.77,1.606 -2.25,3.532 -1.49,1.927 -4.38,3.372 -2.85,1.446 -6.3,1.446 -7.22,0 -12.68,-5.46 -5.42,-5.5 -5.42,-13.568 m 6.9,-2.61 h 19.51 q 0,-1.726 -0.32,-3.653 -0.28,-1.926 -1.16,-4.576 -0.85,-2.689 -2.85,-4.375 -2.01,-1.686 -4.98,-1.686 -1.33,0 -2.77,0.562 -1.41,0.562 -3.13,1.926 -1.73,1.365 -2.93,4.456 -1.21,3.091 -1.37,7.346 z"
     fill="#000000"
     fill-rule="evenodd"
     fill-opacity="1"
     id="path195"
     transform="translate(-300.70326,-60.801522)" />
  <path
     clip-path="url(#clip060)"
     d="m 1909.59,204.27 v -2.529 q 7.3,-0.16 9.19,-5.539 l 17.02,-49.135 q 0.32,-1.004 0.68,-1.325 0.36,-0.321 1.29,-0.321 0.48,0 0.76,0.08 0.32,0.08 0.52,0.361 0.2,0.281 0.28,0.442 0.08,0.16 0.32,0.763 l 17.75,51.383 q 0.64,2.047 1.96,2.689 1.33,0.602 5.06,0.602 h 1.45 v 2.529 q -5.18,-0.241 -10.76,-0.241 -8.87,0 -11.84,0.241 v -2.529 q 6.82,0 6.82,-2.489 0,-0.16 -0.24,-1.164 l -4.33,-12.565 h -20.32 l -3.81,10.759 q -0.16,0.321 -0.16,1.244 0,1.726 1.6,2.971 1.61,1.244 4.58,1.244 v 2.529 q -7.91,-0.241 -9.47,-0.241 -2.69,0 -8.35,0.241 m 16.5,-21.276 h 18.5 l -9.27,-26.735 z"
     fill="#000000"
     fill-rule="evenodd"
     fill-opacity="1"
     id="path199"
     transform="translate(-331.63376,-60.801522)" />
  <path
     clip-path="url(#clip060)"
     d="m 1970.89,204.27 v -2.529 q 4.37,0 5.37,-0.522 1.05,-0.562 1.05,-3.211 v -42.752 q 0,-3.051 -1.09,-3.814 -1.04,-0.763 -5.33,-0.763 v -2.569 l 11.84,-0.883 v 39.461 l 11.6,-10.036 q 1.81,-1.566 1.81,-3.212 0,-1.886 -2.37,-2.047 v -2.569 q 3.45,0.241 9.19,0.241 3.37,0 5.74,-0.241 v 2.569 q -5.18,0.241 -10.36,4.416 -1.16,0.923 -3.93,3.332 -2.73,2.368 -2.73,2.609 0,0.08 0.08,0.281 0.12,0.201 0.28,0.361 0.16,0.161 0.16,0.241 l 10.44,14.733 q 2.13,2.97 3.69,3.693 1.57,0.682 4.3,0.682 v 2.529 q -3.54,-0.241 -7.19,-0.241 -1.97,0 -8.87,0.241 v -2.529 q 2.97,0 2.97,-1.927 0,-1.324 -6.66,-10.517 -0.48,-0.642 -1.57,-2.047 -1,-1.486 -1.56,-2.208 l -5.26,4.496 v 8.47 q 0,2.649 1,3.211 1.04,0.522 5.42,0.522 v 2.529 q -4.94,-0.241 -9.03,-0.241 -0.85,0 -8.99,0.241 z"
     fill="#000000"
     fill-rule="evenodd"
     fill-opacity="1"
     id="path201"
     transform="translate(-331.63376,-60.801522)" />
  <path
     clip-path="url(#clip060)"
     d="m 2013.48,171.393 v -1.806 q 3.77,-0.161 6.26,-2.81 2.53,-2.69 3.37,-5.982 0.88,-3.291 0.97,-7.105 h 2.04 v 15.134 h 11.76 v 2.569 h -11.76 v 22.841 q 0,8.872 5.54,8.872 2.37,0 3.94,-2.408 1.56,-2.449 1.56,-6.785 v -4.536 h 2.05 v 4.697 q 0,4.456 -2.05,7.788 -2.05,3.332 -6.1,3.332 -1.49,0 -2.97,-0.402 -1.45,-0.361 -3.37,-1.325 -1.89,-1.003 -3.09,-3.412 -1.17,-2.448 -1.17,-5.981 v -22.681 z"
     fill="#000000"
     fill-rule="evenodd"
     fill-opacity="1"
     id="path203"
     transform="translate(-331.63376,-60.801522)" />
  <path
     clip-path="url(#clip060)"
     d="m 2046.52,204.27 v -2.529 q 4.37,0 5.37,-0.522 1.01,-0.562 1.01,-3.211 v -22.119 q 0,-3.051 -1.05,-3.773 -1,-0.723 -5.01,-0.723 v -2.569 l 11.48,-0.883 v 30.147 q 0,2.449 0.88,3.051 0.88,0.602 4.9,0.602 v 2.529 q -8.39,-0.241 -8.55,-0.241 -1.13,0 -9.03,0.241 m 3.45,-50.66 q 0,-1.646 1.24,-2.971 1.29,-1.365 3.09,-1.365 1.81,0 3.09,1.245 1.29,1.204 1.29,3.131 0,1.887 -1.29,3.131 -1.28,1.204 -3.09,1.204 -1.88,0 -3.13,-1.324 -1.2,-1.325 -1.2,-3.051 z"
     fill="#000000"
     fill-rule="evenodd"
     fill-opacity="1"
     id="path205"
     transform="translate(-331.63376,-60.801522)" />
  <path
     clip-path="url(#clip060)"
     d="m 2068.11,171.393 v -2.569 q 3.7,0.241 7.99,0.241 1.57,0 8.95,-0.241 v 2.569 q -4.69,0 -4.69,2.128 0,0.321 0.48,1.405 l 9.23,22.921 8.39,-20.954 q 0.48,-1.405 0.48,-1.967 0,-1.405 -0.96,-2.409 -0.92,-1.044 -2.97,-1.124 v -2.569 q 4.17,0.241 7.14,0.241 3.38,0 6.15,-0.241 v 2.569 q -2.45,0 -4.18,1.124 -1.73,1.084 -2.29,2.047 -0.52,0.924 -1.08,2.329 l -10.76,26.735 q -0.64,1.566 -1.73,1.566 -0.72,0 -1.04,-0.322 -0.28,-0.281 -0.68,-1.244 l -11.84,-29.184 q -0.81,-2.047 -1.85,-2.529 -1.04,-0.522 -4.74,-0.522 z"
     fill="#000000"
     fill-rule="evenodd"
     fill-opacity="1"
     id="path207"
     transform="translate(-331.63376,-60.801522)" />
  <path
     clip-path="url(#clip060)"
     d="m 2112.59,204.27 v -2.529 q 4.38,0 5.38,-0.522 1,-0.562 1,-3.211 v -22.119 q 0,-3.051 -1.04,-3.773 -1,-0.723 -5.02,-0.723 v -2.569 l 11.48,-0.883 v 30.147 q 0,2.449 0.89,3.051 0.88,0.602 4.89,0.602 v 2.529 q -8.39,-0.241 -8.55,-0.241 -1.12,0 -9.03,0.241 m 3.45,-50.66 q 0,-1.646 1.25,-2.971 1.28,-1.365 3.09,-1.365 1.8,0 3.09,1.245 1.28,1.204 1.28,3.131 0,1.887 -1.28,3.131 -1.29,1.204 -3.09,1.204 -1.89,0 -3.13,-1.324 -1.21,-1.325 -1.21,-3.051 z"
     fill="#000000"
     fill-rule="evenodd"
     fill-opacity="1"
     id="path209"
     transform="translate(-331.63376,-60.801522)" />
  <path
     clip-path="url(#clip060)"
     d="m 2134.19,171.393 v -1.806 q 3.77,-0.161 6.26,-2.81 2.53,-2.69 3.37,-5.982 0.88,-3.291 0.97,-7.105 h 2.04 v 15.134 h 11.76 v 2.569 h -11.76 v 22.841 q 0,8.872 5.54,8.872 2.37,0 3.94,-2.408 1.56,-2.449 1.56,-6.785 v -4.536 h 2.05 v 4.697 q 0,4.456 -2.05,7.788 -2.05,3.332 -6.1,3.332 -1.49,0 -2.97,-0.402 -1.45,-0.361 -3.37,-1.325 -1.89,-1.003 -3.09,-3.412 -1.17,-2.448 -1.17,-5.981 v -22.681 z"
     fill="#000000"
     fill-rule="evenodd"
     fill-opacity="1"
     id="path211"
     transform="translate(-331.63376,-60.801522)" />
  <path
     clip-path="url(#clip060)"
     d="m 2167.95,196.442 q 0,-6.985 8.23,-10.678 4.93,-2.368 15.13,-2.97 v -3.011 q 0,-5.098 -2.69,-7.788 -2.65,-2.729 -6.02,-2.729 -6.02,0 -8.91,3.773 2.45,0.08 3.33,1.325 0.88,1.204 0.88,2.448 0,1.646 -1.04,2.73 -1,1.044 -2.73,1.044 -1.65,0 -2.73,-1.004 -1.08,-1.043 -1.08,-2.85 0,-4.014 3.61,-6.664 3.65,-2.649 8.83,-2.649 6.74,0 11.24,4.536 1.41,1.405 2.09,3.212 0.72,1.806 0.8,3.01 0.08,1.164 0.08,3.493 v 16.418 q 0,0.482 0.16,1.285 0.16,0.803 0.88,1.846 0.77,1.004 2.01,1.004 2.97,0 2.93,-5.259 v -4.616 h 2.09 v 4.616 q 0,4.376 -2.33,6.102 -2.29,1.686 -4.41,1.686 -2.73,0 -4.46,-2.007 -1.73,-2.007 -1.97,-4.737 -1.24,3.131 -4.09,5.178 -2.81,2.008 -6.67,2.008 -2.97,0 -5.78,-0.763 -2.77,-0.723 -5.09,-2.77 -2.29,-2.087 -2.29,-5.219 m 4.77,-41.989 q 0,-1.887 1.25,-3.131 1.28,-1.245 3.01,-1.245 1.65,0 3.01,1.285 1.37,1.284 1.37,3.091 0,1.806 -1.37,3.051 -1.36,1.204 -3.01,1.204 -1.89,0 -3.09,-1.244 -1.17,-1.285 -1.17,-3.011 m 1.57,41.909 q 0,3.051 2.17,5.018 2.17,1.967 5.22,1.967 3.45,0 6.54,-2.649 3.09,-2.69 3.09,-7.949 v -8.229 q -9.11,0.321 -13.09,3.974 -3.93,3.613 -3.93,7.868 m 14.37,-41.909 q 0,-1.887 1.33,-3.131 1.32,-1.245 3.05,-1.245 1.72,0 2.97,1.245 1.28,1.244 1.28,3.131 0,1.806 -1.32,3.051 -1.29,1.204 -2.93,1.204 -1.89,0 -3.13,-1.244 -1.25,-1.285 -1.25,-3.011 z"
     fill="#000000"
     fill-rule="evenodd"
     fill-opacity="1"
     id="path213"
     transform="translate(-331.63376,-60.801522)" />
  <path
     clip-path="url(#clip060)"
     d="m 2207.17,171.393 v -1.806 q 3.77,-0.161 6.26,-2.81 2.53,-2.69 3.37,-5.982 0.88,-3.291 0.96,-7.105 h 2.05 v 15.134 h 11.76 v 2.569 h -11.76 v 22.841 q 0,8.872 5.54,8.872 2.37,0 3.94,-2.408 1.56,-2.449 1.56,-6.785 v -4.536 h 2.05 v 4.697 q 0,4.456 -2.05,7.788 -2.05,3.332 -6.1,3.332 -1.49,0 -2.97,-0.402 -1.45,-0.361 -3.37,-1.325 -1.89,-1.003 -3.09,-3.412 -1.17,-2.448 -1.17,-5.981 v -22.681 z"
     fill="#000000"
     fill-rule="evenodd"
     fill-opacity="1"
     id="path215"
     transform="translate(-331.63376,-60.801522)" />
  <polyline
     clip-path="url(#clip060)"
     style="fill:none;stroke:#000000;stroke-width:6.5;stroke-linecap:butt;stroke-linejoin:round;stroke-miterlimit:4;stroke-dasharray:26, 26;stroke-dashoffset:0;stroke-opacity:1"
     points="   1025.44,260.43 1169.26,260.43    "
     id="polyline217"
     transform="translate(75.5896,-47.2441)" />
  <path
     clip-path="url(#clip060)"
     d="m 1222.89,289.97 q 0.3,0.343 0.3,0.685 0,0.343 -0.76,1.333 -0.72,0.989 -2.28,2.321 -1.56,1.332 -3.58,2.588 -2.02,1.256 -4.99,2.094 -2.97,0.875 -6.09,0.875 -5.59,0 -8.94,-3.996 -3.31,-3.997 -3.31,-10.125 0,-3.92 1.29,-7.383 1.29,-3.502 3.39,-5.976 2.13,-2.474 4.79,-4.263 2.71,-1.827 5.52,-2.702 2.82,-0.876 5.45,-0.876 3.84,0 6.09,1.941 2.24,1.941 2.24,4.682 0,0.647 -0.19,1.446 -0.15,0.8 -0.68,2.056 -0.5,1.256 -1.79,2.512 -1.3,1.218 -3.2,2.017 -4.23,1.789 -11.91,1.789 h -4.15 q -1.22,4.91 -1.22,8.107 0,1.256 0.23,2.55 0.23,1.256 0.84,2.855 0.64,1.598 2.09,2.626 1.48,0.989 3.61,0.989 0.69,0 1.41,-0.038 0.76,-0.038 2.67,-0.456 1.94,-0.419 3.65,-1.142 1.71,-0.723 3.88,-2.284 2.21,-1.598 3.96,-3.768 0.61,-0.799 1.03,-0.799 0.34,0 0.65,0.342 m -3.47,-18.802 q 0,-2.093 -1.56,-3.502 -1.52,-1.408 -4.18,-1.408 -0.84,0 -1.87,0.19 -1.03,0.191 -2.74,0.99 -1.67,0.799 -3.16,2.131 -1.48,1.294 -2.97,3.845 -1.48,2.512 -2.36,5.861 h 3.2 q 1.1,0 1.9,0 0.8,-0.038 2.55,-0.19 1.79,-0.153 3.09,-0.419 1.29,-0.304 2.93,-0.913 1.63,-0.609 2.66,-1.409 1.07,-0.837 1.79,-2.169 0.72,-1.332 0.72,-3.007 z"
     fill="#000000"
     fill-rule="evenodd"
     fill-opacity="1"
     id="path219"
     transform="translate(75.5896,-47.2441)" />
  <path
     clip-path="url(#clip060)"
     d="m 1267.23,243.51 q 0.32,0.32 0.32,0.773 0,0.453 -0.32,0.773 -0.32,0.319 -0.77,0.319 h -34.16 q -0.45,0 -0.77,-0.319 -0.32,-0.32 -0.32,-0.773 0,-0.453 0.32,-0.773 0.32,-0.319 0.77,-0.319 h 34.16 q 0.45,0 0.77,0.319 z"
     fill="#000000"
     fill-rule="evenodd"
     fill-opacity="1"
     id="path221"
     transform="translate(75.5896,-47.2441)" />
  <path
     clip-path="url(#clip060)"
     d="m 1303.91,221.317 q 0,0.506 -0.21,0.746 -0.21,0.213 -0.45,0.266 -0.24,0.027 -0.8,0.027 -1.15,0 -1.76,0.08 -0.61,0.08 -0.99,0.426 -0.37,0.32 -0.5,0.64 -0.11,0.319 -0.29,1.145 l -6.4,25.471 q -0.98,3.916 -4.55,6.474 -3.57,2.531 -7.49,2.531 -3.2,0 -5.22,-1.678 -2,-1.705 -2,-4.263 0,-1.306 0.42,-2.238 0.43,-0.933 1.07,-1.359 0.64,-0.426 1.17,-0.586 0.56,-0.187 1.02,-0.187 0.87,0 1.62,0.56 0.77,0.559 0.77,1.732 0,1.305 -1.01,2.398 -1.01,1.092 -2.53,1.092 -0.51,0 -0.67,-0.053 0.4,1.305 1.44,2.131 1.04,0.799 1.95,1.039 0.93,0.213 1.81,0.213 2.29,0 4.61,-2.211 2.32,-2.211 3.25,-5.968 l 6.26,-25.045 q 0.21,-0.852 0.21,-1.145 0,-0.56 -0.34,-0.746 -0.32,-0.213 -1.34,-0.347 -1.35,-0.106 -3.17,-0.106 -0.64,0 -0.9,0 -0.27,-0.027 -0.54,-0.08 -0.26,-0.053 -0.34,-0.16 -0.08,-0.133 -0.08,-0.373 0,-0.506 0.21,-0.746 0.21,-0.266 0.4,-0.293 0.19,-0.053 0.53,-0.053 l 8.02,0.16 q 0.7,0 3.04,-0.08 2.35,-0.08 3.04,-0.08 0.74,0 0.74,0.666 z"
     fill="#000000"
     fill-rule="evenodd"
     fill-opacity="1"
     id="path223"
     transform="translate(75.5896,-47.2441)" />
  <path
     clip-path="url(#clip060)"
     d="m 1336.55,248.582 -2.4,9.735 q -0.17,0.616 -0.28,0.69 -0.1,0.075 -0.4,0.075 -0.57,0 -0.57,-0.392 0,-0.037 0.05,-0.522 0.06,-0.503 0.06,-1.417 0,-3.376 -1.64,-5.371 -1.63,-1.996 -4.52,-1.996 -2.7,0 -5.29,1.417 -2.59,1.418 -4.25,3.507 -1.4,1.715 -2.37,3.804 -0.95,2.089 -1.35,3.917 -0.39,1.809 -0.54,2.909 -0.13,1.101 -0.13,1.809 0,2.089 0.67,3.712 0.68,1.604 1.79,2.517 1.14,0.914 2.45,1.362 1.32,0.447 2.76,0.447 0.54,0 1.19,-0.074 0.65,-0.075 1.66,-0.355 1.03,-0.279 1.87,-0.746 0.85,-0.466 1.6,-1.361 0.76,-0.895 1.06,-2.089 0.81,-3.04 0.81,-3.487 0,-0.373 -0.23,-0.504 -0.22,-0.13 -0.97,-0.224 l -2.01,-0.074 q -0.04,0 -0.1,0 -0.35,0 -0.5,0 -0.15,-0.019 -0.32,-0.056 -0.15,-0.038 -0.2,-0.112 -0.04,-0.093 -0.04,-0.243 0,-0.354 0.15,-0.522 0.15,-0.186 0.28,-0.205 0.13,-0.037 0.37,-0.037 l 5.36,0.112 q 0.42,0 1.99,-0.056 1.57,-0.056 2.02,-0.056 0.5,0 0.5,0.41 0,0.765 -0.62,0.765 -0.61,0.018 -0.93,0.037 -0.32,0 -0.63,0.093 -0.3,0.093 -0.41,0.168 -0.12,0.056 -0.26,0.336 -0.15,0.261 -0.21,0.485 -0.06,0.205 -0.19,0.727 -0.07,0.336 -0.26,0.97 -0.17,0.634 -0.24,0.97 l -0.73,2.946 q -0.5,2.182 -0.65,2.332 -0.07,0.149 -0.26,0.149 -0.28,0 -0.88,-0.821 -0.58,-0.82 -0.84,-1.548 -0.46,0.504 -0.76,0.802 -0.3,0.28 -0.99,0.728 -0.67,0.447 -1.57,0.802 -2.18,0.913 -4.77,0.913 -4.63,0 -7.54,-2.928 -2.91,-2.946 -2.91,-7.534 0,-3.245 1.5,-6.435 1.49,-3.189 3.86,-5.557 2.37,-2.369 5.5,-3.842 3.13,-1.474 6.27,-1.474 1.19,0 2.25,0.317 1.07,0.317 1.7,0.709 0.65,0.392 1.23,0.97 0.58,0.559 0.77,0.821 0.2,0.261 0.39,0.578 l 2.66,-2.928 q 0.47,-0.467 0.58,-0.467 0.23,0 0.32,0.131 0.09,0.13 0.09,0.261 z"
     fill="#000000"
     fill-rule="evenodd"
     fill-opacity="1"
     id="path225"
     transform="translate(75.5896,-47.2441)" />
  <path
     clip-path="url(#clip060)"
     d="m 1371.36,249.459 q 0,0.242 -0.06,0.41 -0.06,0.149 -0.19,0.224 -0.13,0.074 -0.2,0.093 -0.08,0.019 -0.24,0.037 -0.81,0.075 -1.36,0.205 -0.55,0.131 -1.89,0.802 -1.32,0.672 -2.98,1.884 l -6.68,5.166 -1.12,0.877 q 0,0.056 0.04,0.167 0.04,0.094 0.07,0.224 0.06,0.112 0.08,0.149 l 5.43,12.515 q 0.42,1.007 0.95,1.361 0.52,0.355 1.69,0.373 0.19,0 0.26,0.019 0.1,0 0.23,0.037 0.15,0.019 0.2,0.112 0.08,0.093 0.08,0.242 0,0.765 -0.69,0.765 -0.43,0 -1.89,-0.056 -1.45,-0.056 -1.86,-0.056 -0.76,0 -2.33,0.056 -1.57,0.056 -2.33,0.056 -0.54,0 -0.54,-0.429 0,-0.354 0.13,-0.522 0.15,-0.187 0.28,-0.205 0.13,-0.019 0.43,-0.019 0.22,0 0.46,-0.018 0.26,-0.038 0.64,-0.131 0.39,-0.112 0.63,-0.373 0.26,-0.28 0.26,-0.671 0,-0.317 -0.47,-1.343 l -4.42,-10.276 -5.68,4.438 -1.53,6.006 q -0.04,0.223 -0.13,0.615 -0.1,0.392 -0.17,0.671 -0.06,0.28 -0.06,0.392 0,0.243 0.15,0.392 0.17,0.149 0.58,0.224 0.41,0.056 0.73,0.074 0.33,0 1.02,0 0.86,0 1.01,0.149 0.08,0.094 0.08,0.261 0,0.262 -0.08,0.448 -0.07,0.168 -0.22,0.224 -0.13,0.056 -0.23,0.074 -0.09,0.019 -0.24,0.019 -0.39,0 -1.23,-0.037 -0.82,-0.037 -1.25,-0.037 l -2.44,-0.038 -4.85,0.112 q -0.58,0 -0.58,-0.466 0,-0.354 0.15,-0.504 0.15,-0.168 0.32,-0.186 0.16,-0.019 0.59,-0.019 0.94,0 1.49,-0.056 0.56,-0.056 0.92,-0.13 0.37,-0.094 0.56,-0.355 0.2,-0.261 0.3,-0.485 0.09,-0.242 0.22,-0.783 l 5.11,-20.515 q 0.15,-0.615 0.15,-0.709 0,-0.317 -0.19,-0.429 -0.16,-0.13 -0.65,-0.186 -0.93,-0.075 -1.64,-0.075 -0.47,0 -0.65,-0.018 -0.17,-0.019 -0.32,-0.112 -0.13,-0.112 -0.13,-0.336 0,-0.727 0.76,-0.727 l 4.93,0.112 4.88,-0.112 q 0.54,0 0.54,0.429 0,0.54 -0.26,0.652 -0.24,0.112 -1.04,0.112 -1.4,0 -2.03,0.187 -0.62,0.168 -0.81,0.466 -0.16,0.28 -0.37,1.1 l -3.06,12.253 14.9,-11.451 q 1.38,-1.156 1.38,-1.753 0,-0.391 -0.28,-0.559 -0.26,-0.187 -0.91,-0.243 -0.47,-0.074 -0.47,-0.429 0,-0.354 0.13,-0.522 0.15,-0.186 0.27,-0.205 0.13,-0.037 0.33,-0.037 0.69,0 2.13,0.056 1.43,0.056 2.12,0.056 0.47,0 1.38,-0.056 0.92,-0.056 1.33,-0.056 0.2,0 0.31,0.149 0.12,0.13 0.12,0.28 z"
     fill="#000000"
     fill-rule="evenodd"
     fill-opacity="1"
     id="path227"
     transform="translate(75.5896,-47.2441)" />
  <path
     clip-path="url(#clip060)"
     d="m 1396.84,242.258 q 0.86,0.853 0.86,2.025 0,1.172 -0.86,2.052 -0.85,0.852 -2.02,0.852 -1.17,0 -2.05,-0.852 -0.85,-0.88 -0.85,-2.052 0,-1.172 0.85,-2.025 0.88,-0.879 2.05,-0.879 1.17,0 2.02,0.879 z"
     fill="#000000"
     fill-rule="evenodd"
     fill-opacity="1"
     id="path229"
     transform="translate(75.5896,-47.2441)" />
  <path
     clip-path="url(#clip060)"
     d="m 1422.07,226.779 v -1.706 q 6.55,0 9.94,-3.49 0.93,0 1.09,0.213 0.16,0.214 0.16,1.199 v 30.613 q 0,1.625 0.8,2.132 0.8,0.506 4.29,0.506 h 1.73 v 1.678 q -1.92,-0.16 -8.85,-0.16 -6.92,0 -8.82,0.16 v -1.678 h 1.74 q 3.43,0 4.26,-0.48 0.83,-0.506 0.83,-2.158 V 225.34 q -2.86,1.439 -7.17,1.439 z"
     fill="#000000"
     fill-rule="evenodd"
     fill-opacity="1"
     id="path231"
     transform="translate(75.5896,-47.2441)" />
  <path
     clip-path="url(#clip060)"
     d="m 1446.42,226.779 v -1.706 q 6.55,0 9.94,-3.49 0.93,0 1.09,0.213 0.16,0.214 0.16,1.199 v 30.613 q 0,1.625 0.8,2.132 0.8,0.506 4.29,0.506 h 1.73 v 1.678 q -1.92,-0.16 -8.84,-0.16 -6.93,0 -8.82,0.16 v -1.678 h 1.73 q 3.44,0 4.26,-0.48 0.83,-0.506 0.83,-2.158 V 225.34 q -2.85,1.439 -7.17,1.439 z"
     fill="#000000"
     fill-rule="evenodd"
     fill-opacity="1"
     id="path233"
     transform="translate(75.5896,-47.2441)" />
  <path
     clip-path="url(#clip060)"
     d="m 1467.1,240.473 q 0,-8.019 2.03,-12.389 2.82,-6.501 9.48,-6.501 1.41,0 2.88,0.4 1.49,0.373 3.35,1.838 1.9,1.466 3.04,3.863 2.19,4.636 2.19,12.789 0,7.966 -2.03,12.309 -2.96,6.341 -9.48,6.341 -2.45,0 -4.96,-1.252 -2.48,-1.252 -4.05,-4.263 -2.45,-4.503 -2.45,-13.135 m 4.53,-0.666 q 0,8.233 0.59,11.51 0.66,3.543 2.47,5.089 1.84,1.518 3.87,1.518 2.18,0 3.99,-1.625 1.84,-1.652 2.4,-5.195 0.61,-3.491 0.59,-11.297 0,-7.593 -0.54,-10.63 -0.71,-3.544 -2.63,-4.956 -1.89,-1.439 -3.81,-1.439 -0.72,0 -1.49,0.213 -0.75,0.213 -1.84,0.826 -1.1,0.613 -1.95,2.132 -0.82,1.518 -1.22,3.81 -0.43,2.957 -0.43,10.044 z"
     fill="#000000"
     fill-rule="evenodd"
     fill-opacity="1"
     id="path235"
     transform="translate(75.5896,-47.2441)" />
  <path
     clip-path="url(#clip060)"
     d="m 1494.34,240.473 q 0,-8.019 2.02,-12.389 2.83,-6.501 9.49,-6.501 1.41,0 2.88,0.4 1.49,0.373 3.35,1.838 1.9,1.466 3.04,3.863 2.19,4.636 2.19,12.789 0,7.966 -2.03,12.309 -2.96,6.341 -9.48,6.341 -2.45,0 -4.96,-1.252 -2.48,-1.252 -4.05,-4.263 -2.45,-4.503 -2.45,-13.135 m 4.53,-0.666 q 0,8.233 0.59,11.51 0.66,3.543 2.47,5.089 1.84,1.518 3.87,1.518 2.18,0 3.99,-1.625 1.84,-1.652 2.4,-5.195 0.61,-3.491 0.59,-11.297 0,-7.593 -0.54,-10.63 -0.72,-3.544 -2.63,-4.956 -1.9,-1.439 -3.81,-1.439 -0.72,0 -1.5,0.213 -0.74,0.213 -1.83,0.826 -1.1,0.613 -1.95,2.132 -0.82,1.518 -1.22,3.81 -0.43,2.957 -0.43,10.044 z"
     fill="#000000"
     fill-rule="evenodd"
     fill-opacity="1"
     id="path237"
     transform="translate(75.5896,-47.2441)" />
  <polyline
     clip-path="url(#clip060)"
     style="fill:none;stroke:#000000;stroke-width:4;stroke-linecap:butt;stroke-linejoin:round;stroke-opacity:1"
     points="   195.329,1388.43 195.329,47.2441    "
     id="polyline1058"
     transform="translate(75.5896,-47.2441)" />
  <polyline
     clip-path="url(#clip060)"
     style="fill:none;stroke:#000000;stroke-width:4;stroke-linecap:butt;stroke-linejoin:round;stroke-opacity:1"
     points="   195.329,1388.43 195.329,47.2441    "
     id="polyline1140"
     transform="translate(75.5896,-47.2441)" />
</svg>
